# Blender v2.77 (sub 0) OBJ File: ''
# www.blender.org
mtllib Arrow_Jade.mtl
o Arrow_Jade
v -0.175000 0.050000 0.012500
v -0.175000 0.025000 -0.012500
v -0.175000 0.025000 0.012500
v -0.175000 0.050000 -0.012500
v -0.175000 0.075000 0.012500
v -0.175000 0.075000 -0.012500
v -0.150000 0.025000 0.012500
v -0.150000 0.000000 -0.012500
v -0.150000 -0.000000 0.012500
v -0.150000 0.025000 -0.012500
v -0.150000 0.100000 0.012500
v -0.150000 0.075000 -0.012500
v -0.150000 0.075000 0.012500
v -0.150000 0.100000 -0.012500
v -0.075000 0.125000 0.012500
v -0.075000 0.100000 -0.012500
v -0.075000 0.100000 0.012500
v -0.075000 0.125000 -0.012500
v -0.050000 0.150000 0.012500
v -0.050000 0.125000 -0.012500
v -0.050000 0.125000 0.012500
v -0.050000 0.150000 -0.012500
v -0.025000 0.175000 0.012500
v -0.025000 0.150000 -0.012500
v -0.025000 0.150000 0.012500
v -0.025000 0.175000 -0.012500
v 0.000000 0.200000 0.012500
v 0.000000 0.175000 -0.012500
v 0.000000 0.175000 0.012500
v 0.000000 0.200000 -0.012500
v 0.025000 0.225000 0.012500
v 0.025000 0.200000 -0.012500
v 0.025000 0.200000 0.012500
v 0.025000 0.225000 -0.012500
v 0.050000 0.250000 0.012500
v 0.050000 0.225000 -0.012500
v 0.050000 0.225000 0.012500
v 0.050000 0.250000 -0.012500
v 0.075000 0.275000 0.012500
v 0.075000 0.250000 -0.012500
v 0.075000 0.250000 0.012500
v 0.075000 0.275000 -0.012500
v 0.075000 0.325000 0.012500
v 0.075000 0.300000 -0.012500
v 0.075000 0.300000 0.012500
v 0.075000 0.325000 -0.012500
v 0.100000 0.300000 0.012500
v 0.100000 0.275000 -0.012500
v 0.100000 0.275000 0.012500
v 0.100000 0.300000 -0.012500
v 0.125000 0.350000 0.012500
v 0.125000 0.325000 -0.012500
v 0.125000 0.325000 0.012500
v 0.125000 0.350000 -0.012500
v -0.100000 -0.000000 0.012500
v -0.100000 0.000000 -0.012500
v -0.100000 0.025000 0.012500
v -0.100000 0.025000 -0.012500
v -0.075000 0.025000 0.012500
v -0.075000 0.025000 -0.012500
v -0.075000 0.050000 0.012500
v -0.075000 0.050000 -0.012500
v -0.075000 0.075000 0.012500
v -0.075000 0.075000 -0.012500
v -0.050000 0.075000 0.012500
v -0.050000 0.075000 -0.012500
v -0.050000 0.100000 0.012500
v -0.050000 0.100000 -0.012500
v -0.025000 0.100000 0.012500
v -0.025000 0.100000 -0.012500
v -0.025000 0.125000 0.012500
v -0.025000 0.125000 -0.012500
v 0.000000 0.125000 0.012500
v 0.000000 0.125000 -0.012500
v 0.000000 0.150000 0.012500
v 0.000000 0.150000 -0.012500
v 0.025000 0.150000 0.012500
v 0.025000 0.150000 -0.012500
v 0.025000 0.175000 0.012500
v 0.025000 0.175000 -0.012500
v 0.050000 0.175000 0.012500
v 0.050000 0.175000 -0.012500
v 0.050000 0.200000 0.012500
v 0.050000 0.200000 -0.012500
v 0.075000 0.200000 0.012500
v 0.075000 0.200000 -0.012500
v 0.075000 0.225000 0.012500
v 0.075000 0.225000 -0.012500
v 0.100000 0.225000 0.012500
v 0.100000 0.225000 -0.012500
v 0.100000 0.250000 0.012500
v 0.100000 0.250000 -0.012500
v 0.150000 0.250000 0.012500
v 0.150000 0.250000 -0.012500
v 0.150000 0.300000 0.012500
v 0.150000 0.300000 -0.012500
v 0.175000 0.300000 0.012500
v 0.175000 0.300000 -0.012500
v 0.175000 0.325000 0.012500
v 0.175000 0.325000 -0.012500
v 0.175000 0.350000 0.012500
v 0.175000 0.350000 -0.012500
v -0.150000 0.025000 0.012500
v -0.175000 0.050000 0.012500
v -0.175000 0.025000 0.012500
v -0.150000 0.075000 0.012500
v -0.175000 0.075000 0.012500
v -0.125000 0.025000 0.012500
v -0.150000 -0.000000 0.012500
v -0.125000 0.050000 0.012500
v -0.150000 0.100000 0.012500
v -0.125000 0.075000 0.012500
v -0.100000 -0.000000 0.012500
v -0.100000 0.025000 0.012500
v -0.100000 0.050000 0.012500
v -0.100000 0.075000 0.012500
v -0.100000 0.100000 0.012500
v -0.075000 0.025000 0.012500
v -0.075000 0.050000 0.012500
v -0.075000 0.075000 0.012500
v -0.075000 0.100000 0.012500
v -0.050000 0.075000 0.012500
v -0.050000 0.100000 0.012500
v -0.075000 0.125000 0.012500
v -0.050000 0.125000 0.012500
v -0.025000 0.100000 0.012500
v -0.025000 0.125000 0.012500
v -0.050000 0.150000 0.012500
v -0.025000 0.150000 0.012500
v 0.000000 0.125000 0.012500
v 0.000000 0.150000 0.012500
v -0.025000 0.175000 0.012500
v 0.000000 0.175000 0.012500
v 0.025000 0.150000 0.012500
v 0.025000 0.175000 0.012500
v 0.000000 0.200000 0.012500
v 0.025000 0.200000 0.012500
v 0.050000 0.175000 0.012500
v 0.050000 0.200000 0.012500
v 0.025000 0.225000 0.012500
v 0.050000 0.225000 0.012500
v 0.075000 0.200000 0.012500
v 0.075000 0.225000 0.012500
v 0.050000 0.250000 0.012500
v 0.075000 0.250000 0.012500
v 0.100000 0.225000 0.012500
v 0.100000 0.250000 0.012500
v 0.075000 0.275000 0.012500
v 0.100000 0.275000 0.012500
v 0.100000 0.300000 0.012500
v 0.075000 0.325000 0.012500
v 0.075000 0.300000 0.012500
v 0.125000 0.250000 0.012500
v 0.125000 0.275000 0.012500
v 0.125000 0.325000 0.012500
v 0.150000 0.250000 0.012500
v 0.150000 0.300000 0.012500
v 0.125000 0.350000 0.012500
v 0.150000 0.325000 0.012500
v 0.175000 0.300000 0.012500
v 0.175000 0.325000 0.012500
v 0.175000 0.350000 0.012500
v -0.175000 0.025000 -0.012500
v -0.175000 0.050000 -0.012500
v -0.150000 0.025000 -0.012500
v -0.175000 0.075000 -0.012500
v -0.150000 0.075000 -0.012500
v -0.150000 0.000000 -0.012500
v -0.125000 0.025000 -0.012500
v -0.150000 0.100000 -0.012500
v -0.125000 0.050000 -0.012500
v -0.125000 0.075000 -0.012500
v -0.100000 0.000000 -0.012500
v -0.100000 0.025000 -0.012500
v -0.100000 0.050000 -0.012500
v -0.100000 0.075000 -0.012500
v -0.100000 0.100000 -0.012500
v -0.075000 0.025000 -0.012500
v -0.075000 0.050000 -0.012500
v -0.075000 0.075000 -0.012500
v -0.075000 0.100000 -0.012500
v -0.050000 0.075000 -0.012500
v -0.075000 0.125000 -0.012500
v -0.050000 0.100000 -0.012500
v -0.050000 0.125000 -0.012500
v -0.025000 0.100000 -0.012500
v -0.050000 0.150000 -0.012500
v -0.025000 0.125000 -0.012500
v -0.025000 0.150000 -0.012500
v 0.000000 0.125000 -0.012500
v -0.025000 0.175000 -0.012500
v 0.000000 0.150000 -0.012500
v 0.000000 0.175000 -0.012500
v 0.025000 0.150000 -0.012500
v 0.000000 0.200000 -0.012500
v 0.025000 0.175000 -0.012500
v 0.025000 0.200000 -0.012500
v 0.050000 0.175000 -0.012500
v 0.025000 0.225000 -0.012500
v 0.050000 0.200000 -0.012500
v 0.050000 0.225000 -0.012500
v 0.075000 0.200000 -0.012500
v 0.050000 0.250000 -0.012500
v 0.075000 0.225000 -0.012500
v 0.075000 0.250000 -0.012500
v 0.100000 0.225000 -0.012500
v 0.075000 0.275000 -0.012500
v 0.100000 0.250000 -0.012500
v 0.100000 0.275000 -0.012500
v 0.075000 0.300000 -0.012500
v 0.075000 0.325000 -0.012500
v 0.100000 0.300000 -0.012500
v 0.125000 0.250000 -0.012500
v 0.125000 0.275000 -0.012500
v 0.125000 0.325000 -0.012500
v 0.150000 0.250000 -0.012500
v 0.150000 0.300000 -0.012500
v 0.125000 0.350000 -0.012500
v 0.150000 0.325000 -0.012500
v 0.175000 0.300000 -0.012500
v 0.175000 0.325000 -0.012500
v 0.175000 0.350000 -0.012500
v -0.150000 0.000000 -0.012500
v -0.100000 -0.000000 0.012500
v -0.150000 -0.000000 0.012500
v -0.100000 0.000000 -0.012500
v -0.175000 0.025000 -0.012500
v -0.150000 0.025000 0.012500
v -0.175000 0.025000 0.012500
v -0.150000 0.025000 -0.012500
v -0.100000 0.025000 -0.012500
v -0.075000 0.025000 0.012500
v -0.100000 0.025000 0.012500
v -0.075000 0.025000 -0.012500
v -0.075000 0.075000 -0.012500
v -0.050000 0.075000 0.012500
v -0.075000 0.075000 0.012500
v -0.050000 0.075000 -0.012500
v -0.050000 0.100000 -0.012500
v -0.025000 0.100000 0.012500
v -0.050000 0.100000 0.012500
v -0.025000 0.100000 -0.012500
v -0.025000 0.125000 -0.012500
v 0.000000 0.125000 0.012500
v -0.025000 0.125000 0.012500
v 0.000000 0.125000 -0.012500
v 0.000000 0.150000 -0.012500
v 0.025000 0.150000 0.012500
v 0.000000 0.150000 0.012500
v 0.025000 0.150000 -0.012500
v 0.025000 0.175000 -0.012500
v 0.050000 0.175000 0.012500
v 0.025000 0.175000 0.012500
v 0.050000 0.175000 -0.012500
v 0.050000 0.200000 -0.012500
v 0.075000 0.200000 0.012500
v 0.050000 0.200000 0.012500
v 0.075000 0.200000 -0.012500
v 0.075000 0.225000 -0.012500
v 0.100000 0.225000 0.012500
v 0.075000 0.225000 0.012500
v 0.100000 0.225000 -0.012500
v 0.100000 0.250000 -0.012500
v 0.125000 0.250000 0.012500
v 0.100000 0.250000 0.012500
v 0.125000 0.250000 -0.012500
v 0.150000 0.250000 0.012500
v 0.150000 0.250000 -0.012500
v 0.075000 0.300000 -0.012500
v 0.100000 0.300000 0.012500
v 0.075000 0.300000 0.012500
v 0.100000 0.300000 -0.012500
v 0.150000 0.300000 -0.012500
v 0.175000 0.300000 0.012500
v 0.150000 0.300000 0.012500
v 0.175000 0.300000 -0.012500
v -0.175000 0.075000 0.012500
v -0.150000 0.075000 0.012500
v -0.175000 0.075000 -0.012500
v -0.150000 0.075000 -0.012500
v -0.150000 0.100000 0.012500
v -0.100000 0.100000 0.012500
v -0.150000 0.100000 -0.012500
v -0.075000 0.100000 0.012500
v -0.100000 0.100000 -0.012500
v -0.075000 0.100000 -0.012500
v -0.075000 0.125000 0.012500
v -0.050000 0.125000 0.012500
v -0.075000 0.125000 -0.012500
v -0.050000 0.125000 -0.012500
v -0.050000 0.150000 0.012500
v -0.025000 0.150000 0.012500
v -0.050000 0.150000 -0.012500
v -0.025000 0.150000 -0.012500
v -0.025000 0.175000 0.012500
v 0.000000 0.175000 0.012500
v -0.025000 0.175000 -0.012500
v 0.000000 0.175000 -0.012500
v 0.000000 0.200000 0.012500
v 0.025000 0.200000 0.012500
v 0.000000 0.200000 -0.012500
v 0.025000 0.200000 -0.012500
v 0.025000 0.225000 0.012500
v 0.050000 0.225000 0.012500
v 0.025000 0.225000 -0.012500
v 0.050000 0.225000 -0.012500
v 0.050000 0.250000 0.012500
v 0.075000 0.250000 0.012500
v 0.050000 0.250000 -0.012500
v 0.075000 0.250000 -0.012500
v 0.075000 0.275000 0.012500
v 0.100000 0.275000 0.012500
v 0.075000 0.275000 -0.012500
v 0.100000 0.275000 -0.012500
v 0.075000 0.325000 0.012500
v 0.125000 0.325000 0.012500
v 0.075000 0.325000 -0.012500
v 0.125000 0.325000 -0.012500
v 0.125000 0.350000 0.012500
v 0.175000 0.350000 0.012500
v 0.125000 0.350000 -0.012500
v 0.175000 0.350000 -0.012500
vt 0.9004 0.5000
vt 0.9004 0.5000
vt 0.9004 0.5000
vt 0.9004 0.5000
vt 0.7715 0.5000
vt 0.7715 0.5000
vt 0.7715 0.5000
vt 0.7715 0.5000
vt 0.9004 0.5000
vt 0.9004 0.5000
vt 0.9004 0.5000
vt 0.9004 0.5000
vt 0.7715 0.5000
vt 0.7715 0.5000
vt 0.7715 0.5000
vt 0.7715 0.5000
vt 0.7480 0.5000
vt 0.7480 0.5000
vt 0.7480 0.5000
vt 0.7480 0.5000
vt 0.7480 0.5000
vt 0.7480 0.5000
vt 0.7480 0.5000
vt 0.7480 0.5000
vt 0.7480 0.5000
vt 0.7480 0.5000
vt 0.7480 0.5000
vt 0.7480 0.5000
vt 0.7480 0.5000
vt 0.7480 0.5000
vt 0.7480 0.5000
vt 0.7480 0.5000
vt 0.7480 0.5000
vt 0.7480 0.5000
vt 0.7480 0.5000
vt 0.7480 0.5000
vt 0.7480 0.5000
vt 0.7480 0.5000
vt 0.7480 0.5000
vt 0.7480 0.5000
vt 0.7480 0.5000
vt 0.7480 0.5000
vt 0.7480 0.5000
vt 0.7480 0.5000
vt 0.7480 0.5000
vt 0.7480 0.5000
vt 0.7480 0.5000
vt 0.7480 0.5000
vt 0.9004 0.5000
vt 0.9004 0.5000
vt 0.9004 0.5000
vt 0.9004 0.5000
vt 0.7480 0.5000
vt 0.7480 0.5000
vt 0.7480 0.5000
vt 0.7480 0.5000
vt 0.9004 0.5000
vt 0.9004 0.5000
vt 0.9004 0.5000
vt 0.9004 0.5000
vt 0.9004 0.5000
vt 0.9004 0.5000
vt 0.9004 0.5000
vt 0.9004 0.5000
vt 0.7715 0.5000
vt 0.7715 0.5000
vt 0.7715 0.5000
vt 0.7715 0.5000
vt 0.7715 0.5000
vt 0.7715 0.5000
vt 0.7715 0.5000
vt 0.7715 0.5000
vt 0.7715 0.5000
vt 0.7715 0.5000
vt 0.7715 0.5000
vt 0.7715 0.5000
vt 0.7715 0.5000
vt 0.7715 0.5000
vt 0.7715 0.5000
vt 0.7715 0.5000
vt 0.7715 0.5000
vt 0.7715 0.5000
vt 0.7715 0.5000
vt 0.7715 0.5000
vt 0.7715 0.5000
vt 0.7715 0.5000
vt 0.7715 0.5000
vt 0.7715 0.5000
vt 0.7715 0.5000
vt 0.7715 0.5000
vt 0.7715 0.5000
vt 0.7715 0.5000
vt 0.7715 0.5000
vt 0.7715 0.5000
vt 0.7715 0.5000
vt 0.7715 0.5000
vt 0.9004 0.5000
vt 0.9004 0.5000
vt 0.9004 0.5000
vt 0.9004 0.5000
vt 0.9004 0.5000
vt 0.9004 0.5000
vt 0.9004 0.5000
vt 0.9004 0.5000
vt 0.7480 0.5000
vt 0.7480 0.5000
vt 0.7480 0.5000
vt 0.7480 0.5000
vt 0.9004 0.5000
vt 0.9004 0.5000
vt 0.9004 0.5000
vt 0.7715 0.5000
vt 0.7715 0.5000
vt 0.7715 0.5000
vt 0.9004 0.5000
vt 0.9004 0.5000
vt 0.7715 0.5000
vt 0.7715 0.5000
vt 0.9004 0.5000
vt 0.7715 0.5000
vt 0.9004 0.5000
vt 0.7715 0.5000
vt 0.7715 0.5000
vt 0.9004 0.5000
vt 0.9004 0.5000
vt 0.9004 0.5000
vt 0.7715 0.5000
vt 0.7715 0.5000
vt 0.9004 0.5000
vt 0.7715 0.5000
vt 0.9004 0.5000
vt 0.7715 0.5000
vt 0.9004 0.5000
vt 0.7480 0.5000
vt 0.7480 0.5000
vt 0.7480 0.5000
vt 0.7715 0.5000
vt 0.7480 0.5000
vt 0.7715 0.5000
vt 0.7715 0.5000
vt 0.7480 0.5000
vt 0.7480 0.5000
vt 0.7715 0.5000
vt 0.7480 0.5000
vt 0.7715 0.5000
vt 0.7715 0.5000
vt 0.7480 0.5000
vt 0.7480 0.5000
vt 0.7715 0.5000
vt 0.7480 0.5000
vt 0.7715 0.5000
vt 0.7715 0.5000
vt 0.7480 0.5000
vt 0.7480 0.5000
vt 0.7715 0.5000
vt 0.7480 0.5000
vt 0.7715 0.5000
vt 0.7715 0.5000
vt 0.7480 0.5000
vt 0.7480 0.5000
vt 0.7715 0.5000
vt 0.7480 0.5000
vt 0.7715 0.5000
vt 0.7715 0.5000
vt 0.7480 0.5000
vt 0.7480 0.5000
vt 0.7715 0.5000
vt 0.7480 0.5000
vt 0.7715 0.5000
vt 0.7715 0.5000
vt 0.7480 0.5000
vt 0.7480 0.5000
vt 0.7715 0.5000
vt 0.7480 0.5000
vt 0.7715 0.5000
vt 0.7715 0.5000
vt 0.7480 0.5000
vt 0.7480 0.5000
vt 0.7715 0.5000
vt 0.7480 0.5000
vt 0.7480 0.5000
vt 0.7480 0.5000
vt 0.7480 0.5000
vt 0.7715 0.5000
vt 0.7715 0.5000
vt 0.9004 0.5000
vt 0.9004 0.5000
vt 0.9004 0.5000
vt 0.7715 0.5000
vt 0.7480 0.5000
vt 0.9004 0.5000
vt 0.9004 0.5000
vt 0.9004 0.5000
vt 0.7480 0.5000
vt 0.7480 0.5000
vt 0.7480 0.5000
vt 0.9004 0.5000
vt 0.9004 0.5000
vt 0.7480 0.5000
vt 0.9004 0.5000
vt 0.7480 0.5000
vt 0.9004 0.5000
vt 0.9004 0.5000
vt 0.9004 0.5000
vt 0.7715 0.5000
vt 0.7715 0.5000
vt 0.7715 0.5000
vt 0.9004 0.5000
vt 0.9004 0.5000
vt 0.7715 0.5000
vt 0.7715 0.5000
vt 0.9004 0.5000
vt 0.7715 0.5000
vt 0.9004 0.5000
vt 0.7715 0.5000
vt 0.7715 0.5000
vt 0.9004 0.5000
vt 0.9004 0.5000
vt 0.9004 0.5000
vt 0.7715 0.5000
vt 0.7715 0.5000
vt 0.9004 0.5000
vt 0.7715 0.5000
vt 0.9004 0.5000
vt 0.7715 0.5000
vt 0.9004 0.5000
vt 0.7480 0.5000
vt 0.7480 0.5000
vt 0.7480 0.5000
vt 0.7715 0.5000
vt 0.7480 0.5000
vt 0.7715 0.5000
vt 0.7715 0.5000
vt 0.7480 0.5000
vt 0.7480 0.5000
vt 0.7715 0.5000
vt 0.7480 0.5000
vt 0.7715 0.5000
vt 0.7715 0.5000
vt 0.7480 0.5000
vt 0.7480 0.5000
vt 0.7715 0.5000
vt 0.7480 0.5000
vt 0.7715 0.5000
vt 0.7715 0.5000
vt 0.7480 0.5000
vt 0.7480 0.5000
vt 0.7715 0.5000
vt 0.7480 0.5000
vt 0.7715 0.5000
vt 0.7715 0.5000
vt 0.7480 0.5000
vt 0.7480 0.5000
vt 0.7715 0.5000
vt 0.7480 0.5000
vt 0.7715 0.5000
vt 0.7715 0.5000
vt 0.7480 0.5000
vt 0.7480 0.5000
vt 0.7715 0.5000
vt 0.7480 0.5000
vt 0.7715 0.5000
vt 0.7715 0.5000
vt 0.7480 0.5000
vt 0.7480 0.5000
vt 0.7715 0.5000
vt 0.7480 0.5000
vt 0.7715 0.5000
vt 0.7715 0.5000
vt 0.7480 0.5000
vt 0.7480 0.5000
vt 0.7715 0.5000
vt 0.7480 0.5000
vt 0.7480 0.5000
vt 0.7480 0.5000
vt 0.7480 0.5000
vt 0.7715 0.5000
vt 0.7715 0.5000
vt 0.9004 0.5000
vt 0.9004 0.5000
vt 0.9004 0.5000
vt 0.7715 0.5000
vt 0.7480 0.5000
vt 0.9004 0.5000
vt 0.9004 0.5000
vt 0.9004 0.5000
vt 0.7480 0.5000
vt 0.7480 0.5000
vt 0.7480 0.5000
vt 0.9004 0.5000
vt 0.9004 0.5000
vt 0.7480 0.5000
vt 0.9004 0.5000
vt 0.7480 0.5000
vt 0.9004 0.5000
vt 0.9004 0.5000
vt 0.9004 0.5000
vt 0.9004 0.5000
vt 0.9004 0.5000
vt 0.9004 0.5000
vt 0.9004 0.5000
vt 0.9004 0.5000
vt 0.9004 0.5000
vt 0.9004 0.5000
vt 0.9004 0.5000
vt 0.9004 0.5000
vt 0.7715 0.5000
vt 0.7715 0.5000
vt 0.7715 0.5000
vt 0.7715 0.5000
vt 0.7715 0.5000
vt 0.7715 0.5000
vt 0.7715 0.5000
vt 0.7715 0.5000
vt 0.7715 0.5000
vt 0.7715 0.5000
vt 0.7715 0.5000
vt 0.7715 0.5000
vt 0.7715 0.5000
vt 0.7715 0.5000
vt 0.7715 0.5000
vt 0.7715 0.5000
vt 0.7715 0.5000
vt 0.7715 0.5000
vt 0.7715 0.5000
vt 0.7715 0.5000
vt 0.7715 0.5000
vt 0.7715 0.5000
vt 0.7715 0.5000
vt 0.7715 0.5000
vt 0.7715 0.5000
vt 0.7715 0.5000
vt 0.7715 0.5000
vt 0.7715 0.5000
vt 0.7715 0.5000
vt 0.7715 0.5000
vt 0.7715 0.5000
vt 0.9004 0.5000
vt 0.9004 0.5000
vt 0.9004 0.5000
vt 0.7715 0.5000
vt 0.9004 0.5000
vt 0.7480 0.5000
vt 0.7480 0.5000
vt 0.7480 0.5000
vt 0.7480 0.5000
vt 0.9004 0.5000
vt 0.9004 0.5000
vt 0.9004 0.5000
vt 0.9004 0.5000
vt 0.7715 0.5000
vt 0.7715 0.5000
vt 0.7715 0.5000
vt 0.7715 0.5000
vt 0.7715 0.5000
vt 0.7715 0.5000
vt 0.7715 0.5000
vt 0.7480 0.5000
vt 0.7480 0.5000
vt 0.7480 0.5000
vt 0.7715 0.5000
vt 0.7480 0.5000
vt 0.7480 0.5000
vt 0.7480 0.5000
vt 0.7480 0.5000
vt 0.7480 0.5000
vt 0.7480 0.5000
vt 0.7480 0.5000
vt 0.7480 0.5000
vt 0.7480 0.5000
vt 0.7480 0.5000
vt 0.7480 0.5000
vt 0.7480 0.5000
vt 0.7480 0.5000
vt 0.7480 0.5000
vt 0.7480 0.5000
vt 0.7480 0.5000
vt 0.7480 0.5000
vt 0.7480 0.5000
vt 0.7480 0.5000
vt 0.7480 0.5000
vt 0.7480 0.5000
vt 0.7480 0.5000
vt 0.7480 0.5000
vt 0.7480 0.5000
vt 0.7480 0.5000
vt 0.7480 0.5000
vt 0.7480 0.5000
vt 0.7480 0.5000
vt 0.7480 0.5000
vt 0.7480 0.5000
vt 0.7480 0.5000
vt 0.7480 0.5000
vt 0.7480 0.5000
vt 0.7480 0.5000
vt 0.7480 0.5000
vt 0.7480 0.5000
vt 0.7480 0.5000
vn -1.0000 0.0000 0.0000
vn 1.0000 -0.0000 0.0000
vn 0.0000 -0.0000 1.0000
vn 0.0000 0.0000 -1.0000
vn 0.0000 -1.0000 -0.0000
vn 0.0000 1.0000 0.0000
usemtl palette.004
s 1
f 1/1/1 2/2/1 3/3/1
f 4/4/1 2/2/1 1/1/1
f 5/5/1 4/6/1 1/7/1
f 6/8/1 4/6/1 5/5/1
f 7/9/1 8/10/1 9/11/1
f 10/12/1 8/10/1 7/9/1
f 11/13/1 12/14/1 13/15/1
f 14/16/1 12/14/1 11/13/1
f 15/17/1 16/18/1 17/19/1
f 18/20/1 16/18/1 15/17/1
f 19/21/1 20/22/1 21/23/1
f 22/24/1 20/22/1 19/21/1
f 23/25/1 24/26/1 25/27/1
f 26/28/1 24/26/1 23/25/1
f 27/29/1 28/30/1 29/31/1
f 30/32/1 28/30/1 27/29/1
f 31/33/1 32/34/1 33/35/1
f 34/36/1 32/34/1 31/33/1
f 35/37/1 36/38/1 37/39/1
f 38/40/1 36/38/1 35/37/1
f 39/41/1 40/42/1 41/43/1
f 42/44/1 40/42/1 39/41/1
f 43/45/1 44/46/1 45/47/1
f 46/48/1 44/46/1 43/45/1
f 47/49/1 48/50/1 49/51/1
f 50/52/1 48/50/1 47/49/1
f 51/53/1 52/54/1 53/55/1
f 54/56/1 52/54/1 51/53/1
f 55/57/2 56/58/2 57/59/2
f 57/59/2 56/58/2 58/60/2
f 59/61/2 60/62/2 61/63/2
f 61/63/2 60/62/2 62/64/2
f 61/65/2 62/66/2 63/67/2
f 63/67/2 62/66/2 64/68/2
f 65/69/2 66/70/2 67/71/2
f 67/71/2 66/70/2 68/72/2
f 69/73/2 70/74/2 71/75/2
f 71/75/2 70/74/2 72/76/2
f 73/77/2 74/78/2 75/79/2
f 75/79/2 74/78/2 76/80/2
f 77/81/2 78/82/2 79/83/2
f 79/83/2 78/82/2 80/84/2
f 81/85/2 82/86/2 83/87/2
f 83/87/2 82/86/2 84/88/2
f 85/89/2 86/90/2 87/91/2
f 87/91/2 86/90/2 88/92/2
f 89/93/2 90/94/2 91/95/2
f 91/95/2 90/94/2 92/96/2
f 93/97/2 94/98/2 95/99/2
f 95/99/2 94/98/2 96/100/2
f 97/101/2 98/102/2 99/103/2
f 99/103/2 98/102/2 100/104/2
f 99/105/2 100/106/2 101/107/2
f 101/107/2 100/106/2 102/108/2
f 103/109/3 104/110/3 105/111/3
f 106/112/3 107/113/3 104/114/3
f 108/115/3 103/109/3 109/116/3
f 108/115/3 104/110/3 103/109/3
f 110/117/3 111/118/3 106/112/3
f 110/119/3 104/110/3 108/115/3
f 110/117/3 106/112/3 104/114/3
f 112/120/3 111/118/3 110/117/3
f 113/121/3 108/115/3 109/116/3
f 114/122/3 110/117/3 108/123/3
f 114/124/3 108/115/3 113/121/3
f 115/125/3 112/126/3 110/119/3
f 115/127/3 110/117/3 114/122/3
f 116/128/3 111/118/3 112/120/3
f 116/129/3 112/126/3 115/125/3
f 117/130/3 111/118/3 116/128/3
f 118/131/3 115/125/3 114/124/3
f 119/132/3 116/128/3 115/127/3
f 119/133/3 115/125/3 118/131/3
f 120/134/3 117/135/3 116/136/3
f 120/137/3 116/128/3 119/132/3
f 121/138/3 117/135/3 120/134/3
f 122/139/3 121/140/3 120/137/3
f 123/141/3 124/142/3 121/138/3
f 123/143/3 121/140/3 122/139/3
f 125/144/3 124/142/3 123/141/3
f 126/145/3 125/146/3 123/143/3
f 127/147/3 128/148/3 125/144/3
f 127/149/3 125/146/3 126/145/3
f 129/150/3 128/148/3 127/147/3
f 130/151/3 129/152/3 127/149/3
f 131/153/3 132/154/3 129/150/3
f 131/155/3 129/152/3 130/151/3
f 133/156/3 132/154/3 131/153/3
f 134/157/3 133/158/3 131/155/3
f 135/159/3 136/160/3 133/156/3
f 135/161/3 133/158/3 134/157/3
f 137/162/3 136/160/3 135/159/3
f 138/163/3 137/164/3 135/161/3
f 139/165/3 140/166/3 137/162/3
f 139/167/3 137/164/3 138/163/3
f 141/168/3 140/166/3 139/165/3
f 142/169/3 141/170/3 139/167/3
f 143/171/3 144/172/3 141/168/3
f 143/173/3 141/170/3 142/169/3
f 145/174/3 144/172/3 143/171/3
f 146/175/3 145/176/3 143/173/3
f 147/177/3 148/178/3 145/174/3
f 147/179/3 145/176/3 146/175/3
f 149/180/3 148/178/3 147/177/3
f 150/181/3 151/182/3 152/183/3
f 153/184/3 149/185/3 147/179/3
f 154/186/3 150/187/3 149/188/3
f 154/189/3 149/185/3 153/184/3
f 155/190/3 151/182/3 150/181/3
f 156/191/3 154/186/3 153/192/3
f 157/193/3 150/187/3 154/186/3
f 157/193/3 154/186/3 156/191/3
f 157/194/3 158/195/3 155/190/3
f 157/194/3 155/190/3 150/181/3
f 159/196/3 158/195/3 157/194/3
f 160/197/3 159/198/3 157/193/3
f 161/199/3 158/195/3 159/196/3
f 161/200/3 159/198/3 160/197/3
f 162/201/3 158/195/3 161/199/3
f 163/202/4 164/203/4 165/204/4
f 164/205/4 166/206/4 167/207/4
f 168/208/4 165/204/4 169/209/4
f 165/204/4 164/203/4 169/209/4
f 167/207/4 170/210/4 171/211/4
f 169/209/4 164/203/4 171/212/4
f 164/205/4 167/207/4 171/211/4
f 171/211/4 170/210/4 172/213/4
f 168/208/4 169/209/4 173/214/4
f 169/215/4 171/211/4 174/216/4
f 173/214/4 169/209/4 174/217/4
f 171/212/4 172/218/4 175/219/4
f 174/216/4 171/211/4 175/220/4
f 172/213/4 170/210/4 176/221/4
f 175/219/4 172/218/4 176/222/4
f 176/221/4 170/210/4 177/223/4
f 174/217/4 175/219/4 178/224/4
f 175/220/4 176/221/4 179/225/4
f 178/224/4 175/219/4 179/226/4
f 176/227/4 177/228/4 180/229/4
f 179/225/4 176/221/4 180/230/4
f 180/229/4 177/228/4 181/231/4
f 180/230/4 181/232/4 182/233/4
f 181/231/4 183/234/4 184/235/4
f 182/233/4 181/232/4 184/236/4
f 184/235/4 183/234/4 185/237/4
f 184/236/4 185/238/4 186/239/4
f 185/237/4 187/240/4 188/241/4
f 186/239/4 185/238/4 188/242/4
f 188/241/4 187/240/4 189/243/4
f 188/242/4 189/244/4 190/245/4
f 189/243/4 191/246/4 192/247/4
f 190/245/4 189/244/4 192/248/4
f 192/247/4 191/246/4 193/249/4
f 192/248/4 193/250/4 194/251/4
f 193/249/4 195/252/4 196/253/4
f 194/251/4 193/250/4 196/254/4
f 196/253/4 195/252/4 197/255/4
f 196/254/4 197/256/4 198/257/4
f 197/255/4 199/258/4 200/259/4
f 198/257/4 197/256/4 200/260/4
f 200/259/4 199/258/4 201/261/4
f 200/260/4 201/262/4 202/263/4
f 201/261/4 203/264/4 204/265/4
f 202/263/4 201/262/4 204/266/4
f 204/265/4 203/264/4 205/267/4
f 204/266/4 205/268/4 206/269/4
f 205/267/4 207/270/4 208/271/4
f 206/269/4 205/268/4 208/272/4
f 208/271/4 207/270/4 209/273/4
f 210/274/4 211/275/4 212/276/4
f 208/272/4 209/277/4 213/278/4
f 209/279/4 212/280/4 214/281/4
f 213/278/4 209/277/4 214/282/4
f 212/276/4 211/275/4 215/283/4
f 213/284/4 214/281/4 216/285/4
f 214/281/4 212/280/4 217/286/4
f 216/285/4 214/281/4 217/286/4
f 215/283/4 218/287/4 217/288/4
f 212/276/4 215/283/4 217/288/4
f 217/288/4 218/287/4 219/289/4
f 217/286/4 219/290/4 220/291/4
f 219/289/4 218/287/4 221/292/4
f 220/291/4 219/290/4 221/293/4
f 221/292/4 218/287/4 222/294/4
f 223/295/5 224/296/5 225/297/5
f 226/298/5 224/296/5 223/295/5
f 227/299/5 228/300/5 229/301/5
f 230/302/5 228/300/5 227/299/5
f 231/303/5 232/304/5 233/305/5
f 234/306/5 232/304/5 231/303/5
f 235/307/5 236/308/5 237/309/5
f 238/310/5 236/308/5 235/307/5
f 239/311/5 240/312/5 241/313/5
f 242/314/5 240/312/5 239/311/5
f 243/315/5 244/316/5 245/317/5
f 246/318/5 244/316/5 243/315/5
f 247/319/5 248/320/5 249/321/5
f 250/322/5 248/320/5 247/319/5
f 251/323/5 252/324/5 253/325/5
f 254/326/5 252/324/5 251/323/5
f 255/327/5 256/328/5 257/329/5
f 258/330/5 256/328/5 255/327/5
f 259/331/5 260/332/5 261/333/5
f 262/334/5 260/332/5 259/331/5
f 263/335/5 264/336/5 265/337/5
f 266/338/5 267/339/5 264/340/5
f 266/341/5 264/336/5 263/335/5
f 268/342/5 267/339/5 266/338/5
f 269/343/5 270/344/5 271/345/5
f 272/346/5 270/344/5 269/343/5
f 273/347/5 274/348/5 275/349/5
f 276/350/5 274/348/5 273/347/5
f 277/351/6 278/352/6 279/353/6
f 279/353/6 278/352/6 280/354/6
f 281/355/6 282/356/6 283/357/6
f 282/358/6 284/359/6 285/360/6
f 283/357/6 282/356/6 285/361/6
f 285/360/6 284/359/6 286/362/6
f 287/363/6 288/364/6 289/365/6
f 289/365/6 288/364/6 290/366/6
f 291/367/6 292/368/6 293/369/6
f 293/369/6 292/368/6 294/370/6
f 295/371/6 296/372/6 297/373/6
f 297/373/6 296/372/6 298/374/6
f 299/375/6 300/376/6 301/377/6
f 301/377/6 300/376/6 302/378/6
f 303/379/6 304/380/6 305/381/6
f 305/381/6 304/380/6 306/382/6
f 307/383/6 308/384/6 309/385/6
f 309/385/6 308/384/6 310/386/6
f 311/387/6 312/388/6 313/389/6
f 313/389/6 312/388/6 314/390/6
f 315/391/6 316/392/6 317/393/6
f 317/393/6 316/392/6 318/394/6
f 319/395/6 320/396/6 321/397/6
f 321/397/6 320/396/6 322/398/6
