# Blender v2.77 (sub 0) OBJ File: ''
# www.blender.org
mtllib Dagger_Stone.mtl
o Dagger_Stone
v -0.137500 0.075000 0.012500
v -0.137500 0.000000 -0.012500
v -0.137500 -0.000000 0.012500
v -0.137500 0.075000 -0.012500
v -0.087500 0.100000 0.012500
v -0.087500 0.075000 -0.012500
v -0.087500 0.075000 0.012500
v -0.087500 0.100000 -0.012500
v -0.087500 0.175000 0.012500
v -0.087500 0.125000 -0.012500
v -0.087500 0.125000 0.012500
v -0.087500 0.175000 -0.012500
v -0.062500 0.125000 0.012500
v -0.062500 0.100000 -0.012500
v -0.062500 0.100000 0.012500
v -0.062500 0.125000 -0.012500
v -0.037500 0.175000 0.012500
v -0.037500 0.150000 -0.012500
v -0.037500 0.150000 0.012500
v -0.037500 0.175000 -0.012500
v -0.012500 0.075000 0.012500
v -0.012500 0.050000 -0.012500
v -0.012500 0.050000 0.012500
v -0.012500 0.075000 -0.012500
v -0.012500 0.200000 0.012500
v -0.012500 0.175000 -0.012500
v -0.012500 0.175000 0.012500
v -0.012500 0.200000 -0.012500
v 0.012500 0.225000 0.012500
v 0.012500 0.200000 -0.012500
v 0.012500 0.200000 0.012500
v 0.012500 0.225000 -0.012500
v 0.037500 0.250000 0.012500
v 0.037500 0.225000 -0.012500
v 0.037500 0.225000 0.012500
v 0.037500 0.250000 -0.012500
v 0.062500 0.275000 0.012500
v 0.062500 0.250000 -0.012500
v 0.062500 0.250000 0.012500
v 0.062500 0.275000 -0.012500
v -0.062500 -0.000000 0.012500
v -0.062500 0.000000 -0.012500
v -0.062500 0.050000 0.012500
v -0.062500 0.050000 -0.012500
v -0.062500 0.150000 0.012500
v -0.062500 0.150000 -0.012500
v -0.062500 0.175000 0.012500
v -0.062500 0.175000 -0.012500
v -0.037500 0.050000 0.012500
v -0.037500 0.050000 -0.012500
v -0.037500 0.075000 0.012500
v -0.037500 0.075000 -0.012500
v 0.012500 0.075000 0.012500
v 0.012500 0.075000 -0.012500
v 0.012500 0.100000 0.012500
v 0.012500 0.100000 -0.012500
v 0.037500 0.050000 0.012500
v 0.037500 0.050000 -0.012500
v 0.037500 0.075000 0.012500
v 0.037500 0.075000 -0.012500
v 0.037500 0.100000 0.012500
v 0.037500 0.100000 -0.012500
v 0.037500 0.125000 0.012500
v 0.037500 0.125000 -0.012500
v 0.062500 0.125000 0.012500
v 0.062500 0.125000 -0.012500
v 0.062500 0.150000 0.012500
v 0.062500 0.150000 -0.012500
v 0.087500 0.150000 0.012500
v 0.087500 0.150000 -0.012500
v 0.087500 0.175000 0.012500
v 0.087500 0.175000 -0.012500
v 0.112500 0.175000 0.012500
v 0.112500 0.175000 -0.012500
v 0.112500 0.200000 0.012500
v 0.112500 0.200000 -0.012500
v 0.137500 0.200000 0.012500
v 0.137500 0.200000 -0.012500
v 0.137500 0.275000 0.012500
v 0.137500 0.275000 -0.012500
v -0.112500 0.025000 0.012500
v -0.137500 0.075000 0.012500
v -0.137500 -0.000000 0.012500
v -0.112500 0.050000 0.012500
v -0.087500 0.025000 0.012500
v -0.087500 0.050000 0.012500
v -0.087500 0.075000 0.012500
v -0.062500 -0.000000 0.012500
v -0.062500 0.050000 0.012500
v -0.062500 0.075000 0.012500
v -0.087500 0.100000 0.012500
v -0.062500 0.100000 0.012500
v -0.062500 0.125000 0.012500
v -0.087500 0.175000 0.012500
v -0.087500 0.125000 0.012500
v -0.062500 0.150000 0.012500
v -0.062500 0.175000 0.012500
v -0.037500 0.050000 0.012500
v -0.037500 0.075000 0.012500
v -0.037500 0.100000 0.012500
v -0.037500 0.125000 0.012500
v -0.037500 0.150000 0.012500
v -0.012500 0.075000 0.012500
v -0.012500 0.100000 0.012500
v -0.012500 0.125000 0.012500
v -0.012500 0.150000 0.012500
v -0.037500 0.175000 0.012500
v -0.012500 0.175000 0.012500
v 0.012500 0.075000 0.012500
v -0.012500 0.050000 0.012500
v 0.012500 0.100000 0.012500
v 0.012500 0.125000 0.012500
v 0.012500 0.150000 0.012500
v 0.012500 0.175000 0.012500
v -0.012500 0.200000 0.012500
v 0.012500 0.200000 0.012500
v 0.037500 0.050000 0.012500
v 0.037500 0.075000 0.012500
v 0.037500 0.100000 0.012500
v 0.037500 0.125000 0.012500
v 0.037500 0.150000 0.012500
v 0.037500 0.175000 0.012500
v 0.037500 0.200000 0.012500
v 0.012500 0.225000 0.012500
v 0.037500 0.225000 0.012500
v 0.062500 0.125000 0.012500
v 0.062500 0.150000 0.012500
v 0.062500 0.175000 0.012500
v 0.062500 0.200000 0.012500
v 0.062500 0.225000 0.012500
v 0.037500 0.250000 0.012500
v 0.062500 0.250000 0.012500
v 0.087500 0.150000 0.012500
v 0.087500 0.175000 0.012500
v 0.087500 0.200000 0.012500
v 0.087500 0.225000 0.012500
v 0.087500 0.250000 0.012500
v 0.062500 0.275000 0.012500
v 0.112500 0.175000 0.012500
v 0.112500 0.200000 0.012500
v 0.112500 0.225000 0.012500
v 0.112500 0.250000 0.012500
v 0.137500 0.200000 0.012500
v 0.137500 0.275000 0.012500
v -0.137500 0.000000 -0.012500
v -0.137500 0.075000 -0.012500
v -0.112500 0.025000 -0.012500
v -0.112500 0.050000 -0.012500
v -0.087500 0.025000 -0.012500
v -0.087500 0.050000 -0.012500
v -0.087500 0.075000 -0.012500
v -0.062500 0.000000 -0.012500
v -0.062500 0.050000 -0.012500
v -0.087500 0.100000 -0.012500
v -0.062500 0.075000 -0.012500
v -0.062500 0.100000 -0.012500
v -0.087500 0.125000 -0.012500
v -0.087500 0.175000 -0.012500
v -0.062500 0.125000 -0.012500
v -0.062500 0.150000 -0.012500
v -0.062500 0.175000 -0.012500
v -0.037500 0.050000 -0.012500
v -0.037500 0.075000 -0.012500
v -0.037500 0.100000 -0.012500
v -0.037500 0.125000 -0.012500
v -0.037500 0.150000 -0.012500
v -0.012500 0.075000 -0.012500
v -0.012500 0.100000 -0.012500
v -0.012500 0.125000 -0.012500
v -0.037500 0.175000 -0.012500
v -0.012500 0.150000 -0.012500
v -0.012500 0.175000 -0.012500
v -0.012500 0.050000 -0.012500
v 0.012500 0.075000 -0.012500
v 0.012500 0.100000 -0.012500
v 0.012500 0.125000 -0.012500
v 0.012500 0.150000 -0.012500
v -0.012500 0.200000 -0.012500
v 0.012500 0.175000 -0.012500
v 0.012500 0.200000 -0.012500
v 0.037500 0.050000 -0.012500
v 0.037500 0.075000 -0.012500
v 0.037500 0.100000 -0.012500
v 0.037500 0.125000 -0.012500
v 0.037500 0.150000 -0.012500
v 0.037500 0.175000 -0.012500
v 0.012500 0.225000 -0.012500
v 0.037500 0.200000 -0.012500
v 0.037500 0.225000 -0.012500
v 0.062500 0.125000 -0.012500
v 0.062500 0.150000 -0.012500
v 0.062500 0.175000 -0.012500
v 0.062500 0.200000 -0.012500
v 0.037500 0.250000 -0.012500
v 0.062500 0.225000 -0.012500
v 0.062500 0.250000 -0.012500
v 0.087500 0.150000 -0.012500
v 0.087500 0.175000 -0.012500
v 0.087500 0.200000 -0.012500
v 0.087500 0.225000 -0.012500
v 0.062500 0.275000 -0.012500
v 0.087500 0.250000 -0.012500
v 0.112500 0.175000 -0.012500
v 0.112500 0.200000 -0.012500
v 0.112500 0.225000 -0.012500
v 0.112500 0.250000 -0.012500
v 0.137500 0.200000 -0.012500
v 0.137500 0.275000 -0.012500
v -0.137500 0.000000 -0.012500
v -0.062500 -0.000000 0.012500
v -0.137500 -0.000000 0.012500
v -0.062500 0.000000 -0.012500
v -0.062500 0.050000 -0.012500
v -0.037500 0.050000 0.012500
v -0.062500 0.050000 0.012500
v -0.037500 0.050000 -0.012500
v -0.012500 0.050000 -0.012500
v 0.037500 0.050000 0.012500
v -0.012500 0.050000 0.012500
v 0.037500 0.050000 -0.012500
v -0.037500 0.075000 -0.012500
v -0.012500 0.075000 0.012500
v -0.037500 0.075000 0.012500
v -0.012500 0.075000 -0.012500
v 0.012500 0.100000 -0.012500
v 0.037500 0.100000 0.012500
v 0.012500 0.100000 0.012500
v 0.037500 0.100000 -0.012500
v -0.087500 0.125000 -0.012500
v -0.062500 0.125000 0.012500
v -0.087500 0.125000 0.012500
v -0.062500 0.125000 -0.012500
v 0.037500 0.125000 -0.012500
v 0.062500 0.125000 0.012500
v 0.037500 0.125000 0.012500
v 0.062500 0.125000 -0.012500
v 0.062500 0.150000 -0.012500
v 0.087500 0.150000 0.012500
v 0.062500 0.150000 0.012500
v 0.087500 0.150000 -0.012500
v 0.087500 0.175000 -0.012500
v 0.112500 0.175000 0.012500
v 0.087500 0.175000 0.012500
v 0.112500 0.175000 -0.012500
v 0.112500 0.200000 -0.012500
v 0.137500 0.200000 0.012500
v 0.112500 0.200000 0.012500
v 0.137500 0.200000 -0.012500
v -0.137500 0.075000 0.012500
v -0.087500 0.075000 0.012500
v -0.137500 0.075000 -0.012500
v -0.087500 0.075000 -0.012500
v 0.012500 0.075000 0.012500
v 0.037500 0.075000 0.012500
v 0.012500 0.075000 -0.012500
v 0.037500 0.075000 -0.012500
v -0.087500 0.100000 0.012500
v -0.062500 0.100000 0.012500
v -0.087500 0.100000 -0.012500
v -0.062500 0.100000 -0.012500
v -0.062500 0.150000 0.012500
v -0.037500 0.150000 0.012500
v -0.062500 0.150000 -0.012500
v -0.037500 0.150000 -0.012500
v -0.087500 0.175000 0.012500
v -0.062500 0.175000 0.012500
v -0.087500 0.175000 -0.012500
v -0.062500 0.175000 -0.012500
v -0.037500 0.175000 0.012500
v -0.012500 0.175000 0.012500
v -0.037500 0.175000 -0.012500
v -0.012500 0.175000 -0.012500
v -0.012500 0.200000 0.012500
v 0.012500 0.200000 0.012500
v -0.012500 0.200000 -0.012500
v 0.012500 0.200000 -0.012500
v 0.012500 0.225000 0.012500
v 0.037500 0.225000 0.012500
v 0.012500 0.225000 -0.012500
v 0.037500 0.225000 -0.012500
v 0.037500 0.250000 0.012500
v 0.062500 0.250000 0.012500
v 0.037500 0.250000 -0.012500
v 0.062500 0.250000 -0.012500
v 0.062500 0.275000 0.012500
v 0.137500 0.275000 0.012500
v 0.062500 0.275000 -0.012500
v 0.137500 0.275000 -0.012500
vt 0.9863 0.5000
vt 0.9863 0.5000
vt 0.9863 0.5000
vt 0.9863 0.5000
vt 0.5371 0.5000
vt 0.5371 0.5000
vt 0.5371 0.5000
vt 0.5371 0.5000
vt 0.9785 0.5000
vt 0.9785 0.5000
vt 0.9785 0.5000
vt 0.9785 0.5000
vt 0.9863 0.5000
vt 0.9863 0.5000
vt 0.9863 0.5000
vt 0.9863 0.5000
vt 0.9863 0.5000
vt 0.9863 0.5000
vt 0.9863 0.5000
vt 0.9863 0.5000
vt 0.9785 0.5000
vt 0.9785 0.5000
vt 0.9785 0.5000
vt 0.9785 0.5000
vt 0.9863 0.5000
vt 0.9863 0.5000
vt 0.9863 0.5000
vt 0.9863 0.5000
vt 0.9863 0.5000
vt 0.9863 0.5000
vt 0.9863 0.5000
vt 0.9863 0.5000
vt 0.9863 0.5000
vt 0.9863 0.5000
vt 0.9863 0.5000
vt 0.9863 0.5000
vt 0.9863 0.5000
vt 0.9863 0.5000
vt 0.9863 0.5000
vt 0.9863 0.5000
vt 0.9863 0.5000
vt 0.9863 0.5000
vt 0.9863 0.5000
vt 0.9863 0.5000
vt 0.9785 0.5000
vt 0.9785 0.5000
vt 0.9785 0.5000
vt 0.9785 0.5000
vt 0.5371 0.5000
vt 0.5371 0.5000
vt 0.5371 0.5000
vt 0.5371 0.5000
vt 0.9785 0.5000
vt 0.9785 0.5000
vt 0.9785 0.5000
vt 0.9785 0.5000
vt 0.9785 0.5000
vt 0.9785 0.5000
vt 0.9785 0.5000
vt 0.9785 0.5000
vt 0.9863 0.5000
vt 0.9863 0.5000
vt 0.9863 0.5000
vt 0.9863 0.5000
vt 0.9863 0.5000
vt 0.9863 0.5000
vt 0.9863 0.5000
vt 0.9863 0.5000
vt 0.9863 0.5000
vt 0.9863 0.5000
vt 0.9863 0.5000
vt 0.9863 0.5000
vt 0.9863 0.5000
vt 0.9863 0.5000
vt 0.9863 0.5000
vt 0.9863 0.5000
vt 0.9863 0.5000
vt 0.9863 0.5000
vt 0.9863 0.5000
vt 0.9863 0.5000
vt 0.9863 0.5000
vt 0.9863 0.5000
vt 0.9863 0.5000
vt 0.9863 0.5000
vt 0.9863 0.5000
vt 0.9785 0.5000
vt 0.9785 0.5000
vt 0.9785 0.5000
vt 0.9863 0.5000
vt 0.9785 0.5000
vt 0.9863 0.5000
vt 0.9863 0.5000
vt 0.3691 0.5000
vt 0.3691 0.5000
vt 0.3691 0.5000
vt 0.9863 0.5000
vt 0.5371 0.5000
vt 0.5371 0.5000
vt 0.5371 0.5000
vt 0.3691 0.5000
vt 0.5371 0.5000
vt 0.9785 0.5000
vt 0.9785 0.5000
vt 0.9785 0.5000
vt 0.9785 0.5000
vt 0.9785 0.5000
vt 0.5371 0.5000
vt 0.5371 0.5000
vt 0.3691 0.5000
vt 0.3691 0.5000
vt 0.5371 0.5000
vt 0.9863 0.5000
vt 0.9863 0.5000
vt 0.9863 0.5000
vt 0.3691 0.5000
vt 0.9785 0.5000
vt 0.9863 0.5000
vt 0.9785 0.5000
vt 0.9863 0.5000
vt 0.9863 0.5000
vt 0.9785 0.5000
vt 0.9785 0.5000
vt 0.9863 0.5000
vt 0.9785 0.5000
vt 0.9863 0.5000
vt 0.9863 0.5000
vt 0.9863 0.5000
vt 0.9785 0.5000
vt 0.9863 0.5000
vt 0.9785 0.5000
vt 0.9785 0.5000
vt 0.9785 0.5000
vt 0.9785 0.5000
vt 0.9668 0.5000
vt 0.9668 0.5000
vt 0.9668 0.5000
vt 0.9785 0.5000
vt 0.9785 0.5000
vt 0.9785 0.5000
vt 0.9668 0.5000
vt 0.9863 0.5000
vt 0.9863 0.5000
vt 0.9785 0.5000
vt 0.9863 0.5000
vt 0.9785 0.5000
vt 0.9785 0.5000
vt 0.9863 0.5000
vt 0.9863 0.5000
vt 0.9863 0.5000
vt 0.9785 0.5000
vt 0.9863 0.5000
vt 0.9668 0.5000
vt 0.9668 0.5000
vt 0.9785 0.5000
vt 0.9785 0.5000
vt 0.9785 0.5000
vt 0.9668 0.5000
vt 0.9863 0.5000
vt 0.9863 0.5000
vt 0.9785 0.5000
vt 0.9863 0.5000
vt 0.9863 0.5000
vt 0.9863 0.5000
vt 0.9785 0.5000
vt 0.9863 0.5000
vt 0.9668 0.5000
vt 0.9668 0.5000
vt 0.9785 0.5000
vt 0.9785 0.5000
vt 0.9785 0.5000
vt 0.9668 0.5000
vt 0.9863 0.5000
vt 0.9863 0.5000
vt 0.9785 0.5000
vt 0.9863 0.5000
vt 0.9863 0.5000
vt 0.9863 0.5000
vt 0.9785 0.5000
vt 0.9863 0.5000
vt 0.9668 0.5000
vt 0.9668 0.5000
vt 0.9785 0.5000
vt 0.9785 0.5000
vt 0.9785 0.5000
vt 0.9668 0.5000
vt 0.9863 0.5000
vt 0.9863 0.5000
vt 0.9785 0.5000
vt 0.9863 0.5000
vt 0.9863 0.5000
vt 0.9785 0.5000
vt 0.9863 0.5000
vt 0.9668 0.5000
vt 0.9668 0.5000
vt 0.9785 0.5000
vt 0.9863 0.5000
vt 0.9668 0.5000
vt 0.9863 0.5000
vt 0.9863 0.5000
vt 0.9863 0.5000
vt 0.9863 0.5000
vt 0.9863 0.5000
vt 0.9863 0.5000
vt 0.9863 0.5000
vt 0.9863 0.5000
vt 0.9785 0.5000
vt 0.9785 0.5000
vt 0.9785 0.5000
vt 0.9863 0.5000
vt 0.9785 0.5000
vt 0.9863 0.5000
vt 0.9863 0.5000
vt 0.3691 0.5000
vt 0.3691 0.5000
vt 0.3691 0.5000
vt 0.9863 0.5000
vt 0.5371 0.5000
vt 0.5371 0.5000
vt 0.5371 0.5000
vt 0.3691 0.5000
vt 0.5371 0.5000
vt 0.9785 0.5000
vt 0.9785 0.5000
vt 0.9785 0.5000
vt 0.9785 0.5000
vt 0.9785 0.5000
vt 0.5371 0.5000
vt 0.5371 0.5000
vt 0.3691 0.5000
vt 0.3691 0.5000
vt 0.5371 0.5000
vt 0.9863 0.5000
vt 0.9863 0.5000
vt 0.9863 0.5000
vt 0.3691 0.5000
vt 0.9785 0.5000
vt 0.9863 0.5000
vt 0.9785 0.5000
vt 0.9863 0.5000
vt 0.9863 0.5000
vt 0.9785 0.5000
vt 0.9785 0.5000
vt 0.9863 0.5000
vt 0.9785 0.5000
vt 0.9863 0.5000
vt 0.9863 0.5000
vt 0.9863 0.5000
vt 0.9785 0.5000
vt 0.9863 0.5000
vt 0.9785 0.5000
vt 0.9785 0.5000
vt 0.9785 0.5000
vt 0.9785 0.5000
vt 0.9668 0.5000
vt 0.9668 0.5000
vt 0.9668 0.5000
vt 0.9785 0.5000
vt 0.9785 0.5000
vt 0.9785 0.5000
vt 0.9668 0.5000
vt 0.9863 0.5000
vt 0.9863 0.5000
vt 0.9785 0.5000
vt 0.9863 0.5000
vt 0.9785 0.5000
vt 0.9785 0.5000
vt 0.9863 0.5000
vt 0.9863 0.5000
vt 0.9863 0.5000
vt 0.9785 0.5000
vt 0.9863 0.5000
vt 0.9668 0.5000
vt 0.9668 0.5000
vt 0.9785 0.5000
vt 0.9785 0.5000
vt 0.9785 0.5000
vt 0.9668 0.5000
vt 0.9863 0.5000
vt 0.9863 0.5000
vt 0.9785 0.5000
vt 0.9863 0.5000
vt 0.9863 0.5000
vt 0.9863 0.5000
vt 0.9785 0.5000
vt 0.9863 0.5000
vt 0.9668 0.5000
vt 0.9668 0.5000
vt 0.9785 0.5000
vt 0.9785 0.5000
vt 0.9785 0.5000
vt 0.9668 0.5000
vt 0.9863 0.5000
vt 0.9863 0.5000
vt 0.9785 0.5000
vt 0.9863 0.5000
vt 0.9863 0.5000
vt 0.9863 0.5000
vt 0.9785 0.5000
vt 0.9863 0.5000
vt 0.9668 0.5000
vt 0.9668 0.5000
vt 0.9785 0.5000
vt 0.9785 0.5000
vt 0.9785 0.5000
vt 0.9668 0.5000
vt 0.9863 0.5000
vt 0.9863 0.5000
vt 0.9785 0.5000
vt 0.9863 0.5000
vt 0.9863 0.5000
vt 0.9785 0.5000
vt 0.9863 0.5000
vt 0.9668 0.5000
vt 0.9668 0.5000
vt 0.9785 0.5000
vt 0.9863 0.5000
vt 0.9668 0.5000
vt 0.9863 0.5000
vt 0.9863 0.5000
vt 0.9863 0.5000
vt 0.9863 0.5000
vt 0.9863 0.5000
vt 0.9863 0.5000
vt 0.9863 0.5000
vt 0.5371 0.5000
vt 0.5371 0.5000
vt 0.5371 0.5000
vt 0.5371 0.5000
vt 0.9785 0.5000
vt 0.9785 0.5000
vt 0.9785 0.5000
vt 0.9785 0.5000
vt 0.9863 0.5000
vt 0.9863 0.5000
vt 0.9863 0.5000
vt 0.9863 0.5000
vt 0.9863 0.5000
vt 0.9863 0.5000
vt 0.9863 0.5000
vt 0.9863 0.5000
vt 0.9785 0.5000
vt 0.9785 0.5000
vt 0.9785 0.5000
vt 0.9785 0.5000
vt 0.9863 0.5000
vt 0.9863 0.5000
vt 0.9863 0.5000
vt 0.9863 0.5000
vt 0.9863 0.5000
vt 0.9863 0.5000
vt 0.9863 0.5000
vt 0.9863 0.5000
vt 0.9863 0.5000
vt 0.9863 0.5000
vt 0.9863 0.5000
vt 0.9863 0.5000
vt 0.9863 0.5000
vt 0.9863 0.5000
vt 0.9863 0.5000
vt 0.9863 0.5000
vt 0.9863 0.5000
vt 0.9863 0.5000
vt 0.9863 0.5000
vt 0.9863 0.5000
vt 0.9785 0.5000
vt 0.9785 0.5000
vt 0.9785 0.5000
vt 0.9785 0.5000
vt 0.5371 0.5000
vt 0.5371 0.5000
vt 0.5371 0.5000
vt 0.5371 0.5000
vt 0.9785 0.5000
vt 0.9785 0.5000
vt 0.9785 0.5000
vt 0.9785 0.5000
vt 0.9785 0.5000
vt 0.9785 0.5000
vt 0.9785 0.5000
vt 0.9785 0.5000
vt 0.9863 0.5000
vt 0.9863 0.5000
vt 0.9863 0.5000
vt 0.9863 0.5000
vt 0.9863 0.5000
vt 0.9863 0.5000
vt 0.9863 0.5000
vt 0.9863 0.5000
vt 0.9863 0.5000
vt 0.9863 0.5000
vt 0.9863 0.5000
vt 0.9863 0.5000
vt 0.9863 0.5000
vt 0.9863 0.5000
vt 0.9863 0.5000
vt 0.9863 0.5000
vt 0.9863 0.5000
vt 0.9863 0.5000
vt 0.9863 0.5000
vt 0.9863 0.5000
vn -1.0000 0.0000 0.0000
vn 1.0000 0.0000 0.0000
vn -0.0000 -0.0000 1.0000
vn 0.0000 0.0000 -1.0000
vn 0.0000 -1.0000 -0.0000
vn 0.0000 1.0000 0.0000
usemtl palette.027
s 1
f 1/1/1 2/2/1 3/3/1
f 4/4/1 2/2/1 1/1/1
f 5/5/1 6/6/1 7/7/1
f 8/8/1 6/6/1 5/5/1
f 9/9/1 10/10/1 11/11/1
f 12/12/1 10/10/1 9/9/1
f 13/13/1 14/14/1 15/15/1
f 16/16/1 14/14/1 13/13/1
f 17/17/1 18/18/1 19/19/1
f 20/20/1 18/18/1 17/17/1
f 21/21/1 22/22/1 23/23/1
f 24/24/1 22/22/1 21/21/1
f 25/25/1 26/26/1 27/27/1
f 28/28/1 26/26/1 25/25/1
f 29/29/1 30/30/1 31/31/1
f 32/32/1 30/30/1 29/29/1
f 33/33/1 34/34/1 35/35/1
f 36/36/1 34/34/1 33/33/1
f 37/37/1 38/38/1 39/39/1
f 40/40/1 38/38/1 37/37/1
f 41/41/2 42/42/2 43/43/2
f 43/43/2 42/42/2 44/44/2
f 45/45/2 46/46/2 47/47/2
f 47/47/2 46/46/2 48/48/2
f 49/49/2 50/50/2 51/51/2
f 51/51/2 50/50/2 52/52/2
f 53/53/2 54/54/2 55/55/2
f 55/55/2 54/54/2 56/56/2
f 57/57/2 58/58/2 59/59/2
f 59/59/2 58/58/2 60/60/2
f 61/61/2 62/62/2 63/63/2
f 63/63/2 62/62/2 64/64/2
f 65/65/2 66/66/2 67/67/2
f 67/67/2 66/66/2 68/68/2
f 69/69/2 70/70/2 71/71/2
f 71/71/2 70/70/2 72/72/2
f 73/73/2 74/74/2 75/75/2
f 75/75/2 74/74/2 76/76/2
f 77/77/2 78/78/2 79/79/2
f 79/79/2 78/78/2 80/80/2
f 81/81/3 82/82/3 83/83/3
f 84/84/3 82/82/3 81/81/3
f 85/85/3 81/81/3 83/83/3
f 85/86/3 84/87/3 81/88/3
f 86/89/3 82/82/3 84/84/3
f 86/90/3 84/87/3 85/86/3
f 87/91/3 82/82/3 86/89/3
f 88/92/3 85/85/3 83/83/3
f 88/92/3 86/89/3 85/85/3
f 89/93/3 87/94/3 86/95/3
f 89/96/3 86/89/3 88/92/3
f 90/97/3 91/98/3 87/99/3
f 90/100/3 87/94/3 89/93/3
f 92/101/3 91/98/3 90/97/3
f 93/102/3 94/103/3 95/104/3
f 96/105/3 94/103/3 93/102/3
f 97/106/3 94/103/3 96/105/3
f 98/107/3 90/97/3 89/108/3
f 99/109/3 92/110/3 90/100/3
f 99/111/3 90/97/3 98/107/3
f 100/112/3 93/113/3 92/114/3
f 100/115/3 92/110/3 99/109/3
f 101/116/3 96/105/3 93/102/3
f 101/117/3 93/113/3 100/112/3
f 102/118/3 96/105/3 101/116/3
f 103/119/3 100/112/3 99/120/3
f 104/121/3 102/118/3 101/116/3
f 104/121/3 101/116/3 100/122/3
f 104/123/3 100/112/3 103/119/3
f 105/124/3 102/118/3 104/121/3
f 106/125/3 107/126/3 102/127/3
f 106/128/3 102/118/3 105/124/3
f 108/129/3 107/126/3 106/125/3
f 109/130/3 103/131/3 110/132/3
f 109/130/3 105/124/3 104/121/3
f 109/130/3 104/121/3 103/131/3
f 111/133/3 105/124/3 109/130/3
f 112/134/3 106/135/3 105/136/3
f 112/137/3 105/124/3 111/133/3
f 113/138/3 108/139/3 106/128/3
f 113/140/3 106/135/3 112/134/3
f 114/141/3 115/142/3 108/129/3
f 114/143/3 108/139/3 113/138/3
f 116/144/3 115/142/3 114/141/3
f 117/145/3 109/130/3 110/132/3
f 118/146/3 109/130/3 117/145/3
f 119/147/3 112/148/3 111/149/3
f 120/150/3 113/138/3 112/137/3
f 120/151/3 112/148/3 119/147/3
f 121/152/3 114/153/3 113/140/3
f 121/154/3 113/138/3 120/150/3
f 122/155/3 116/156/3 114/143/3
f 122/157/3 114/153/3 121/152/3
f 123/158/3 124/159/3 116/144/3
f 123/160/3 116/156/3 122/155/3
f 125/161/3 124/159/3 123/158/3
f 126/162/3 121/163/3 120/151/3
f 127/164/3 122/155/3 121/154/3
f 127/165/3 121/163/3 126/162/3
f 128/166/3 123/167/3 122/157/3
f 128/168/3 122/155/3 127/164/3
f 129/169/3 125/170/3 123/160/3
f 129/171/3 123/167/3 128/166/3
f 130/172/3 131/173/3 125/161/3
f 130/174/3 125/170/3 129/169/3
f 132/175/3 131/173/3 130/172/3
f 133/176/3 128/177/3 127/165/3
f 134/178/3 129/169/3 128/168/3
f 134/179/3 128/177/3 133/176/3
f 135/180/3 130/181/3 129/171/3
f 135/182/3 129/169/3 134/178/3
f 136/183/3 132/184/3 130/174/3
f 136/185/3 130/181/3 135/180/3
f 137/186/3 138/187/3 132/175/3
f 137/188/3 132/184/3 136/183/3
f 139/189/3 135/190/3 134/179/3
f 140/191/3 136/183/3 135/182/3
f 140/192/3 135/190/3 139/189/3
f 141/193/3 137/194/3 136/185/3
f 141/195/3 136/183/3 140/191/3
f 142/196/3 138/187/3 137/186/3
f 142/197/3 137/194/3 141/193/3
f 143/198/3 141/199/3 140/192/3
f 143/198/3 142/196/3 141/199/3
f 144/200/3 138/187/3 142/196/3
f 144/200/3 142/196/3 143/198/3
f 145/201/4 146/202/4 147/203/4
f 147/203/4 146/202/4 148/204/4
f 145/201/4 147/203/4 149/205/4
f 147/206/4 148/207/4 149/208/4
f 148/204/4 146/202/4 150/209/4
f 149/208/4 148/207/4 150/210/4
f 150/209/4 146/202/4 151/211/4
f 145/201/4 149/205/4 152/212/4
f 149/205/4 150/209/4 152/212/4
f 150/213/4 151/214/4 153/215/4
f 152/212/4 150/209/4 153/216/4
f 151/217/4 154/218/4 155/219/4
f 153/215/4 151/214/4 155/220/4
f 155/219/4 154/218/4 156/221/4
f 157/222/4 158/223/4 159/224/4
f 159/224/4 158/223/4 160/225/4
f 160/225/4 158/223/4 161/226/4
f 153/227/4 155/219/4 162/228/4
f 155/220/4 156/229/4 163/230/4
f 162/228/4 155/219/4 163/231/4
f 156/232/4 159/233/4 164/234/4
f 163/230/4 156/229/4 164/235/4
f 159/224/4 160/225/4 165/236/4
f 164/234/4 159/233/4 165/237/4
f 165/236/4 160/225/4 166/238/4
f 163/239/4 164/234/4 167/240/4
f 165/236/4 166/238/4 168/241/4
f 164/242/4 165/236/4 168/241/4
f 167/240/4 164/234/4 168/243/4
f 168/241/4 166/238/4 169/244/4
f 166/245/4 170/246/4 171/247/4
f 169/244/4 166/238/4 171/248/4
f 171/247/4 170/246/4 172/249/4
f 173/250/4 167/251/4 174/252/4
f 168/241/4 169/244/4 174/252/4
f 167/251/4 168/241/4 174/252/4
f 174/252/4 169/244/4 175/253/4
f 169/254/4 171/255/4 176/256/4
f 175/253/4 169/244/4 176/257/4
f 171/248/4 172/258/4 177/259/4
f 176/256/4 171/255/4 177/260/4
f 172/249/4 178/261/4 179/262/4
f 177/259/4 172/258/4 179/263/4
f 179/262/4 178/261/4 180/264/4
f 173/250/4 174/252/4 181/265/4
f 181/265/4 174/252/4 182/266/4
f 175/267/4 176/268/4 183/269/4
f 176/257/4 177/259/4 184/270/4
f 183/269/4 176/268/4 184/271/4
f 177/260/4 179/272/4 185/273/4
f 184/270/4 177/259/4 185/274/4
f 179/263/4 180/275/4 186/276/4
f 185/273/4 179/272/4 186/277/4
f 180/264/4 187/278/4 188/279/4
f 186/276/4 180/275/4 188/280/4
f 188/279/4 187/278/4 189/281/4
f 184/271/4 185/282/4 190/283/4
f 185/274/4 186/276/4 191/284/4
f 190/283/4 185/282/4 191/285/4
f 186/277/4 188/286/4 192/287/4
f 191/284/4 186/276/4 192/288/4
f 188/280/4 189/289/4 193/290/4
f 192/287/4 188/286/4 193/291/4
f 189/281/4 194/292/4 195/293/4
f 193/290/4 189/289/4 195/294/4
f 195/293/4 194/292/4 196/295/4
f 191/285/4 192/296/4 197/297/4
f 192/288/4 193/290/4 198/298/4
f 197/297/4 192/296/4 198/299/4
f 193/291/4 195/300/4 199/301/4
f 198/298/4 193/290/4 199/302/4
f 195/294/4 196/303/4 200/304/4
f 199/301/4 195/300/4 200/305/4
f 196/295/4 201/306/4 202/307/4
f 200/304/4 196/303/4 202/308/4
f 198/299/4 199/309/4 203/310/4
f 199/302/4 200/304/4 204/311/4
f 203/310/4 199/309/4 204/312/4
f 200/305/4 202/313/4 205/314/4
f 204/311/4 200/304/4 205/315/4
f 202/307/4 201/306/4 206/316/4
f 205/314/4 202/313/4 206/317/4
f 204/312/4 205/318/4 207/319/4
f 205/318/4 206/316/4 207/319/4
f 206/316/4 201/306/4 208/320/4
f 207/319/4 206/316/4 208/320/4
f 209/321/5 210/322/5 211/323/5
f 212/324/5 210/322/5 209/321/5
f 213/325/5 214/326/5 215/327/5
f 216/328/5 214/326/5 213/325/5
f 217/329/5 218/330/5 219/331/5
f 220/332/5 218/330/5 217/329/5
f 221/333/5 222/334/5 223/335/5
f 224/336/5 222/334/5 221/333/5
f 225/337/5 226/338/5 227/339/5
f 228/340/5 226/338/5 225/337/5
f 229/341/5 230/342/5 231/343/5
f 232/344/5 230/342/5 229/341/5
f 233/345/5 234/346/5 235/347/5
f 236/348/5 234/346/5 233/345/5
f 237/349/5 238/350/5 239/351/5
f 240/352/5 238/350/5 237/349/5
f 241/353/5 242/354/5 243/355/5
f 244/356/5 242/354/5 241/353/5
f 245/357/5 246/358/5 247/359/5
f 248/360/5 246/358/5 245/357/5
f 249/361/6 250/362/6 251/363/6
f 251/363/6 250/362/6 252/364/6
f 253/365/6 254/366/6 255/367/6
f 255/367/6 254/366/6 256/368/6
f 257/369/6 258/370/6 259/371/6
f 259/371/6 258/370/6 260/372/6
f 261/373/6 262/374/6 263/375/6
f 263/375/6 262/374/6 264/376/6
f 265/377/6 266/378/6 267/379/6
f 267/379/6 266/378/6 268/380/6
f 269/381/6 270/382/6 271/383/6
f 271/383/6 270/382/6 272/384/6
f 273/385/6 274/386/6 275/387/6
f 275/387/6 274/386/6 276/388/6
f 277/389/6 278/390/6 279/391/6
f 279/391/6 278/390/6 280/392/6
f 281/393/6 282/394/6 283/395/6
f 283/395/6 282/394/6 284/396/6
f 285/397/6 286/398/6 287/399/6
f 287/399/6 286/398/6 288/400/6
