# Blender v2.77 (sub 0) OBJ File: ''
# www.blender.org
mtllib Arrow_Gold.mtl
o Arrow_Gold
v -0.175000 0.050000 0.012500
v -0.175000 0.025000 -0.012500
v -0.175000 0.025000 0.012500
v -0.175000 0.050000 -0.012500
v -0.175000 0.075000 0.012500
v -0.175000 0.075000 -0.012500
v -0.150000 0.025000 0.012500
v -0.150000 0.000000 -0.012500
v -0.150000 -0.000000 0.012500
v -0.150000 0.025000 -0.012500
v -0.150000 0.100000 0.012500
v -0.150000 0.075000 -0.012500
v -0.150000 0.075000 0.012500
v -0.150000 0.100000 -0.012500
v -0.075000 0.125000 0.012500
v -0.075000 0.100000 -0.012500
v -0.075000 0.100000 0.012500
v -0.075000 0.125000 -0.012500
v -0.050000 0.150000 0.012500
v -0.050000 0.125000 -0.012500
v -0.050000 0.125000 0.012500
v -0.050000 0.150000 -0.012500
v -0.025000 0.175000 0.012500
v -0.025000 0.150000 -0.012500
v -0.025000 0.150000 0.012500
v -0.025000 0.175000 -0.012500
v 0.000000 0.200000 0.012500
v 0.000000 0.175000 -0.012500
v 0.000000 0.175000 0.012500
v 0.000000 0.200000 -0.012500
v 0.025000 0.225000 0.012500
v 0.025000 0.200000 -0.012500
v 0.025000 0.200000 0.012500
v 0.025000 0.225000 -0.012500
v 0.050000 0.250000 0.012500
v 0.050000 0.225000 -0.012500
v 0.050000 0.225000 0.012500
v 0.050000 0.250000 -0.012500
v 0.075000 0.275000 0.012500
v 0.075000 0.250000 -0.012500
v 0.075000 0.250000 0.012500
v 0.075000 0.275000 -0.012500
v 0.075000 0.325000 0.012500
v 0.075000 0.300000 -0.012500
v 0.075000 0.300000 0.012500
v 0.075000 0.325000 -0.012500
v 0.100000 0.300000 0.012500
v 0.100000 0.275000 -0.012500
v 0.100000 0.275000 0.012500
v 0.100000 0.300000 -0.012500
v 0.125000 0.350000 0.012500
v 0.125000 0.325000 -0.012500
v 0.125000 0.325000 0.012500
v 0.125000 0.350000 -0.012500
v -0.100000 -0.000000 0.012500
v -0.100000 0.000000 -0.012500
v -0.100000 0.025000 0.012500
v -0.100000 0.025000 -0.012500
v -0.075000 0.025000 0.012500
v -0.075000 0.025000 -0.012500
v -0.075000 0.050000 0.012500
v -0.075000 0.050000 -0.012500
v -0.075000 0.075000 0.012500
v -0.075000 0.075000 -0.012500
v -0.050000 0.075000 0.012500
v -0.050000 0.075000 -0.012500
v -0.050000 0.100000 0.012500
v -0.050000 0.100000 -0.012500
v -0.025000 0.100000 0.012500
v -0.025000 0.100000 -0.012500
v -0.025000 0.125000 0.012500
v -0.025000 0.125000 -0.012500
v 0.000000 0.125000 0.012500
v 0.000000 0.125000 -0.012500
v 0.000000 0.150000 0.012500
v 0.000000 0.150000 -0.012500
v 0.025000 0.150000 0.012500
v 0.025000 0.150000 -0.012500
v 0.025000 0.175000 0.012500
v 0.025000 0.175000 -0.012500
v 0.050000 0.175000 0.012500
v 0.050000 0.175000 -0.012500
v 0.050000 0.200000 0.012500
v 0.050000 0.200000 -0.012500
v 0.075000 0.200000 0.012500
v 0.075000 0.200000 -0.012500
v 0.075000 0.225000 0.012500
v 0.075000 0.225000 -0.012500
v 0.100000 0.225000 0.012500
v 0.100000 0.225000 -0.012500
v 0.100000 0.250000 0.012500
v 0.100000 0.250000 -0.012500
v 0.150000 0.250000 0.012500
v 0.150000 0.250000 -0.012500
v 0.150000 0.300000 0.012500
v 0.150000 0.300000 -0.012500
v 0.175000 0.300000 0.012500
v 0.175000 0.300000 -0.012500
v 0.175000 0.325000 0.012500
v 0.175000 0.325000 -0.012500
v 0.175000 0.350000 0.012500
v 0.175000 0.350000 -0.012500
v -0.150000 0.025000 0.012500
v -0.175000 0.050000 0.012500
v -0.175000 0.025000 0.012500
v -0.150000 0.075000 0.012500
v -0.175000 0.075000 0.012500
v -0.125000 0.025000 0.012500
v -0.150000 -0.000000 0.012500
v -0.125000 0.050000 0.012500
v -0.150000 0.100000 0.012500
v -0.125000 0.075000 0.012500
v -0.100000 -0.000000 0.012500
v -0.100000 0.025000 0.012500
v -0.100000 0.050000 0.012500
v -0.100000 0.075000 0.012500
v -0.100000 0.100000 0.012500
v -0.075000 0.025000 0.012500
v -0.075000 0.050000 0.012500
v -0.075000 0.075000 0.012500
v -0.075000 0.100000 0.012500
v -0.050000 0.075000 0.012500
v -0.050000 0.100000 0.012500
v -0.075000 0.125000 0.012500
v -0.050000 0.125000 0.012500
v -0.025000 0.100000 0.012500
v -0.025000 0.125000 0.012500
v -0.050000 0.150000 0.012500
v -0.025000 0.150000 0.012500
v 0.000000 0.125000 0.012500
v 0.000000 0.150000 0.012500
v -0.025000 0.175000 0.012500
v 0.000000 0.175000 0.012500
v 0.025000 0.150000 0.012500
v 0.025000 0.175000 0.012500
v 0.000000 0.200000 0.012500
v 0.025000 0.200000 0.012500
v 0.050000 0.175000 0.012500
v 0.050000 0.200000 0.012500
v 0.025000 0.225000 0.012500
v 0.050000 0.225000 0.012500
v 0.075000 0.200000 0.012500
v 0.075000 0.225000 0.012500
v 0.050000 0.250000 0.012500
v 0.075000 0.250000 0.012500
v 0.100000 0.225000 0.012500
v 0.100000 0.250000 0.012500
v 0.075000 0.275000 0.012500
v 0.100000 0.275000 0.012500
v 0.100000 0.300000 0.012500
v 0.075000 0.325000 0.012500
v 0.075000 0.300000 0.012500
v 0.125000 0.250000 0.012500
v 0.125000 0.275000 0.012500
v 0.125000 0.325000 0.012500
v 0.150000 0.250000 0.012500
v 0.150000 0.300000 0.012500
v 0.125000 0.350000 0.012500
v 0.150000 0.325000 0.012500
v 0.175000 0.300000 0.012500
v 0.175000 0.325000 0.012500
v 0.175000 0.350000 0.012500
v -0.175000 0.025000 -0.012500
v -0.175000 0.050000 -0.012500
v -0.150000 0.025000 -0.012500
v -0.175000 0.075000 -0.012500
v -0.150000 0.075000 -0.012500
v -0.150000 0.000000 -0.012500
v -0.125000 0.025000 -0.012500
v -0.150000 0.100000 -0.012500
v -0.125000 0.050000 -0.012500
v -0.125000 0.075000 -0.012500
v -0.100000 0.000000 -0.012500
v -0.100000 0.025000 -0.012500
v -0.100000 0.050000 -0.012500
v -0.100000 0.075000 -0.012500
v -0.100000 0.100000 -0.012500
v -0.075000 0.025000 -0.012500
v -0.075000 0.050000 -0.012500
v -0.075000 0.075000 -0.012500
v -0.075000 0.100000 -0.012500
v -0.050000 0.075000 -0.012500
v -0.075000 0.125000 -0.012500
v -0.050000 0.100000 -0.012500
v -0.050000 0.125000 -0.012500
v -0.025000 0.100000 -0.012500
v -0.050000 0.150000 -0.012500
v -0.025000 0.125000 -0.012500
v -0.025000 0.150000 -0.012500
v 0.000000 0.125000 -0.012500
v -0.025000 0.175000 -0.012500
v 0.000000 0.150000 -0.012500
v 0.000000 0.175000 -0.012500
v 0.025000 0.150000 -0.012500
v 0.000000 0.200000 -0.012500
v 0.025000 0.175000 -0.012500
v 0.025000 0.200000 -0.012500
v 0.050000 0.175000 -0.012500
v 0.025000 0.225000 -0.012500
v 0.050000 0.200000 -0.012500
v 0.050000 0.225000 -0.012500
v 0.075000 0.200000 -0.012500
v 0.050000 0.250000 -0.012500
v 0.075000 0.225000 -0.012500
v 0.075000 0.250000 -0.012500
v 0.100000 0.225000 -0.012500
v 0.075000 0.275000 -0.012500
v 0.100000 0.250000 -0.012500
v 0.100000 0.275000 -0.012500
v 0.075000 0.300000 -0.012500
v 0.075000 0.325000 -0.012500
v 0.100000 0.300000 -0.012500
v 0.125000 0.250000 -0.012500
v 0.125000 0.275000 -0.012500
v 0.125000 0.325000 -0.012500
v 0.150000 0.250000 -0.012500
v 0.150000 0.300000 -0.012500
v 0.125000 0.350000 -0.012500
v 0.150000 0.325000 -0.012500
v 0.175000 0.300000 -0.012500
v 0.175000 0.325000 -0.012500
v 0.175000 0.350000 -0.012500
v -0.150000 0.000000 -0.012500
v -0.100000 -0.000000 0.012500
v -0.150000 -0.000000 0.012500
v -0.100000 0.000000 -0.012500
v -0.175000 0.025000 -0.012500
v -0.150000 0.025000 0.012500
v -0.175000 0.025000 0.012500
v -0.150000 0.025000 -0.012500
v -0.100000 0.025000 -0.012500
v -0.075000 0.025000 0.012500
v -0.100000 0.025000 0.012500
v -0.075000 0.025000 -0.012500
v -0.075000 0.075000 -0.012500
v -0.050000 0.075000 0.012500
v -0.075000 0.075000 0.012500
v -0.050000 0.075000 -0.012500
v -0.050000 0.100000 -0.012500
v -0.025000 0.100000 0.012500
v -0.050000 0.100000 0.012500
v -0.025000 0.100000 -0.012500
v -0.025000 0.125000 -0.012500
v 0.000000 0.125000 0.012500
v -0.025000 0.125000 0.012500
v 0.000000 0.125000 -0.012500
v 0.000000 0.150000 -0.012500
v 0.025000 0.150000 0.012500
v 0.000000 0.150000 0.012500
v 0.025000 0.150000 -0.012500
v 0.025000 0.175000 -0.012500
v 0.050000 0.175000 0.012500
v 0.025000 0.175000 0.012500
v 0.050000 0.175000 -0.012500
v 0.050000 0.200000 -0.012500
v 0.075000 0.200000 0.012500
v 0.050000 0.200000 0.012500
v 0.075000 0.200000 -0.012500
v 0.075000 0.225000 -0.012500
v 0.100000 0.225000 0.012500
v 0.075000 0.225000 0.012500
v 0.100000 0.225000 -0.012500
v 0.100000 0.250000 -0.012500
v 0.125000 0.250000 0.012500
v 0.100000 0.250000 0.012500
v 0.125000 0.250000 -0.012500
v 0.150000 0.250000 0.012500
v 0.150000 0.250000 -0.012500
v 0.075000 0.300000 -0.012500
v 0.100000 0.300000 0.012500
v 0.075000 0.300000 0.012500
v 0.100000 0.300000 -0.012500
v 0.150000 0.300000 -0.012500
v 0.175000 0.300000 0.012500
v 0.150000 0.300000 0.012500
v 0.175000 0.300000 -0.012500
v -0.175000 0.075000 0.012500
v -0.150000 0.075000 0.012500
v -0.175000 0.075000 -0.012500
v -0.150000 0.075000 -0.012500
v -0.150000 0.100000 0.012500
v -0.100000 0.100000 0.012500
v -0.150000 0.100000 -0.012500
v -0.075000 0.100000 0.012500
v -0.100000 0.100000 -0.012500
v -0.075000 0.100000 -0.012500
v -0.075000 0.125000 0.012500
v -0.050000 0.125000 0.012500
v -0.075000 0.125000 -0.012500
v -0.050000 0.125000 -0.012500
v -0.050000 0.150000 0.012500
v -0.025000 0.150000 0.012500
v -0.050000 0.150000 -0.012500
v -0.025000 0.150000 -0.012500
v -0.025000 0.175000 0.012500
v 0.000000 0.175000 0.012500
v -0.025000 0.175000 -0.012500
v 0.000000 0.175000 -0.012500
v 0.000000 0.200000 0.012500
v 0.025000 0.200000 0.012500
v 0.000000 0.200000 -0.012500
v 0.025000 0.200000 -0.012500
v 0.025000 0.225000 0.012500
v 0.050000 0.225000 0.012500
v 0.025000 0.225000 -0.012500
v 0.050000 0.225000 -0.012500
v 0.050000 0.250000 0.012500
v 0.075000 0.250000 0.012500
v 0.050000 0.250000 -0.012500
v 0.075000 0.250000 -0.012500
v 0.075000 0.275000 0.012500
v 0.100000 0.275000 0.012500
v 0.075000 0.275000 -0.012500
v 0.100000 0.275000 -0.012500
v 0.075000 0.325000 0.012500
v 0.125000 0.325000 0.012500
v 0.075000 0.325000 -0.012500
v 0.125000 0.325000 -0.012500
v 0.125000 0.350000 0.012500
v 0.175000 0.350000 0.012500
v 0.125000 0.350000 -0.012500
v 0.175000 0.350000 -0.012500
vt 0.8613 0.5000
vt 0.8613 0.5000
vt 0.8613 0.5000
vt 0.8613 0.5000
vt 0.4199 0.5000
vt 0.4199 0.5000
vt 0.4199 0.5000
vt 0.4199 0.5000
vt 0.8613 0.5000
vt 0.8613 0.5000
vt 0.8613 0.5000
vt 0.8613 0.5000
vt 0.4199 0.5000
vt 0.4199 0.5000
vt 0.4199 0.5000
vt 0.4199 0.5000
vt 0.0371 0.5000
vt 0.0371 0.5000
vt 0.0371 0.5000
vt 0.0371 0.5000
vt 0.0371 0.5000
vt 0.0371 0.5000
vt 0.0371 0.5000
vt 0.0371 0.5000
vt 0.0371 0.5000
vt 0.0371 0.5000
vt 0.0371 0.5000
vt 0.0371 0.5000
vt 0.0371 0.5000
vt 0.0371 0.5000
vt 0.0371 0.5000
vt 0.0371 0.5000
vt 0.0371 0.5000
vt 0.0371 0.5000
vt 0.0371 0.5000
vt 0.0371 0.5000
vt 0.0371 0.5000
vt 0.0371 0.5000
vt 0.0371 0.5000
vt 0.0371 0.5000
vt 0.0371 0.5000
vt 0.0371 0.5000
vt 0.0371 0.5000
vt 0.0371 0.5000
vt 0.0371 0.5000
vt 0.0371 0.5000
vt 0.0371 0.5000
vt 0.0371 0.5000
vt 0.3691 0.5000
vt 0.3691 0.5000
vt 0.3691 0.5000
vt 0.3691 0.5000
vt 0.0371 0.5000
vt 0.0371 0.5000
vt 0.0371 0.5000
vt 0.0371 0.5000
vt 0.8613 0.5000
vt 0.8613 0.5000
vt 0.8613 0.5000
vt 0.8613 0.5000
vt 0.8613 0.5000
vt 0.8613 0.5000
vt 0.8613 0.5000
vt 0.8613 0.5000
vt 0.4199 0.5000
vt 0.4199 0.5000
vt 0.4199 0.5000
vt 0.4199 0.5000
vt 0.2012 0.5000
vt 0.2012 0.5000
vt 0.2012 0.5000
vt 0.2012 0.5000
vt 0.2012 0.5000
vt 0.2012 0.5000
vt 0.2012 0.5000
vt 0.2012 0.5000
vt 0.2012 0.5000
vt 0.2012 0.5000
vt 0.2012 0.5000
vt 0.2012 0.5000
vt 0.2012 0.5000
vt 0.2012 0.5000
vt 0.2012 0.5000
vt 0.2012 0.5000
vt 0.2012 0.5000
vt 0.2012 0.5000
vt 0.2012 0.5000
vt 0.2012 0.5000
vt 0.2012 0.5000
vt 0.2012 0.5000
vt 0.2012 0.5000
vt 0.2012 0.5000
vt 0.2012 0.5000
vt 0.2012 0.5000
vt 0.2012 0.5000
vt 0.2012 0.5000
vt 0.3691 0.5000
vt 0.3691 0.5000
vt 0.3691 0.5000
vt 0.3691 0.5000
vt 0.3691 0.5000
vt 0.3691 0.5000
vt 0.3691 0.5000
vt 0.3691 0.5000
vt 0.0371 0.5000
vt 0.0371 0.5000
vt 0.0371 0.5000
vt 0.0371 0.5000
vt 0.8613 0.5000
vt 0.8613 0.5000
vt 0.8613 0.5000
vt 0.4199 0.5000
vt 0.4199 0.5000
vt 0.4199 0.5000
vt 0.8613 0.5000
vt 0.8613 0.5000
vt 0.4199 0.5000
vt 0.4199 0.5000
vt 0.8613 0.5000
vt 0.4199 0.5000
vt 0.8613 0.5000
vt 0.4199 0.5000
vt 0.4199 0.5000
vt 0.8613 0.5000
vt 0.8613 0.5000
vt 0.8613 0.5000
vt 0.4199 0.5000
vt 0.4199 0.5000
vt 0.8613 0.5000
vt 0.4199 0.5000
vt 0.8613 0.5000
vt 0.4199 0.5000
vt 0.8613 0.5000
vt 0.0371 0.5000
vt 0.0371 0.5000
vt 0.0371 0.5000
vt 0.4199 0.5000
vt 0.0371 0.5000
vt 0.2012 0.5000
vt 0.2012 0.5000
vt 0.2012 0.5000
vt 0.0371 0.5000
vt 0.0371 0.5000
vt 0.2012 0.5000
vt 0.0371 0.5000
vt 0.2012 0.5000
vt 0.2012 0.5000
vt 0.0371 0.5000
vt 0.0371 0.5000
vt 0.2012 0.5000
vt 0.0371 0.5000
vt 0.2012 0.5000
vt 0.2012 0.5000
vt 0.0371 0.5000
vt 0.0371 0.5000
vt 0.2012 0.5000
vt 0.0371 0.5000
vt 0.2012 0.5000
vt 0.2012 0.5000
vt 0.0371 0.5000
vt 0.0371 0.5000
vt 0.2012 0.5000
vt 0.0371 0.5000
vt 0.2012 0.5000
vt 0.2012 0.5000
vt 0.0371 0.5000
vt 0.0371 0.5000
vt 0.2012 0.5000
vt 0.0371 0.5000
vt 0.2012 0.5000
vt 0.2012 0.5000
vt 0.0371 0.5000
vt 0.0371 0.5000
vt 0.2012 0.5000
vt 0.0371 0.5000
vt 0.2012 0.5000
vt 0.2012 0.5000
vt 0.0371 0.5000
vt 0.0371 0.5000
vt 0.2012 0.5000
vt 0.0371 0.5000
vt 0.0371 0.5000
vt 0.0371 0.5000
vt 0.0371 0.5000
vt 0.2012 0.5000
vt 0.2012 0.5000
vt 0.3691 0.5000
vt 0.3691 0.5000
vt 0.3691 0.5000
vt 0.2012 0.5000
vt 0.0371 0.5000
vt 0.3691 0.5000
vt 0.3691 0.5000
vt 0.3691 0.5000
vt 0.0371 0.5000
vt 0.0371 0.5000
vt 0.0371 0.5000
vt 0.3691 0.5000
vt 0.3691 0.5000
vt 0.0371 0.5000
vt 0.3691 0.5000
vt 0.0371 0.5000
vt 0.8613 0.5000
vt 0.8613 0.5000
vt 0.8613 0.5000
vt 0.4199 0.5000
vt 0.4199 0.5000
vt 0.4199 0.5000
vt 0.8613 0.5000
vt 0.8613 0.5000
vt 0.4199 0.5000
vt 0.4199 0.5000
vt 0.8613 0.5000
vt 0.4199 0.5000
vt 0.8613 0.5000
vt 0.4199 0.5000
vt 0.4199 0.5000
vt 0.8613 0.5000
vt 0.8613 0.5000
vt 0.8613 0.5000
vt 0.4199 0.5000
vt 0.4199 0.5000
vt 0.8613 0.5000
vt 0.4199 0.5000
vt 0.8613 0.5000
vt 0.4199 0.5000
vt 0.8613 0.5000
vt 0.0371 0.5000
vt 0.0371 0.5000
vt 0.0371 0.5000
vt 0.4199 0.5000
vt 0.0371 0.5000
vt 0.2012 0.5000
vt 0.2012 0.5000
vt 0.2012 0.5000
vt 0.0371 0.5000
vt 0.0371 0.5000
vt 0.2012 0.5000
vt 0.0371 0.5000
vt 0.2012 0.5000
vt 0.2012 0.5000
vt 0.0371 0.5000
vt 0.0371 0.5000
vt 0.2012 0.5000
vt 0.0371 0.5000
vt 0.2012 0.5000
vt 0.2012 0.5000
vt 0.0371 0.5000
vt 0.0371 0.5000
vt 0.2012 0.5000
vt 0.0371 0.5000
vt 0.2012 0.5000
vt 0.2012 0.5000
vt 0.0371 0.5000
vt 0.0371 0.5000
vt 0.2012 0.5000
vt 0.0371 0.5000
vt 0.2012 0.5000
vt 0.2012 0.5000
vt 0.0371 0.5000
vt 0.0371 0.5000
vt 0.2012 0.5000
vt 0.0371 0.5000
vt 0.2012 0.5000
vt 0.2012 0.5000
vt 0.0371 0.5000
vt 0.0371 0.5000
vt 0.2012 0.5000
vt 0.0371 0.5000
vt 0.2012 0.5000
vt 0.2012 0.5000
vt 0.0371 0.5000
vt 0.0371 0.5000
vt 0.2012 0.5000
vt 0.0371 0.5000
vt 0.0371 0.5000
vt 0.0371 0.5000
vt 0.0371 0.5000
vt 0.2012 0.5000
vt 0.2012 0.5000
vt 0.3691 0.5000
vt 0.3691 0.5000
vt 0.3691 0.5000
vt 0.2012 0.5000
vt 0.0371 0.5000
vt 0.3691 0.5000
vt 0.3691 0.5000
vt 0.3691 0.5000
vt 0.0371 0.5000
vt 0.0371 0.5000
vt 0.0371 0.5000
vt 0.3691 0.5000
vt 0.3691 0.5000
vt 0.0371 0.5000
vt 0.3691 0.5000
vt 0.0371 0.5000
vt 0.8613 0.5000
vt 0.8613 0.5000
vt 0.8613 0.5000
vt 0.8613 0.5000
vt 0.8613 0.5000
vt 0.8613 0.5000
vt 0.8613 0.5000
vt 0.8613 0.5000
vt 0.8613 0.5000
vt 0.8613 0.5000
vt 0.8613 0.5000
vt 0.8613 0.5000
vt 0.2012 0.5000
vt 0.2012 0.5000
vt 0.2012 0.5000
vt 0.2012 0.5000
vt 0.2012 0.5000
vt 0.2012 0.5000
vt 0.2012 0.5000
vt 0.2012 0.5000
vt 0.2012 0.5000
vt 0.2012 0.5000
vt 0.2012 0.5000
vt 0.2012 0.5000
vt 0.2012 0.5000
vt 0.2012 0.5000
vt 0.2012 0.5000
vt 0.2012 0.5000
vt 0.2012 0.5000
vt 0.2012 0.5000
vt 0.2012 0.5000
vt 0.2012 0.5000
vt 0.2012 0.5000
vt 0.2012 0.5000
vt 0.2012 0.5000
vt 0.2012 0.5000
vt 0.2012 0.5000
vt 0.2012 0.5000
vt 0.2012 0.5000
vt 0.2012 0.5000
vt 0.2012 0.5000
vt 0.2012 0.5000
vt 0.2012 0.5000
vt 0.3691 0.5000
vt 0.3691 0.5000
vt 0.3691 0.5000
vt 0.2012 0.5000
vt 0.3691 0.5000
vt 0.0371 0.5000
vt 0.0371 0.5000
vt 0.0371 0.5000
vt 0.0371 0.5000
vt 0.3691 0.5000
vt 0.3691 0.5000
vt 0.3691 0.5000
vt 0.3691 0.5000
vt 0.4199 0.5000
vt 0.4199 0.5000
vt 0.4199 0.5000
vt 0.4199 0.5000
vt 0.4199 0.5000
vt 0.4199 0.5000
vt 0.4199 0.5000
vt 0.0371 0.5000
vt 0.0371 0.5000
vt 0.0371 0.5000
vt 0.4199 0.5000
vt 0.0371 0.5000
vt 0.0371 0.5000
vt 0.0371 0.5000
vt 0.0371 0.5000
vt 0.0371 0.5000
vt 0.0371 0.5000
vt 0.0371 0.5000
vt 0.0371 0.5000
vt 0.0371 0.5000
vt 0.0371 0.5000
vt 0.0371 0.5000
vt 0.0371 0.5000
vt 0.0371 0.5000
vt 0.0371 0.5000
vt 0.0371 0.5000
vt 0.0371 0.5000
vt 0.0371 0.5000
vt 0.0371 0.5000
vt 0.0371 0.5000
vt 0.0371 0.5000
vt 0.0371 0.5000
vt 0.0371 0.5000
vt 0.0371 0.5000
vt 0.0371 0.5000
vt 0.0371 0.5000
vt 0.0371 0.5000
vt 0.0371 0.5000
vt 0.0371 0.5000
vt 0.0371 0.5000
vt 0.0371 0.5000
vt 0.0371 0.5000
vt 0.0371 0.5000
vt 0.0371 0.5000
vt 0.0371 0.5000
vt 0.0371 0.5000
vt 0.0371 0.5000
vt 0.0371 0.5000
vn -1.0000 0.0000 0.0000
vn 1.0000 -0.0000 0.0000
vn 0.0000 -0.0000 1.0000
vn 0.0000 0.0000 -1.0000
vn 0.0000 -1.0000 -0.0000
vn 0.0000 1.0000 0.0000
usemtl palette.003
s 1
f 1/1/1 2/2/1 3/3/1
f 4/4/1 2/2/1 1/1/1
f 5/5/1 4/6/1 1/7/1
f 6/8/1 4/6/1 5/5/1
f 7/9/1 8/10/1 9/11/1
f 10/12/1 8/10/1 7/9/1
f 11/13/1 12/14/1 13/15/1
f 14/16/1 12/14/1 11/13/1
f 15/17/1 16/18/1 17/19/1
f 18/20/1 16/18/1 15/17/1
f 19/21/1 20/22/1 21/23/1
f 22/24/1 20/22/1 19/21/1
f 23/25/1 24/26/1 25/27/1
f 26/28/1 24/26/1 23/25/1
f 27/29/1 28/30/1 29/31/1
f 30/32/1 28/30/1 27/29/1
f 31/33/1 32/34/1 33/35/1
f 34/36/1 32/34/1 31/33/1
f 35/37/1 36/38/1 37/39/1
f 38/40/1 36/38/1 35/37/1
f 39/41/1 40/42/1 41/43/1
f 42/44/1 40/42/1 39/41/1
f 43/45/1 44/46/1 45/47/1
f 46/48/1 44/46/1 43/45/1
f 47/49/1 48/50/1 49/51/1
f 50/52/1 48/50/1 47/49/1
f 51/53/1 52/54/1 53/55/1
f 54/56/1 52/54/1 51/53/1
f 55/57/2 56/58/2 57/59/2
f 57/59/2 56/58/2 58/60/2
f 59/61/2 60/62/2 61/63/2
f 61/63/2 60/62/2 62/64/2
f 61/65/2 62/66/2 63/67/2
f 63/67/2 62/66/2 64/68/2
f 65/69/2 66/70/2 67/71/2
f 67/71/2 66/70/2 68/72/2
f 69/73/2 70/74/2 71/75/2
f 71/75/2 70/74/2 72/76/2
f 73/77/2 74/78/2 75/79/2
f 75/79/2 74/78/2 76/80/2
f 77/81/2 78/82/2 79/83/2
f 79/83/2 78/82/2 80/84/2
f 81/85/2 82/86/2 83/87/2
f 83/87/2 82/86/2 84/88/2
f 85/89/2 86/90/2 87/91/2
f 87/91/2 86/90/2 88/92/2
f 89/93/2 90/94/2 91/95/2
f 91/95/2 90/94/2 92/96/2
f 93/97/2 94/98/2 95/99/2
f 95/99/2 94/98/2 96/100/2
f 97/101/2 98/102/2 99/103/2
f 99/103/2 98/102/2 100/104/2
f 99/105/2 100/106/2 101/107/2
f 101/107/2 100/106/2 102/108/2
f 103/109/3 104/110/3 105/111/3
f 106/112/3 107/113/3 104/114/3
f 108/115/3 103/109/3 109/116/3
f 108/115/3 104/110/3 103/109/3
f 110/117/3 111/118/3 106/112/3
f 110/119/3 104/110/3 108/115/3
f 110/117/3 106/112/3 104/114/3
f 112/120/3 111/118/3 110/117/3
f 113/121/3 108/115/3 109/116/3
f 114/122/3 110/117/3 108/123/3
f 114/124/3 108/115/3 113/121/3
f 115/125/3 112/126/3 110/119/3
f 115/127/3 110/117/3 114/122/3
f 116/128/3 111/118/3 112/120/3
f 116/129/3 112/126/3 115/125/3
f 117/130/3 111/118/3 116/128/3
f 118/131/3 115/125/3 114/124/3
f 119/132/3 116/128/3 115/127/3
f 119/133/3 115/125/3 118/131/3
f 120/134/3 117/135/3 116/136/3
f 120/137/3 116/128/3 119/132/3
f 121/138/3 117/135/3 120/134/3
f 122/139/3 121/140/3 120/141/3
f 123/142/3 124/143/3 121/138/3
f 123/144/3 121/140/3 122/139/3
f 125/145/3 124/143/3 123/142/3
f 126/146/3 125/147/3 123/144/3
f 127/148/3 128/149/3 125/145/3
f 127/150/3 125/147/3 126/146/3
f 129/151/3 128/149/3 127/148/3
f 130/152/3 129/153/3 127/150/3
f 131/154/3 132/155/3 129/151/3
f 131/156/3 129/153/3 130/152/3
f 133/157/3 132/155/3 131/154/3
f 134/158/3 133/159/3 131/156/3
f 135/160/3 136/161/3 133/157/3
f 135/162/3 133/159/3 134/158/3
f 137/163/3 136/161/3 135/160/3
f 138/164/3 137/165/3 135/162/3
f 139/166/3 140/167/3 137/163/3
f 139/168/3 137/165/3 138/164/3
f 141/169/3 140/167/3 139/166/3
f 142/170/3 141/171/3 139/168/3
f 143/172/3 144/173/3 141/169/3
f 143/174/3 141/171/3 142/170/3
f 145/175/3 144/173/3 143/172/3
f 146/176/3 145/177/3 143/174/3
f 147/178/3 148/179/3 145/175/3
f 147/180/3 145/177/3 146/176/3
f 149/181/3 148/179/3 147/178/3
f 150/182/3 151/183/3 152/184/3
f 153/185/3 149/186/3 147/180/3
f 154/187/3 150/188/3 149/189/3
f 154/190/3 149/186/3 153/185/3
f 155/191/3 151/183/3 150/182/3
f 156/192/3 154/187/3 153/193/3
f 157/194/3 150/188/3 154/187/3
f 157/194/3 154/187/3 156/192/3
f 157/195/3 158/196/3 155/191/3
f 157/195/3 155/191/3 150/182/3
f 159/197/3 158/196/3 157/195/3
f 160/198/3 159/199/3 157/194/3
f 161/200/3 158/196/3 159/197/3
f 161/201/3 159/199/3 160/198/3
f 162/202/3 158/196/3 161/200/3
f 163/203/4 164/204/4 165/205/4
f 164/206/4 166/207/4 167/208/4
f 168/209/4 165/205/4 169/210/4
f 165/205/4 164/204/4 169/210/4
f 167/208/4 170/211/4 171/212/4
f 169/210/4 164/204/4 171/213/4
f 164/206/4 167/208/4 171/212/4
f 171/212/4 170/211/4 172/214/4
f 168/209/4 169/210/4 173/215/4
f 169/216/4 171/212/4 174/217/4
f 173/215/4 169/210/4 174/218/4
f 171/213/4 172/219/4 175/220/4
f 174/217/4 171/212/4 175/221/4
f 172/214/4 170/211/4 176/222/4
f 175/220/4 172/219/4 176/223/4
f 176/222/4 170/211/4 177/224/4
f 174/218/4 175/220/4 178/225/4
f 175/221/4 176/222/4 179/226/4
f 178/225/4 175/220/4 179/227/4
f 176/228/4 177/229/4 180/230/4
f 179/226/4 176/222/4 180/231/4
f 180/230/4 177/229/4 181/232/4
f 180/233/4 181/234/4 182/235/4
f 181/232/4 183/236/4 184/237/4
f 182/235/4 181/234/4 184/238/4
f 184/237/4 183/236/4 185/239/4
f 184/238/4 185/240/4 186/241/4
f 185/239/4 187/242/4 188/243/4
f 186/241/4 185/240/4 188/244/4
f 188/243/4 187/242/4 189/245/4
f 188/244/4 189/246/4 190/247/4
f 189/245/4 191/248/4 192/249/4
f 190/247/4 189/246/4 192/250/4
f 192/249/4 191/248/4 193/251/4
f 192/250/4 193/252/4 194/253/4
f 193/251/4 195/254/4 196/255/4
f 194/253/4 193/252/4 196/256/4
f 196/255/4 195/254/4 197/257/4
f 196/256/4 197/258/4 198/259/4
f 197/257/4 199/260/4 200/261/4
f 198/259/4 197/258/4 200/262/4
f 200/261/4 199/260/4 201/263/4
f 200/262/4 201/264/4 202/265/4
f 201/263/4 203/266/4 204/267/4
f 202/265/4 201/264/4 204/268/4
f 204/267/4 203/266/4 205/269/4
f 204/268/4 205/270/4 206/271/4
f 205/269/4 207/272/4 208/273/4
f 206/271/4 205/270/4 208/274/4
f 208/273/4 207/272/4 209/275/4
f 210/276/4 211/277/4 212/278/4
f 208/274/4 209/279/4 213/280/4
f 209/281/4 212/282/4 214/283/4
f 213/280/4 209/279/4 214/284/4
f 212/278/4 211/277/4 215/285/4
f 213/286/4 214/283/4 216/287/4
f 214/283/4 212/282/4 217/288/4
f 216/287/4 214/283/4 217/288/4
f 215/285/4 218/289/4 217/290/4
f 212/278/4 215/285/4 217/290/4
f 217/290/4 218/289/4 219/291/4
f 217/288/4 219/292/4 220/293/4
f 219/291/4 218/289/4 221/294/4
f 220/293/4 219/292/4 221/295/4
f 221/294/4 218/289/4 222/296/4
f 223/297/5 224/298/5 225/299/5
f 226/300/5 224/298/5 223/297/5
f 227/301/5 228/302/5 229/303/5
f 230/304/5 228/302/5 227/301/5
f 231/305/5 232/306/5 233/307/5
f 234/308/5 232/306/5 231/305/5
f 235/309/5 236/310/5 237/311/5
f 238/312/5 236/310/5 235/309/5
f 239/313/5 240/314/5 241/315/5
f 242/316/5 240/314/5 239/313/5
f 243/317/5 244/318/5 245/319/5
f 246/320/5 244/318/5 243/317/5
f 247/321/5 248/322/5 249/323/5
f 250/324/5 248/322/5 247/321/5
f 251/325/5 252/326/5 253/327/5
f 254/328/5 252/326/5 251/325/5
f 255/329/5 256/330/5 257/331/5
f 258/332/5 256/330/5 255/329/5
f 259/333/5 260/334/5 261/335/5
f 262/336/5 260/334/5 259/333/5
f 263/337/5 264/338/5 265/339/5
f 266/340/5 267/341/5 264/342/5
f 266/343/5 264/338/5 263/337/5
f 268/344/5 267/341/5 266/340/5
f 269/345/5 270/346/5 271/347/5
f 272/348/5 270/346/5 269/345/5
f 273/349/5 274/350/5 275/351/5
f 276/352/5 274/350/5 273/349/5
f 277/353/6 278/354/6 279/355/6
f 279/355/6 278/354/6 280/356/6
f 281/357/6 282/358/6 283/359/6
f 282/360/6 284/361/6 285/362/6
f 283/359/6 282/358/6 285/363/6
f 285/362/6 284/361/6 286/364/6
f 287/365/6 288/366/6 289/367/6
f 289/367/6 288/366/6 290/368/6
f 291/369/6 292/370/6 293/371/6
f 293/371/6 292/370/6 294/372/6
f 295/373/6 296/374/6 297/375/6
f 297/375/6 296/374/6 298/376/6
f 299/377/6 300/378/6 301/379/6
f 301/379/6 300/378/6 302/380/6
f 303/381/6 304/382/6 305/383/6
f 305/383/6 304/382/6 306/384/6
f 307/385/6 308/386/6 309/387/6
f 309/387/6 308/386/6 310/388/6
f 311/389/6 312/390/6 313/391/6
f 313/391/6 312/390/6 314/392/6
f 315/393/6 316/394/6 317/395/6
f 317/395/6 316/394/6 318/396/6
f 319/397/6 320/398/6 321/399/6
f 321/399/6 320/398/6 322/400/6
