# Blender v2.77 (sub 0) OBJ File: ''
# www.blender.org
mtllib Dagger_Wood.mtl
o Dagger_Wood
v -0.137500 0.075000 0.012500
v -0.137500 0.000000 -0.012500
v -0.137500 -0.000000 0.012500
v -0.137500 0.075000 -0.012500
v -0.087500 0.100000 0.012500
v -0.087500 0.075000 -0.012500
v -0.087500 0.075000 0.012500
v -0.087500 0.100000 -0.012500
v -0.087500 0.175000 0.012500
v -0.087500 0.125000 -0.012500
v -0.087500 0.125000 0.012500
v -0.087500 0.175000 -0.012500
v -0.062500 0.125000 0.012500
v -0.062500 0.100000 -0.012500
v -0.062500 0.100000 0.012500
v -0.062500 0.125000 -0.012500
v -0.037500 0.175000 0.012500
v -0.037500 0.150000 -0.012500
v -0.037500 0.150000 0.012500
v -0.037500 0.175000 -0.012500
v -0.012500 0.075000 0.012500
v -0.012500 0.050000 -0.012500
v -0.012500 0.050000 0.012500
v -0.012500 0.075000 -0.012500
v -0.012500 0.200000 0.012500
v -0.012500 0.175000 -0.012500
v -0.012500 0.175000 0.012500
v -0.012500 0.200000 -0.012500
v 0.012500 0.225000 0.012500
v 0.012500 0.200000 -0.012500
v 0.012500 0.200000 0.012500
v 0.012500 0.225000 -0.012500
v 0.037500 0.250000 0.012500
v 0.037500 0.225000 -0.012500
v 0.037500 0.225000 0.012500
v 0.037500 0.250000 -0.012500
v 0.062500 0.275000 0.012500
v 0.062500 0.250000 -0.012500
v 0.062500 0.250000 0.012500
v 0.062500 0.275000 -0.012500
v -0.062500 -0.000000 0.012500
v -0.062500 0.000000 -0.012500
v -0.062500 0.050000 0.012500
v -0.062500 0.050000 -0.012500
v -0.062500 0.150000 0.012500
v -0.062500 0.150000 -0.012500
v -0.062500 0.175000 0.012500
v -0.062500 0.175000 -0.012500
v -0.037500 0.050000 0.012500
v -0.037500 0.050000 -0.012500
v -0.037500 0.075000 0.012500
v -0.037500 0.075000 -0.012500
v 0.012500 0.075000 0.012500
v 0.012500 0.075000 -0.012500
v 0.012500 0.100000 0.012500
v 0.012500 0.100000 -0.012500
v 0.037500 0.050000 0.012500
v 0.037500 0.050000 -0.012500
v 0.037500 0.075000 0.012500
v 0.037500 0.075000 -0.012500
v 0.037500 0.100000 0.012500
v 0.037500 0.100000 -0.012500
v 0.037500 0.125000 0.012500
v 0.037500 0.125000 -0.012500
v 0.062500 0.125000 0.012500
v 0.062500 0.125000 -0.012500
v 0.062500 0.150000 0.012500
v 0.062500 0.150000 -0.012500
v 0.087500 0.150000 0.012500
v 0.087500 0.150000 -0.012500
v 0.087500 0.175000 0.012500
v 0.087500 0.175000 -0.012500
v 0.112500 0.175000 0.012500
v 0.112500 0.175000 -0.012500
v 0.112500 0.200000 0.012500
v 0.112500 0.200000 -0.012500
v 0.137500 0.200000 0.012500
v 0.137500 0.200000 -0.012500
v 0.137500 0.275000 0.012500
v 0.137500 0.275000 -0.012500
v -0.112500 0.025000 0.012500
v -0.137500 0.075000 0.012500
v -0.137500 -0.000000 0.012500
v -0.112500 0.050000 0.012500
v -0.087500 0.025000 0.012500
v -0.087500 0.050000 0.012500
v -0.087500 0.075000 0.012500
v -0.062500 -0.000000 0.012500
v -0.062500 0.050000 0.012500
v -0.062500 0.075000 0.012500
v -0.087500 0.100000 0.012500
v -0.062500 0.100000 0.012500
v -0.062500 0.125000 0.012500
v -0.087500 0.175000 0.012500
v -0.087500 0.125000 0.012500
v -0.062500 0.150000 0.012500
v -0.062500 0.175000 0.012500
v -0.037500 0.050000 0.012500
v -0.037500 0.075000 0.012500
v -0.037500 0.100000 0.012500
v -0.037500 0.125000 0.012500
v -0.037500 0.150000 0.012500
v -0.012500 0.075000 0.012500
v -0.012500 0.100000 0.012500
v -0.012500 0.125000 0.012500
v -0.012500 0.150000 0.012500
v -0.037500 0.175000 0.012500
v -0.012500 0.175000 0.012500
v 0.012500 0.075000 0.012500
v -0.012500 0.050000 0.012500
v 0.012500 0.100000 0.012500
v 0.012500 0.125000 0.012500
v 0.012500 0.150000 0.012500
v 0.012500 0.175000 0.012500
v -0.012500 0.200000 0.012500
v 0.012500 0.200000 0.012500
v 0.037500 0.050000 0.012500
v 0.037500 0.075000 0.012500
v 0.037500 0.100000 0.012500
v 0.037500 0.125000 0.012500
v 0.037500 0.150000 0.012500
v 0.037500 0.175000 0.012500
v 0.037500 0.200000 0.012500
v 0.012500 0.225000 0.012500
v 0.037500 0.225000 0.012500
v 0.062500 0.125000 0.012500
v 0.062500 0.150000 0.012500
v 0.062500 0.175000 0.012500
v 0.062500 0.200000 0.012500
v 0.062500 0.225000 0.012500
v 0.037500 0.250000 0.012500
v 0.062500 0.250000 0.012500
v 0.087500 0.150000 0.012500
v 0.087500 0.175000 0.012500
v 0.087500 0.200000 0.012500
v 0.087500 0.225000 0.012500
v 0.087500 0.250000 0.012500
v 0.062500 0.275000 0.012500
v 0.112500 0.175000 0.012500
v 0.112500 0.200000 0.012500
v 0.112500 0.225000 0.012500
v 0.112500 0.250000 0.012500
v 0.137500 0.200000 0.012500
v 0.137500 0.275000 0.012500
v -0.137500 0.000000 -0.012500
v -0.137500 0.075000 -0.012500
v -0.112500 0.025000 -0.012500
v -0.112500 0.050000 -0.012500
v -0.087500 0.025000 -0.012500
v -0.087500 0.050000 -0.012500
v -0.087500 0.075000 -0.012500
v -0.062500 0.000000 -0.012500
v -0.062500 0.050000 -0.012500
v -0.087500 0.100000 -0.012500
v -0.062500 0.075000 -0.012500
v -0.062500 0.100000 -0.012500
v -0.087500 0.125000 -0.012500
v -0.087500 0.175000 -0.012500
v -0.062500 0.125000 -0.012500
v -0.062500 0.150000 -0.012500
v -0.062500 0.175000 -0.012500
v -0.037500 0.050000 -0.012500
v -0.037500 0.075000 -0.012500
v -0.037500 0.100000 -0.012500
v -0.037500 0.125000 -0.012500
v -0.037500 0.150000 -0.012500
v -0.012500 0.075000 -0.012500
v -0.012500 0.100000 -0.012500
v -0.012500 0.125000 -0.012500
v -0.037500 0.175000 -0.012500
v -0.012500 0.150000 -0.012500
v -0.012500 0.175000 -0.012500
v 0.012500 0.075000 -0.012500
v -0.012500 0.050000 -0.012500
v 0.012500 0.100000 -0.012500
v 0.012500 0.125000 -0.012500
v 0.012500 0.150000 -0.012500
v -0.012500 0.200000 -0.012500
v 0.012500 0.175000 -0.012500
v 0.012500 0.200000 -0.012500
v 0.037500 0.050000 -0.012500
v 0.037500 0.075000 -0.012500
v 0.037500 0.100000 -0.012500
v 0.037500 0.125000 -0.012500
v 0.037500 0.150000 -0.012500
v 0.037500 0.175000 -0.012500
v 0.012500 0.225000 -0.012500
v 0.037500 0.200000 -0.012500
v 0.037500 0.225000 -0.012500
v 0.062500 0.125000 -0.012500
v 0.062500 0.150000 -0.012500
v 0.062500 0.175000 -0.012500
v 0.062500 0.200000 -0.012500
v 0.037500 0.250000 -0.012500
v 0.062500 0.225000 -0.012500
v 0.062500 0.250000 -0.012500
v 0.087500 0.150000 -0.012500
v 0.087500 0.175000 -0.012500
v 0.087500 0.200000 -0.012500
v 0.087500 0.225000 -0.012500
v 0.062500 0.275000 -0.012500
v 0.087500 0.250000 -0.012500
v 0.112500 0.175000 -0.012500
v 0.112500 0.200000 -0.012500
v 0.112500 0.225000 -0.012500
v 0.112500 0.250000 -0.012500
v 0.137500 0.200000 -0.012500
v 0.137500 0.275000 -0.012500
v -0.137500 0.000000 -0.012500
v -0.062500 -0.000000 0.012500
v -0.137500 -0.000000 0.012500
v -0.062500 0.000000 -0.012500
v -0.062500 0.050000 -0.012500
v -0.037500 0.050000 0.012500
v -0.062500 0.050000 0.012500
v -0.037500 0.050000 -0.012500
v -0.012500 0.050000 -0.012500
v 0.037500 0.050000 0.012500
v -0.012500 0.050000 0.012500
v 0.037500 0.050000 -0.012500
v -0.037500 0.075000 -0.012500
v -0.012500 0.075000 0.012500
v -0.037500 0.075000 0.012500
v -0.012500 0.075000 -0.012500
v 0.012500 0.100000 -0.012500
v 0.037500 0.100000 0.012500
v 0.012500 0.100000 0.012500
v 0.037500 0.100000 -0.012500
v -0.087500 0.125000 -0.012500
v -0.062500 0.125000 0.012500
v -0.087500 0.125000 0.012500
v -0.062500 0.125000 -0.012500
v 0.037500 0.125000 -0.012500
v 0.062500 0.125000 0.012500
v 0.037500 0.125000 0.012500
v 0.062500 0.125000 -0.012500
v 0.062500 0.150000 -0.012500
v 0.087500 0.150000 0.012500
v 0.062500 0.150000 0.012500
v 0.087500 0.150000 -0.012500
v 0.087500 0.175000 -0.012500
v 0.112500 0.175000 0.012500
v 0.087500 0.175000 0.012500
v 0.112500 0.175000 -0.012500
v 0.112500 0.200000 -0.012500
v 0.137500 0.200000 0.012500
v 0.112500 0.200000 0.012500
v 0.137500 0.200000 -0.012500
v -0.137500 0.075000 0.012500
v -0.087500 0.075000 0.012500
v -0.137500 0.075000 -0.012500
v -0.087500 0.075000 -0.012500
v 0.012500 0.075000 0.012500
v 0.037500 0.075000 0.012500
v 0.012500 0.075000 -0.012500
v 0.037500 0.075000 -0.012500
v -0.087500 0.100000 0.012500
v -0.062500 0.100000 0.012500
v -0.087500 0.100000 -0.012500
v -0.062500 0.100000 -0.012500
v -0.062500 0.150000 0.012500
v -0.037500 0.150000 0.012500
v -0.062500 0.150000 -0.012500
v -0.037500 0.150000 -0.012500
v -0.087500 0.175000 0.012500
v -0.062500 0.175000 0.012500
v -0.087500 0.175000 -0.012500
v -0.062500 0.175000 -0.012500
v -0.037500 0.175000 0.012500
v -0.012500 0.175000 0.012500
v -0.037500 0.175000 -0.012500
v -0.012500 0.175000 -0.012500
v -0.012500 0.200000 0.012500
v 0.012500 0.200000 0.012500
v -0.012500 0.200000 -0.012500
v 0.012500 0.200000 -0.012500
v 0.012500 0.225000 0.012500
v 0.037500 0.225000 0.012500
v 0.012500 0.225000 -0.012500
v 0.037500 0.225000 -0.012500
v 0.037500 0.250000 0.012500
v 0.062500 0.250000 0.012500
v 0.037500 0.250000 -0.012500
v 0.062500 0.250000 -0.012500
v 0.062500 0.275000 0.012500
v 0.137500 0.275000 0.012500
v 0.062500 0.275000 -0.012500
v 0.137500 0.275000 -0.012500
vt 0.5371 0.5000
vt 0.5371 0.5000
vt 0.5371 0.5000
vt 0.5371 0.5000
vt 0.5371 0.5000
vt 0.5371 0.5000
vt 0.5371 0.5000
vt 0.5371 0.5000
vt 0.5371 0.5000
vt 0.5371 0.5000
vt 0.5371 0.5000
vt 0.5371 0.5000
vt 0.5371 0.5000
vt 0.5371 0.5000
vt 0.5371 0.5000
vt 0.5371 0.5000
vt 0.5371 0.5000
vt 0.5371 0.5000
vt 0.5371 0.5000
vt 0.5371 0.5000
vt 0.5371 0.5000
vt 0.5371 0.5000
vt 0.5371 0.5000
vt 0.5371 0.5000
vt 0.5371 0.5000
vt 0.5371 0.5000
vt 0.5371 0.5000
vt 0.5371 0.5000
vt 0.5371 0.5000
vt 0.5371 0.5000
vt 0.5371 0.5000
vt 0.5371 0.5000
vt 0.5371 0.5000
vt 0.5371 0.5000
vt 0.5371 0.5000
vt 0.5371 0.5000
vt 0.5371 0.5000
vt 0.5371 0.5000
vt 0.5371 0.5000
vt 0.5371 0.5000
vt 0.5371 0.5000
vt 0.5371 0.5000
vt 0.5371 0.5000
vt 0.5371 0.5000
vt 0.5371 0.5000
vt 0.5371 0.5000
vt 0.5371 0.5000
vt 0.5371 0.5000
vt 0.5371 0.5000
vt 0.5371 0.5000
vt 0.5371 0.5000
vt 0.5371 0.5000
vt 0.5371 0.5000
vt 0.5371 0.5000
vt 0.5371 0.5000
vt 0.5371 0.5000
vt 0.5371 0.5000
vt 0.5371 0.5000
vt 0.5371 0.5000
vt 0.5371 0.5000
vt 0.5371 0.5000
vt 0.5371 0.5000
vt 0.5371 0.5000
vt 0.5371 0.5000
vt 0.5371 0.5000
vt 0.5371 0.5000
vt 0.5371 0.5000
vt 0.5371 0.5000
vt 0.5371 0.5000
vt 0.5371 0.5000
vt 0.5371 0.5000
vt 0.5371 0.5000
vt 0.5371 0.5000
vt 0.5371 0.5000
vt 0.5371 0.5000
vt 0.5371 0.5000
vt 0.5371 0.5000
vt 0.5371 0.5000
vt 0.5371 0.5000
vt 0.5371 0.5000
vt 0.5371 0.5000
vt 0.5371 0.5000
vt 0.5371 0.5000
vt 0.5371 0.5000
vt 0.5371 0.5000
vt 0.2012 0.5000
vt 0.2012 0.5000
vt 0.2012 0.5000
vt 0.5371 0.5000
vt 0.2012 0.5000
vt 0.5371 0.5000
vt 0.5371 0.5000
vt 0.3691 0.5000
vt 0.3691 0.5000
vt 0.3691 0.5000
vt 0.5371 0.5000
vt 0.5371 0.5000
vt 0.5371 0.5000
vt 0.3691 0.5000
vt 0.5371 0.5000
vt 0.5371 0.5000
vt 0.5371 0.5000
vt 0.5371 0.5000
vt 0.5371 0.5000
vt 0.5371 0.5000
vt 0.5371 0.5000
vt 0.3691 0.5000
vt 0.3691 0.5000
vt 0.5371 0.5000
vt 0.5371 0.5000
vt 0.3691 0.5000
vt 0.5371 0.5000
vt 0.5371 0.5000
vt 0.5371 0.5000
vt 0.5371 0.5000
vt 0.3691 0.5000
vt 0.3691 0.5000
vt 0.3691 0.5000
vt 0.5371 0.5000
vt 0.5371 0.5000
vt 0.5371 0.5000
vt 0.3691 0.5000
vt 0.5371 0.5000
vt 0.5371 0.5000
vt 0.5371 0.5000
vt 0.3691 0.5000
vt 0.3691 0.5000
vt 0.5371 0.5000
vt 0.2012 0.5000
vt 0.2012 0.5000
vt 0.2012 0.5000
vt 0.3691 0.5000
vt 0.3691 0.5000
vt 0.3691 0.5000
vt 0.2012 0.5000
vt 0.5371 0.5000
vt 0.5371 0.5000
vt 0.3691 0.5000
vt 0.5371 0.5000
vt 0.5371 0.5000
vt 0.5371 0.5000
vt 0.5371 0.5000
vt 0.5371 0.5000
vt 0.3691 0.5000
vt 0.5371 0.5000
vt 0.2012 0.5000
vt 0.2012 0.5000
vt 0.3691 0.5000
vt 0.3691 0.5000
vt 0.3691 0.5000
vt 0.2012 0.5000
vt 0.5371 0.5000
vt 0.5371 0.5000
vt 0.3691 0.5000
vt 0.5371 0.5000
vt 0.5371 0.5000
vt 0.5371 0.5000
vt 0.3691 0.5000
vt 0.5371 0.5000
vt 0.2012 0.5000
vt 0.2012 0.5000
vt 0.3691 0.5000
vt 0.3691 0.5000
vt 0.3691 0.5000
vt 0.2012 0.5000
vt 0.5371 0.5000
vt 0.5371 0.5000
vt 0.3691 0.5000
vt 0.5371 0.5000
vt 0.5371 0.5000
vt 0.5371 0.5000
vt 0.3691 0.5000
vt 0.5371 0.5000
vt 0.2012 0.5000
vt 0.2012 0.5000
vt 0.3691 0.5000
vt 0.3691 0.5000
vt 0.3691 0.5000
vt 0.2012 0.5000
vt 0.5371 0.5000
vt 0.5371 0.5000
vt 0.3691 0.5000
vt 0.5371 0.5000
vt 0.5371 0.5000
vt 0.3691 0.5000
vt 0.5371 0.5000
vt 0.2012 0.5000
vt 0.2012 0.5000
vt 0.3691 0.5000
vt 0.5371 0.5000
vt 0.2012 0.5000
vt 0.5371 0.5000
vt 0.5371 0.5000
vt 0.5371 0.5000
vt 0.5371 0.5000
vt 0.5371 0.5000
vt 0.5371 0.5000
vt 0.5371 0.5000
vt 0.5371 0.5000
vt 0.2012 0.5000
vt 0.2012 0.5000
vt 0.2012 0.5000
vt 0.5371 0.5000
vt 0.2012 0.5000
vt 0.5371 0.5000
vt 0.5371 0.5000
vt 0.3691 0.5000
vt 0.3691 0.5000
vt 0.3691 0.5000
vt 0.5371 0.5000
vt 0.5371 0.5000
vt 0.5371 0.5000
vt 0.3691 0.5000
vt 0.5371 0.5000
vt 0.5371 0.5000
vt 0.5371 0.5000
vt 0.5371 0.5000
vt 0.5371 0.5000
vt 0.5371 0.5000
vt 0.5371 0.5000
vt 0.3691 0.5000
vt 0.3691 0.5000
vt 0.5371 0.5000
vt 0.5371 0.5000
vt 0.3691 0.5000
vt 0.5371 0.5000
vt 0.5371 0.5000
vt 0.5371 0.5000
vt 0.5371 0.5000
vt 0.3691 0.5000
vt 0.3691 0.5000
vt 0.3691 0.5000
vt 0.5371 0.5000
vt 0.5371 0.5000
vt 0.5371 0.5000
vt 0.3691 0.5000
vt 0.5371 0.5000
vt 0.5371 0.5000
vt 0.5371 0.5000
vt 0.3691 0.5000
vt 0.3691 0.5000
vt 0.5371 0.5000
vt 0.2012 0.5000
vt 0.2012 0.5000
vt 0.2012 0.5000
vt 0.3691 0.5000
vt 0.3691 0.5000
vt 0.3691 0.5000
vt 0.2012 0.5000
vt 0.5371 0.5000
vt 0.5371 0.5000
vt 0.3691 0.5000
vt 0.5371 0.5000
vt 0.5371 0.5000
vt 0.5371 0.5000
vt 0.5371 0.5000
vt 0.5371 0.5000
vt 0.3691 0.5000
vt 0.5371 0.5000
vt 0.2012 0.5000
vt 0.2012 0.5000
vt 0.3691 0.5000
vt 0.3691 0.5000
vt 0.3691 0.5000
vt 0.2012 0.5000
vt 0.5371 0.5000
vt 0.5371 0.5000
vt 0.3691 0.5000
vt 0.5371 0.5000
vt 0.5371 0.5000
vt 0.5371 0.5000
vt 0.3691 0.5000
vt 0.5371 0.5000
vt 0.2012 0.5000
vt 0.2012 0.5000
vt 0.3691 0.5000
vt 0.3691 0.5000
vt 0.3691 0.5000
vt 0.2012 0.5000
vt 0.5371 0.5000
vt 0.5371 0.5000
vt 0.3691 0.5000
vt 0.5371 0.5000
vt 0.5371 0.5000
vt 0.5371 0.5000
vt 0.3691 0.5000
vt 0.5371 0.5000
vt 0.2012 0.5000
vt 0.2012 0.5000
vt 0.3691 0.5000
vt 0.3691 0.5000
vt 0.3691 0.5000
vt 0.2012 0.5000
vt 0.5371 0.5000
vt 0.5371 0.5000
vt 0.3691 0.5000
vt 0.5371 0.5000
vt 0.5371 0.5000
vt 0.3691 0.5000
vt 0.5371 0.5000
vt 0.2012 0.5000
vt 0.2012 0.5000
vt 0.3691 0.5000
vt 0.5371 0.5000
vt 0.2012 0.5000
vt 0.5371 0.5000
vt 0.5371 0.5000
vt 0.5371 0.5000
vt 0.5371 0.5000
vt 0.5371 0.5000
vt 0.5371 0.5000
vt 0.5371 0.5000
vt 0.5371 0.5000
vt 0.5371 0.5000
vt 0.5371 0.5000
vt 0.5371 0.5000
vt 0.5371 0.5000
vt 0.5371 0.5000
vt 0.5371 0.5000
vt 0.5371 0.5000
vt 0.5371 0.5000
vt 0.5371 0.5000
vt 0.5371 0.5000
vt 0.5371 0.5000
vt 0.5371 0.5000
vt 0.5371 0.5000
vt 0.5371 0.5000
vt 0.5371 0.5000
vt 0.5371 0.5000
vt 0.5371 0.5000
vt 0.5371 0.5000
vt 0.5371 0.5000
vt 0.5371 0.5000
vt 0.5371 0.5000
vt 0.5371 0.5000
vt 0.5371 0.5000
vt 0.5371 0.5000
vt 0.5371 0.5000
vt 0.5371 0.5000
vt 0.5371 0.5000
vt 0.5371 0.5000
vt 0.5371 0.5000
vt 0.5371 0.5000
vt 0.5371 0.5000
vt 0.5371 0.5000
vt 0.5371 0.5000
vt 0.5371 0.5000
vt 0.5371 0.5000
vt 0.5371 0.5000
vt 0.5371 0.5000
vt 0.5371 0.5000
vt 0.5371 0.5000
vt 0.5371 0.5000
vt 0.5371 0.5000
vt 0.5371 0.5000
vt 0.5371 0.5000
vt 0.5371 0.5000
vt 0.5371 0.5000
vt 0.5371 0.5000
vt 0.5371 0.5000
vt 0.5371 0.5000
vt 0.5371 0.5000
vt 0.5371 0.5000
vt 0.5371 0.5000
vt 0.5371 0.5000
vt 0.5371 0.5000
vt 0.5371 0.5000
vt 0.5371 0.5000
vt 0.5371 0.5000
vt 0.5371 0.5000
vt 0.5371 0.5000
vt 0.5371 0.5000
vt 0.5371 0.5000
vt 0.5371 0.5000
vt 0.5371 0.5000
vt 0.5371 0.5000
vt 0.5371 0.5000
vt 0.5371 0.5000
vt 0.5371 0.5000
vt 0.5371 0.5000
vt 0.5371 0.5000
vt 0.5371 0.5000
vt 0.5371 0.5000
vt 0.5371 0.5000
vt 0.5371 0.5000
vt 0.5371 0.5000
vt 0.5371 0.5000
vt 0.5371 0.5000
vn -1.0000 0.0000 0.0000
vn 1.0000 0.0000 0.0000
vn -0.0000 -0.0000 1.0000
vn 0.0000 0.0000 -1.0000
vn 0.0000 -1.0000 -0.0000
vn 0.0000 1.0000 0.0000
usemtl palette.026
s 1
f 1/1/1 2/2/1 3/3/1
f 4/4/1 2/2/1 1/1/1
f 5/5/1 6/6/1 7/7/1
f 8/8/1 6/6/1 5/5/1
f 9/9/1 10/10/1 11/11/1
f 12/12/1 10/10/1 9/9/1
f 13/13/1 14/14/1 15/15/1
f 16/16/1 14/14/1 13/13/1
f 17/17/1 18/18/1 19/19/1
f 20/20/1 18/18/1 17/17/1
f 21/21/1 22/22/1 23/23/1
f 24/24/1 22/22/1 21/21/1
f 25/25/1 26/26/1 27/27/1
f 28/28/1 26/26/1 25/25/1
f 29/29/1 30/30/1 31/31/1
f 32/32/1 30/30/1 29/29/1
f 33/33/1 34/34/1 35/35/1
f 36/36/1 34/34/1 33/33/1
f 37/37/1 38/38/1 39/39/1
f 40/40/1 38/38/1 37/37/1
f 41/41/2 42/42/2 43/43/2
f 43/43/2 42/42/2 44/44/2
f 45/45/2 46/46/2 47/47/2
f 47/47/2 46/46/2 48/48/2
f 49/49/2 50/50/2 51/51/2
f 51/51/2 50/50/2 52/52/2
f 53/53/2 54/54/2 55/55/2
f 55/55/2 54/54/2 56/56/2
f 57/57/2 58/58/2 59/59/2
f 59/59/2 58/58/2 60/60/2
f 61/61/2 62/62/2 63/63/2
f 63/63/2 62/62/2 64/64/2
f 65/65/2 66/66/2 67/67/2
f 67/67/2 66/66/2 68/68/2
f 69/69/2 70/70/2 71/71/2
f 71/71/2 70/70/2 72/72/2
f 73/73/2 74/74/2 75/75/2
f 75/75/2 74/74/2 76/76/2
f 77/77/2 78/78/2 79/79/2
f 79/79/2 78/78/2 80/80/2
f 81/81/3 82/82/3 83/83/3
f 84/84/3 82/82/3 81/81/3
f 85/85/3 81/81/3 83/83/3
f 85/86/3 84/87/3 81/88/3
f 86/89/3 82/82/3 84/84/3
f 86/90/3 84/87/3 85/86/3
f 87/91/3 82/82/3 86/89/3
f 88/92/3 85/85/3 83/83/3
f 88/92/3 86/89/3 85/85/3
f 89/93/3 87/94/3 86/95/3
f 89/96/3 86/89/3 88/92/3
f 90/97/3 91/98/3 87/91/3
f 90/99/3 87/94/3 89/93/3
f 92/100/3 91/98/3 90/97/3
f 93/101/3 94/102/3 95/103/3
f 96/104/3 94/102/3 93/101/3
f 97/105/3 94/102/3 96/104/3
f 98/106/3 90/97/3 89/96/3
f 99/107/3 92/108/3 90/99/3
f 99/109/3 90/97/3 98/106/3
f 100/110/3 96/104/3 93/101/3
f 100/111/3 92/108/3 99/107/3
f 100/110/3 93/101/3 92/100/3
f 101/112/3 96/104/3 100/110/3
f 102/113/3 96/104/3 101/112/3
f 103/114/3 100/110/3 99/109/3
f 103/114/3 101/112/3 100/110/3
f 104/115/3 101/112/3 103/114/3
f 105/116/3 102/117/3 101/118/3
f 105/119/3 101/112/3 104/115/3
f 106/120/3 107/121/3 102/113/3
f 106/122/3 102/117/3 105/116/3
f 108/123/3 107/121/3 106/120/3
f 109/124/3 104/115/3 103/114/3
f 109/124/3 103/114/3 110/125/3
f 111/126/3 105/116/3 104/127/3
f 111/128/3 104/115/3 109/124/3
f 112/129/3 106/130/3 105/131/3
f 112/132/3 105/116/3 111/126/3
f 113/133/3 108/134/3 106/122/3
f 113/135/3 106/130/3 112/129/3
f 114/136/3 115/137/3 108/123/3
f 114/138/3 108/134/3 113/133/3
f 116/139/3 115/137/3 114/136/3
f 117/140/3 109/124/3 110/125/3
f 118/141/3 109/124/3 117/140/3
f 119/142/3 112/143/3 111/128/3
f 120/144/3 113/133/3 112/132/3
f 120/145/3 112/143/3 119/142/3
f 121/146/3 114/147/3 113/135/3
f 121/148/3 113/133/3 120/144/3
f 122/149/3 116/150/3 114/138/3
f 122/151/3 114/147/3 121/146/3
f 123/152/3 124/153/3 116/139/3
f 123/154/3 116/150/3 122/149/3
f 125/155/3 124/153/3 123/152/3
f 126/156/3 121/157/3 120/145/3
f 127/158/3 122/149/3 121/148/3
f 127/159/3 121/157/3 126/156/3
f 128/160/3 123/161/3 122/151/3
f 128/162/3 122/149/3 127/158/3
f 129/163/3 125/164/3 123/154/3
f 129/165/3 123/161/3 128/160/3
f 130/166/3 131/167/3 125/155/3
f 130/168/3 125/164/3 129/163/3
f 132/169/3 131/167/3 130/166/3
f 133/170/3 128/171/3 127/159/3
f 134/172/3 129/163/3 128/162/3
f 134/173/3 128/171/3 133/170/3
f 135/174/3 130/175/3 129/165/3
f 135/176/3 129/163/3 134/172/3
f 136/177/3 132/178/3 130/168/3
f 136/179/3 130/175/3 135/174/3
f 137/180/3 138/181/3 132/169/3
f 137/182/3 132/178/3 136/177/3
f 139/183/3 135/184/3 134/173/3
f 140/185/3 136/177/3 135/176/3
f 140/186/3 135/184/3 139/183/3
f 141/187/3 137/188/3 136/179/3
f 141/189/3 136/177/3 140/185/3
f 142/190/3 138/181/3 137/180/3
f 142/191/3 137/188/3 141/187/3
f 143/192/3 141/193/3 140/186/3
f 143/192/3 142/190/3 141/193/3
f 144/194/3 138/181/3 142/190/3
f 144/194/3 142/190/3 143/192/3
f 145/195/4 146/196/4 147/197/4
f 147/197/4 146/196/4 148/198/4
f 145/195/4 147/197/4 149/199/4
f 147/200/4 148/201/4 149/202/4
f 148/198/4 146/196/4 150/203/4
f 149/202/4 148/201/4 150/204/4
f 150/203/4 146/196/4 151/205/4
f 145/195/4 149/199/4 152/206/4
f 149/199/4 150/203/4 152/206/4
f 150/207/4 151/208/4 153/209/4
f 152/206/4 150/203/4 153/210/4
f 151/205/4 154/211/4 155/212/4
f 153/209/4 151/208/4 155/213/4
f 155/212/4 154/211/4 156/214/4
f 157/215/4 158/216/4 159/217/4
f 159/217/4 158/216/4 160/218/4
f 160/218/4 158/216/4 161/219/4
f 153/210/4 155/212/4 162/220/4
f 155/213/4 156/221/4 163/222/4
f 162/220/4 155/212/4 163/223/4
f 159/217/4 160/218/4 164/224/4
f 163/222/4 156/221/4 164/225/4
f 156/214/4 159/217/4 164/224/4
f 164/224/4 160/218/4 165/226/4
f 165/226/4 160/218/4 166/227/4
f 163/223/4 164/224/4 167/228/4
f 164/224/4 165/226/4 167/228/4
f 167/228/4 165/226/4 168/229/4
f 165/230/4 166/231/4 169/232/4
f 168/229/4 165/226/4 169/233/4
f 166/227/4 170/234/4 171/235/4
f 169/232/4 166/231/4 171/236/4
f 171/235/4 170/234/4 172/237/4
f 167/228/4 168/229/4 173/238/4
f 174/239/4 167/228/4 173/238/4
f 168/240/4 169/232/4 175/241/4
f 173/238/4 168/229/4 175/242/4
f 169/243/4 171/244/4 176/245/4
f 175/241/4 169/232/4 176/246/4
f 171/236/4 172/247/4 177/248/4
f 176/245/4 171/244/4 177/249/4
f 172/237/4 178/250/4 179/251/4
f 177/248/4 172/247/4 179/252/4
f 179/251/4 178/250/4 180/253/4
f 174/239/4 173/238/4 181/254/4
f 181/254/4 173/238/4 182/255/4
f 175/242/4 176/256/4 183/257/4
f 176/246/4 177/248/4 184/258/4
f 183/257/4 176/256/4 184/259/4
f 177/249/4 179/260/4 185/261/4
f 184/258/4 177/248/4 185/262/4
f 179/252/4 180/263/4 186/264/4
f 185/261/4 179/260/4 186/265/4
f 180/253/4 187/266/4 188/267/4
f 186/264/4 180/263/4 188/268/4
f 188/267/4 187/266/4 189/269/4
f 184/259/4 185/270/4 190/271/4
f 185/262/4 186/264/4 191/272/4
f 190/271/4 185/270/4 191/273/4
f 186/265/4 188/274/4 192/275/4
f 191/272/4 186/264/4 192/276/4
f 188/268/4 189/277/4 193/278/4
f 192/275/4 188/274/4 193/279/4
f 189/269/4 194/280/4 195/281/4
f 193/278/4 189/277/4 195/282/4
f 195/281/4 194/280/4 196/283/4
f 191/273/4 192/284/4 197/285/4
f 192/276/4 193/278/4 198/286/4
f 197/285/4 192/284/4 198/287/4
f 193/279/4 195/288/4 199/289/4
f 198/286/4 193/278/4 199/290/4
f 195/282/4 196/291/4 200/292/4
f 199/289/4 195/288/4 200/293/4
f 196/283/4 201/294/4 202/295/4
f 200/292/4 196/291/4 202/296/4
f 198/287/4 199/297/4 203/298/4
f 199/290/4 200/292/4 204/299/4
f 203/298/4 199/297/4 204/300/4
f 200/293/4 202/301/4 205/302/4
f 204/299/4 200/292/4 205/303/4
f 202/295/4 201/294/4 206/304/4
f 205/302/4 202/301/4 206/305/4
f 204/300/4 205/306/4 207/307/4
f 205/306/4 206/304/4 207/307/4
f 206/304/4 201/294/4 208/308/4
f 207/307/4 206/304/4 208/308/4
f 209/309/5 210/310/5 211/311/5
f 212/312/5 210/310/5 209/309/5
f 213/313/5 214/314/5 215/315/5
f 216/316/5 214/314/5 213/313/5
f 217/317/5 218/318/5 219/319/5
f 220/320/5 218/318/5 217/317/5
f 221/321/5 222/322/5 223/323/5
f 224/324/5 222/322/5 221/321/5
f 225/325/5 226/326/5 227/327/5
f 228/328/5 226/326/5 225/325/5
f 229/329/5 230/330/5 231/331/5
f 232/332/5 230/330/5 229/329/5
f 233/333/5 234/334/5 235/335/5
f 236/336/5 234/334/5 233/333/5
f 237/337/5 238/338/5 239/339/5
f 240/340/5 238/338/5 237/337/5
f 241/341/5 242/342/5 243/343/5
f 244/344/5 242/342/5 241/341/5
f 245/345/5 246/346/5 247/347/5
f 248/348/5 246/346/5 245/345/5
f 249/349/6 250/350/6 251/351/6
f 251/351/6 250/350/6 252/352/6
f 253/353/6 254/354/6 255/355/6
f 255/355/6 254/354/6 256/356/6
f 257/357/6 258/358/6 259/359/6
f 259/359/6 258/358/6 260/360/6
f 261/361/6 262/362/6 263/363/6
f 263/363/6 262/362/6 264/364/6
f 265/365/6 266/366/6 267/367/6
f 267/367/6 266/366/6 268/368/6
f 269/369/6 270/370/6 271/371/6
f 271/371/6 270/370/6 272/372/6
f 273/373/6 274/374/6 275/375/6
f 275/375/6 274/374/6 276/376/6
f 277/377/6 278/378/6 279/379/6
f 279/379/6 278/378/6 280/380/6
f 281/381/6 282/382/6 283/383/6
f 283/383/6 282/382/6 284/384/6
f 285/385/6 286/386/6 287/387/6
f 287/387/6 286/386/6 288/388/6
