# Blender v2.77 (sub 0) OBJ File: ''
# www.blender.org
mtllib Arrow_Wood.mtl
o Arrow_Wood
v -0.179200 0.051200 0.012800
v -0.179200 0.025600 -0.012800
v -0.179200 0.025600 0.012800
v -0.179200 0.051200 -0.012800
v -0.179200 0.076800 0.012800
v -0.179200 0.076800 -0.012800
v -0.153600 0.025600 0.012800
v -0.153600 0.000000 -0.012800
v -0.153600 -0.000000 0.012800
v -0.153600 0.025600 -0.012800
v -0.153600 0.102400 0.012800
v -0.153600 0.076800 -0.012800
v -0.153600 0.076800 0.012800
v -0.153600 0.102400 -0.012800
v -0.076800 0.128000 0.012800
v -0.076800 0.102400 -0.012800
v -0.076800 0.102400 0.012800
v -0.076800 0.128000 -0.012800
v -0.051200 0.153600 0.012800
v -0.051200 0.128000 -0.012800
v -0.051200 0.128000 0.012800
v -0.051200 0.153600 -0.012800
v -0.025600 0.179200 0.012800
v -0.025600 0.153600 -0.012800
v -0.025600 0.153600 0.012800
v -0.025600 0.179200 -0.012800
v 0.000000 0.204800 0.012800
v 0.000000 0.179200 -0.012800
v 0.000000 0.179200 0.012800
v 0.000000 0.204800 -0.012800
v 0.025600 0.230400 0.012800
v 0.025600 0.204800 -0.012800
v 0.025600 0.204800 0.012800
v 0.025600 0.230400 -0.012800
v 0.051200 0.256000 0.012800
v 0.051200 0.230400 -0.012800
v 0.051200 0.230400 0.012800
v 0.051200 0.256000 -0.012800
v 0.076800 0.281600 0.012800
v 0.076800 0.256000 -0.012800
v 0.076800 0.256000 0.012800
v 0.076800 0.281600 -0.012800
v 0.076800 0.332800 0.012800
v 0.076800 0.307200 -0.012800
v 0.076800 0.307200 0.012800
v 0.076800 0.332800 -0.012800
v 0.102400 0.307200 0.012800
v 0.102400 0.281600 -0.012800
v 0.102400 0.281600 0.012800
v 0.102400 0.307200 -0.012800
v 0.128000 0.358400 0.012800
v 0.128000 0.332800 -0.012800
v 0.128000 0.332800 0.012800
v 0.128000 0.358400 -0.012800
v -0.102400 -0.000000 0.012800
v -0.102400 0.000000 -0.012800
v -0.102400 0.025600 0.012800
v -0.102400 0.025600 -0.012800
v -0.076800 0.025600 0.012800
v -0.076800 0.025600 -0.012800
v -0.076800 0.051200 0.012800
v -0.076800 0.051200 -0.012800
v -0.076800 0.076800 0.012800
v -0.076800 0.076800 -0.012800
v -0.051200 0.076800 0.012800
v -0.051200 0.076800 -0.012800
v -0.051200 0.102400 0.012800
v -0.051200 0.102400 -0.012800
v -0.025600 0.102400 0.012800
v -0.025600 0.102400 -0.012800
v -0.025600 0.128000 0.012800
v -0.025600 0.128000 -0.012800
v 0.000000 0.128000 0.012800
v 0.000000 0.128000 -0.012800
v 0.000000 0.153600 0.012800
v 0.000000 0.153600 -0.012800
v 0.025600 0.153600 0.012800
v 0.025600 0.153600 -0.012800
v 0.025600 0.179200 0.012800
v 0.025600 0.179200 -0.012800
v 0.051200 0.179200 0.012800
v 0.051200 0.179200 -0.012800
v 0.051200 0.204800 0.012800
v 0.051200 0.204800 -0.012800
v 0.076800 0.204800 0.012800
v 0.076800 0.204800 -0.012800
v 0.076800 0.230400 0.012800
v 0.076800 0.230400 -0.012800
v 0.102400 0.230400 0.012800
v 0.102400 0.230400 -0.012800
v 0.102400 0.256000 0.012800
v 0.102400 0.256000 -0.012800
v 0.153600 0.256000 0.012800
v 0.153600 0.256000 -0.012800
v 0.153600 0.307200 0.012800
v 0.153600 0.307200 -0.012800
v 0.179200 0.307200 0.012800
v 0.179200 0.307200 -0.012800
v 0.179200 0.332800 0.012800
v 0.179200 0.332800 -0.012800
v 0.179200 0.358400 0.012800
v 0.179200 0.358400 -0.012800
v -0.153600 0.025600 0.012800
v -0.179200 0.051200 0.012800
v -0.179200 0.025600 0.012800
v -0.153600 0.076800 0.012800
v -0.179200 0.076800 0.012800
v -0.128000 0.025600 0.012800
v -0.153600 -0.000000 0.012800
v -0.128000 0.051200 0.012800
v -0.153600 0.102400 0.012800
v -0.128000 0.076800 0.012800
v -0.102400 -0.000000 0.012800
v -0.102400 0.025600 0.012800
v -0.102400 0.051200 0.012800
v -0.102400 0.076800 0.012800
v -0.102400 0.102400 0.012800
v -0.076800 0.025600 0.012800
v -0.076800 0.051200 0.012800
v -0.076800 0.076800 0.012800
v -0.076800 0.102400 0.012800
v -0.051200 0.076800 0.012800
v -0.051200 0.102400 0.012800
v -0.076800 0.128000 0.012800
v -0.051200 0.128000 0.012800
v -0.025600 0.102400 0.012800
v -0.025600 0.128000 0.012800
v -0.051200 0.153600 0.012800
v -0.025600 0.153600 0.012800
v 0.000000 0.128000 0.012800
v 0.000000 0.153600 0.012800
v -0.025600 0.179200 0.012800
v 0.000000 0.179200 0.012800
v 0.025600 0.153600 0.012800
v 0.025600 0.179200 0.012800
v 0.000000 0.204800 0.012800
v 0.025600 0.204800 0.012800
v 0.051200 0.179200 0.012800
v 0.051200 0.204800 0.012800
v 0.025600 0.230400 0.012800
v 0.051200 0.230400 0.012800
v 0.076800 0.204800 0.012800
v 0.076800 0.230400 0.012800
v 0.051200 0.256000 0.012800
v 0.076800 0.256000 0.012800
v 0.102400 0.230400 0.012800
v 0.102400 0.256000 0.012800
v 0.076800 0.281600 0.012800
v 0.102400 0.281600 0.012800
v 0.102400 0.307200 0.012800
v 0.076800 0.332800 0.012800
v 0.076800 0.307200 0.012800
v 0.128000 0.256000 0.012800
v 0.128000 0.281600 0.012800
v 0.128000 0.307200 0.012800
v 0.128000 0.332800 0.012800
v 0.153600 0.256000 0.012800
v 0.153600 0.307200 0.012800
v 0.128000 0.358400 0.012800
v 0.153600 0.332800 0.012800
v 0.179200 0.307200 0.012800
v 0.179200 0.332800 0.012800
v 0.179200 0.358400 0.012800
v -0.179200 0.025600 -0.012800
v -0.179200 0.051200 -0.012800
v -0.153600 0.025600 -0.012800
v -0.179200 0.076800 -0.012800
v -0.153600 0.076800 -0.012800
v -0.153600 0.000000 -0.012800
v -0.128000 0.025600 -0.012800
v -0.153600 0.102400 -0.012800
v -0.128000 0.051200 -0.012800
v -0.128000 0.076800 -0.012800
v -0.102400 0.000000 -0.012800
v -0.102400 0.025600 -0.012800
v -0.102400 0.051200 -0.012800
v -0.102400 0.076800 -0.012800
v -0.102400 0.102400 -0.012800
v -0.076800 0.025600 -0.012800
v -0.076800 0.051200 -0.012800
v -0.076800 0.076800 -0.012800
v -0.076800 0.102400 -0.012800
v -0.051200 0.076800 -0.012800
v -0.076800 0.128000 -0.012800
v -0.051200 0.102400 -0.012800
v -0.051200 0.128000 -0.012800
v -0.025600 0.102400 -0.012800
v -0.051200 0.153600 -0.012800
v -0.025600 0.128000 -0.012800
v -0.025600 0.153600 -0.012800
v 0.000000 0.128000 -0.012800
v -0.025600 0.179200 -0.012800
v 0.000000 0.153600 -0.012800
v 0.000000 0.179200 -0.012800
v 0.025600 0.153600 -0.012800
v 0.000000 0.204800 -0.012800
v 0.025600 0.179200 -0.012800
v 0.025600 0.204800 -0.012800
v 0.051200 0.179200 -0.012800
v 0.025600 0.230400 -0.012800
v 0.051200 0.204800 -0.012800
v 0.051200 0.230400 -0.012800
v 0.076800 0.204800 -0.012800
v 0.051200 0.256000 -0.012800
v 0.076800 0.230400 -0.012800
v 0.076800 0.256000 -0.012800
v 0.102400 0.230400 -0.012800
v 0.076800 0.281600 -0.012800
v 0.102400 0.256000 -0.012800
v 0.102400 0.281600 -0.012800
v 0.076800 0.307200 -0.012800
v 0.076800 0.332800 -0.012800
v 0.102400 0.307200 -0.012800
v 0.128000 0.256000 -0.012800
v 0.128000 0.281600 -0.012800
v 0.128000 0.307200 -0.012800
v 0.128000 0.332800 -0.012800
v 0.153600 0.256000 -0.012800
v 0.128000 0.358400 -0.012800
v 0.153600 0.307200 -0.012800
v 0.153600 0.332800 -0.012800
v 0.179200 0.307200 -0.012800
v 0.179200 0.332800 -0.012800
v 0.179200 0.358400 -0.012800
v -0.153600 0.000000 -0.012800
v -0.102400 -0.000000 0.012800
v -0.153600 -0.000000 0.012800
v -0.102400 0.000000 -0.012800
v -0.179200 0.025600 -0.012800
v -0.153600 0.025600 0.012800
v -0.179200 0.025600 0.012800
v -0.153600 0.025600 -0.012800
v -0.102400 0.025600 -0.012800
v -0.076800 0.025600 0.012800
v -0.102400 0.025600 0.012800
v -0.076800 0.025600 -0.012800
v -0.076800 0.076800 -0.012800
v -0.051200 0.076800 0.012800
v -0.076800 0.076800 0.012800
v -0.051200 0.076800 -0.012800
v -0.051200 0.102400 -0.012800
v -0.025600 0.102400 0.012800
v -0.051200 0.102400 0.012800
v -0.025600 0.102400 -0.012800
v -0.025600 0.128000 -0.012800
v 0.000000 0.128000 0.012800
v -0.025600 0.128000 0.012800
v 0.000000 0.128000 -0.012800
v 0.000000 0.153600 -0.012800
v 0.025600 0.153600 0.012800
v 0.000000 0.153600 0.012800
v 0.025600 0.153600 -0.012800
v 0.025600 0.179200 -0.012800
v 0.051200 0.179200 0.012800
v 0.025600 0.179200 0.012800
v 0.051200 0.179200 -0.012800
v 0.051200 0.204800 -0.012800
v 0.076800 0.204800 0.012800
v 0.051200 0.204800 0.012800
v 0.076800 0.204800 -0.012800
v 0.076800 0.230400 -0.012800
v 0.102400 0.230400 0.012800
v 0.076800 0.230400 0.012800
v 0.102400 0.230400 -0.012800
v 0.102400 0.256000 -0.012800
v 0.128000 0.256000 0.012800
v 0.102400 0.256000 0.012800
v 0.128000 0.256000 -0.012800
v 0.153600 0.256000 0.012800
v 0.153600 0.256000 -0.012800
v 0.076800 0.307200 -0.012800
v 0.102400 0.307200 0.012800
v 0.076800 0.307200 0.012800
v 0.102400 0.307200 -0.012800
v 0.153600 0.307200 -0.012800
v 0.179200 0.307200 0.012800
v 0.153600 0.307200 0.012800
v 0.179200 0.307200 -0.012800
v -0.179200 0.076800 0.012800
v -0.153600 0.076800 0.012800
v -0.179200 0.076800 -0.012800
v -0.153600 0.076800 -0.012800
v -0.153600 0.102400 0.012800
v -0.102400 0.102400 0.012800
v -0.153600 0.102400 -0.012800
v -0.076800 0.102400 0.012800
v -0.102400 0.102400 -0.012800
v -0.076800 0.102400 -0.012800
v -0.076800 0.128000 0.012800
v -0.051200 0.128000 0.012800
v -0.076800 0.128000 -0.012800
v -0.051200 0.128000 -0.012800
v -0.051200 0.153600 0.012800
v -0.025600 0.153600 0.012800
v -0.051200 0.153600 -0.012800
v -0.025600 0.153600 -0.012800
v -0.025600 0.179200 0.012800
v 0.000000 0.179200 0.012800
v -0.025600 0.179200 -0.012800
v 0.000000 0.179200 -0.012800
v 0.000000 0.204800 0.012800
v 0.025600 0.204800 0.012800
v 0.000000 0.204800 -0.012800
v 0.025600 0.204800 -0.012800
v 0.025600 0.230400 0.012800
v 0.051200 0.230400 0.012800
v 0.025600 0.230400 -0.012800
v 0.051200 0.230400 -0.012800
v 0.051200 0.256000 0.012800
v 0.076800 0.256000 0.012800
v 0.051200 0.256000 -0.012800
v 0.076800 0.256000 -0.012800
v 0.076800 0.281600 0.012800
v 0.102400 0.281600 0.012800
v 0.076800 0.281600 -0.012800
v 0.102400 0.281600 -0.012800
v 0.076800 0.332800 0.012800
v 0.128000 0.332800 0.012800
v 0.076800 0.332800 -0.012800
v 0.128000 0.332800 -0.012800
v 0.128000 0.358400 0.012800
v 0.179200 0.358400 0.012800
v 0.128000 0.358400 -0.012800
v 0.179200 0.358400 -0.012800
vt 0.9785 0.5000
vt 0.9785 0.5000
vt 0.9785 0.5000
vt 0.9785 0.5000
vt 0.9668 0.5000
vt 0.9668 0.5000
vt 0.9668 0.5000
vt 0.9668 0.5000
vt 0.9785 0.5000
vt 0.9785 0.5000
vt 0.9785 0.5000
vt 0.9785 0.5000
vt 0.9668 0.5000
vt 0.9668 0.5000
vt 0.9668 0.5000
vt 0.9668 0.5000
vt 0.3691 0.5000
vt 0.3691 0.5000
vt 0.3691 0.5000
vt 0.3691 0.5000
vt 0.3691 0.5000
vt 0.3691 0.5000
vt 0.3691 0.5000
vt 0.3691 0.5000
vt 0.3691 0.5000
vt 0.3691 0.5000
vt 0.3691 0.5000
vt 0.3691 0.5000
vt 0.3691 0.5000
vt 0.3691 0.5000
vt 0.3691 0.5000
vt 0.3691 0.5000
vt 0.3691 0.5000
vt 0.3691 0.5000
vt 0.3691 0.5000
vt 0.3691 0.5000
vt 0.3691 0.5000
vt 0.3691 0.5000
vt 0.3691 0.5000
vt 0.3691 0.5000
vt 0.3691 0.5000
vt 0.3691 0.5000
vt 0.3691 0.5000
vt 0.3691 0.5000
vt 0.9668 0.5000
vt 0.9668 0.5000
vt 0.9668 0.5000
vt 0.9668 0.5000
vt 0.3691 0.5000
vt 0.3691 0.5000
vt 0.3691 0.5000
vt 0.3691 0.5000
vt 0.9668 0.5000
vt 0.9668 0.5000
vt 0.9668 0.5000
vt 0.9668 0.5000
vt 0.9785 0.5000
vt 0.9785 0.5000
vt 0.9785 0.5000
vt 0.9785 0.5000
vt 0.9785 0.5000
vt 0.9785 0.5000
vt 0.9785 0.5000
vt 0.9785 0.5000
vt 0.9668 0.5000
vt 0.9668 0.5000
vt 0.9668 0.5000
vt 0.9668 0.5000
vt 0.5371 0.5000
vt 0.5371 0.5000
vt 0.5371 0.5000
vt 0.5371 0.5000
vt 0.5371 0.5000
vt 0.5371 0.5000
vt 0.5371 0.5000
vt 0.5371 0.5000
vt 0.5371 0.5000
vt 0.5371 0.5000
vt 0.5371 0.5000
vt 0.5371 0.5000
vt 0.5371 0.5000
vt 0.5371 0.5000
vt 0.5371 0.5000
vt 0.5371 0.5000
vt 0.5371 0.5000
vt 0.5371 0.5000
vt 0.5371 0.5000
vt 0.5371 0.5000
vt 0.5371 0.5000
vt 0.5371 0.5000
vt 0.5371 0.5000
vt 0.5371 0.5000
vt 0.5371 0.5000
vt 0.5371 0.5000
vt 0.5371 0.5000
vt 0.5371 0.5000
vt 0.9785 0.5000
vt 0.9785 0.5000
vt 0.9785 0.5000
vt 0.9785 0.5000
vt 0.9785 0.5000
vt 0.9785 0.5000
vt 0.9785 0.5000
vt 0.9785 0.5000
vt 0.9668 0.5000
vt 0.9668 0.5000
vt 0.9668 0.5000
vt 0.9668 0.5000
vt 0.9785 0.5000
vt 0.9785 0.5000
vt 0.9785 0.5000
vt 0.9668 0.5000
vt 0.9668 0.5000
vt 0.9668 0.5000
vt 0.9785 0.5000
vt 0.9785 0.5000
vt 0.9668 0.5000
vt 0.9668 0.5000
vt 0.9785 0.5000
vt 0.9668 0.5000
vt 0.9785 0.5000
vt 0.9668 0.5000
vt 0.9668 0.5000
vt 0.9785 0.5000
vt 0.9785 0.5000
vt 0.9785 0.5000
vt 0.9668 0.5000
vt 0.9668 0.5000
vt 0.9785 0.5000
vt 0.9668 0.5000
vt 0.9785 0.5000
vt 0.9668 0.5000
vt 0.9785 0.5000
vt 0.3691 0.5000
vt 0.3691 0.5000
vt 0.3691 0.5000
vt 0.9668 0.5000
vt 0.3691 0.5000
vt 0.5371 0.5000
vt 0.5371 0.5000
vt 0.5371 0.5000
vt 0.3691 0.5000
vt 0.3691 0.5000
vt 0.5371 0.5000
vt 0.3691 0.5000
vt 0.5371 0.5000
vt 0.5371 0.5000
vt 0.3691 0.5000
vt 0.3691 0.5000
vt 0.5371 0.5000
vt 0.3691 0.5000
vt 0.5371 0.5000
vt 0.5371 0.5000
vt 0.3691 0.5000
vt 0.3691 0.5000
vt 0.5371 0.5000
vt 0.3691 0.5000
vt 0.5371 0.5000
vt 0.5371 0.5000
vt 0.3691 0.5000
vt 0.3691 0.5000
vt 0.5371 0.5000
vt 0.3691 0.5000
vt 0.5371 0.5000
vt 0.5371 0.5000
vt 0.3691 0.5000
vt 0.3691 0.5000
vt 0.5371 0.5000
vt 0.3691 0.5000
vt 0.5371 0.5000
vt 0.5371 0.5000
vt 0.3691 0.5000
vt 0.3691 0.5000
vt 0.5371 0.5000
vt 0.3691 0.5000
vt 0.5371 0.5000
vt 0.5371 0.5000
vt 0.3691 0.5000
vt 0.3691 0.5000
vt 0.5371 0.5000
vt 0.3691 0.5000
vt 0.9668 0.5000
vt 0.9668 0.5000
vt 0.9668 0.5000
vt 0.5371 0.5000
vt 0.5371 0.5000
vt 0.3691 0.5000
vt 0.3691 0.5000
vt 0.5371 0.5000
vt 0.9668 0.5000
vt 0.3691 0.5000
vt 0.9668 0.5000
vt 0.9785 0.5000
vt 0.9785 0.5000
vt 0.9785 0.5000
vt 0.9785 0.5000
vt 0.9668 0.5000
vt 0.9668 0.5000
vt 0.9785 0.5000
vt 0.9668 0.5000
vt 0.9785 0.5000
vt 0.9785 0.5000
vt 0.9668 0.5000
vt 0.9785 0.5000
vt 0.9668 0.5000
vt 0.9785 0.5000
vt 0.9785 0.5000
vt 0.9785 0.5000
vt 0.9668 0.5000
vt 0.9668 0.5000
vt 0.9668 0.5000
vt 0.9785 0.5000
vt 0.9785 0.5000
vt 0.9668 0.5000
vt 0.9668 0.5000
vt 0.9785 0.5000
vt 0.9668 0.5000
vt 0.9785 0.5000
vt 0.9668 0.5000
vt 0.9668 0.5000
vt 0.9785 0.5000
vt 0.9785 0.5000
vt 0.9785 0.5000
vt 0.9668 0.5000
vt 0.9668 0.5000
vt 0.9785 0.5000
vt 0.9668 0.5000
vt 0.9785 0.5000
vt 0.9668 0.5000
vt 0.9785 0.5000
vt 0.3691 0.5000
vt 0.3691 0.5000
vt 0.3691 0.5000
vt 0.9668 0.5000
vt 0.3691 0.5000
vt 0.5371 0.5000
vt 0.5371 0.5000
vt 0.5371 0.5000
vt 0.3691 0.5000
vt 0.3691 0.5000
vt 0.5371 0.5000
vt 0.3691 0.5000
vt 0.5371 0.5000
vt 0.5371 0.5000
vt 0.3691 0.5000
vt 0.3691 0.5000
vt 0.5371 0.5000
vt 0.3691 0.5000
vt 0.5371 0.5000
vt 0.5371 0.5000
vt 0.3691 0.5000
vt 0.3691 0.5000
vt 0.5371 0.5000
vt 0.3691 0.5000
vt 0.5371 0.5000
vt 0.5371 0.5000
vt 0.3691 0.5000
vt 0.3691 0.5000
vt 0.5371 0.5000
vt 0.3691 0.5000
vt 0.5371 0.5000
vt 0.5371 0.5000
vt 0.3691 0.5000
vt 0.3691 0.5000
vt 0.5371 0.5000
vt 0.3691 0.5000
vt 0.5371 0.5000
vt 0.5371 0.5000
vt 0.3691 0.5000
vt 0.3691 0.5000
vt 0.5371 0.5000
vt 0.3691 0.5000
vt 0.5371 0.5000
vt 0.5371 0.5000
vt 0.3691 0.5000
vt 0.3691 0.5000
vt 0.5371 0.5000
vt 0.3691 0.5000
vt 0.9668 0.5000
vt 0.9668 0.5000
vt 0.9668 0.5000
vt 0.5371 0.5000
vt 0.5371 0.5000
vt 0.3691 0.5000
vt 0.3691 0.5000
vt 0.5371 0.5000
vt 0.9668 0.5000
vt 0.3691 0.5000
vt 0.9668 0.5000
vt 0.9785 0.5000
vt 0.9785 0.5000
vt 0.9785 0.5000
vt 0.9785 0.5000
vt 0.9668 0.5000
vt 0.9668 0.5000
vt 0.9785 0.5000
vt 0.9668 0.5000
vt 0.9785 0.5000
vt 0.9785 0.5000
vt 0.9668 0.5000
vt 0.9785 0.5000
vt 0.9668 0.5000
vt 0.9785 0.5000
vt 0.9785 0.5000
vt 0.9785 0.5000
vt 0.9785 0.5000
vt 0.9785 0.5000
vt 0.9785 0.5000
vt 0.9785 0.5000
vt 0.9785 0.5000
vt 0.9785 0.5000
vt 0.9785 0.5000
vt 0.9785 0.5000
vt 0.9785 0.5000
vt 0.5371 0.5000
vt 0.5371 0.5000
vt 0.5371 0.5000
vt 0.5371 0.5000
vt 0.5371 0.5000
vt 0.5371 0.5000
vt 0.5371 0.5000
vt 0.5371 0.5000
vt 0.5371 0.5000
vt 0.5371 0.5000
vt 0.5371 0.5000
vt 0.5371 0.5000
vt 0.5371 0.5000
vt 0.5371 0.5000
vt 0.5371 0.5000
vt 0.5371 0.5000
vt 0.5371 0.5000
vt 0.5371 0.5000
vt 0.5371 0.5000
vt 0.5371 0.5000
vt 0.5371 0.5000
vt 0.5371 0.5000
vt 0.5371 0.5000
vt 0.5371 0.5000
vt 0.5371 0.5000
vt 0.5371 0.5000
vt 0.5371 0.5000
vt 0.5371 0.5000
vt 0.5371 0.5000
vt 0.5371 0.5000
vt 0.5371 0.5000
vt 0.9785 0.5000
vt 0.9785 0.5000
vt 0.9785 0.5000
vt 0.5371 0.5000
vt 0.9785 0.5000
vt 0.9668 0.5000
vt 0.9668 0.5000
vt 0.9668 0.5000
vt 0.9668 0.5000
vt 0.9785 0.5000
vt 0.9785 0.5000
vt 0.9785 0.5000
vt 0.9785 0.5000
vt 0.9668 0.5000
vt 0.9668 0.5000
vt 0.9668 0.5000
vt 0.9668 0.5000
vt 0.9668 0.5000
vt 0.9668 0.5000
vt 0.9668 0.5000
vt 0.3691 0.5000
vt 0.3691 0.5000
vt 0.3691 0.5000
vt 0.9668 0.5000
vt 0.3691 0.5000
vt 0.3691 0.5000
vt 0.3691 0.5000
vt 0.3691 0.5000
vt 0.3691 0.5000
vt 0.3691 0.5000
vt 0.3691 0.5000
vt 0.3691 0.5000
vt 0.3691 0.5000
vt 0.3691 0.5000
vt 0.3691 0.5000
vt 0.3691 0.5000
vt 0.3691 0.5000
vt 0.3691 0.5000
vt 0.3691 0.5000
vt 0.3691 0.5000
vt 0.3691 0.5000
vt 0.3691 0.5000
vt 0.3691 0.5000
vt 0.3691 0.5000
vt 0.3691 0.5000
vt 0.3691 0.5000
vt 0.3691 0.5000
vt 0.3691 0.5000
vt 0.3691 0.5000
vt 0.3691 0.5000
vt 0.3691 0.5000
vt 0.3691 0.5000
vt 0.3691 0.5000
vt 0.9668 0.5000
vt 0.9668 0.5000
vt 0.9668 0.5000
vt 0.9668 0.5000
vt 0.9668 0.5000
vt 0.9668 0.5000
vt 0.9668 0.5000
vt 0.9668 0.5000
vn -1.0000 0.0000 0.0000
vn 1.0000 0.0000 0.0000
vn 0.0000 -0.0000 1.0000
vn 0.0000 0.0000 -1.0000
vn 0.0000 -1.0000 -0.0000
vn 0.0000 1.0000 0.0000
usemtl palette
s 1
f 1/1/1 2/2/1 3/3/1
f 4/4/1 2/2/1 1/1/1
f 5/5/1 4/6/1 1/7/1
f 6/8/1 4/6/1 5/5/1
f 7/9/1 8/10/1 9/11/1
f 10/12/1 8/10/1 7/9/1
f 11/13/1 12/14/1 13/15/1
f 14/16/1 12/14/1 11/13/1
f 15/17/1 16/18/1 17/19/1
f 18/20/1 16/18/1 15/17/1
f 19/21/1 20/22/1 21/23/1
f 22/24/1 20/22/1 19/21/1
f 23/25/1 24/26/1 25/27/1
f 26/28/1 24/26/1 23/25/1
f 27/29/1 28/30/1 29/31/1
f 30/32/1 28/30/1 27/29/1
f 31/33/1 32/34/1 33/35/1
f 34/36/1 32/34/1 31/33/1
f 35/37/1 36/38/1 37/39/1
f 38/40/1 36/38/1 35/37/1
f 39/41/1 40/42/1 41/43/1
f 42/44/1 40/42/1 39/41/1
f 43/45/1 44/46/1 45/47/1
f 46/48/1 44/46/1 43/45/1
f 47/49/1 48/50/1 49/51/1
f 50/52/1 48/50/1 47/49/1
f 51/53/1 52/54/1 53/55/1
f 54/56/1 52/54/1 51/53/1
f 55/57/2 56/58/2 57/59/2
f 57/59/2 56/58/2 58/60/2
f 59/61/2 60/62/2 61/63/2
f 61/63/2 60/62/2 62/64/2
f 61/65/2 62/66/2 63/67/2
f 63/67/2 62/66/2 64/68/2
f 65/69/2 66/70/2 67/71/2
f 67/71/2 66/70/2 68/72/2
f 69/73/2 70/74/2 71/75/2
f 71/75/2 70/74/2 72/76/2
f 73/77/2 74/78/2 75/79/2
f 75/79/2 74/78/2 76/80/2
f 77/81/2 78/82/2 79/83/2
f 79/83/2 78/82/2 80/84/2
f 81/85/2 82/86/2 83/87/2
f 83/87/2 82/86/2 84/88/2
f 85/89/2 86/90/2 87/91/2
f 87/91/2 86/90/2 88/92/2
f 89/93/2 90/94/2 91/95/2
f 91/95/2 90/94/2 92/96/2
f 93/97/2 94/98/2 95/99/2
f 95/99/2 94/98/2 96/100/2
f 97/101/2 98/102/2 99/103/2
f 99/103/2 98/102/2 100/104/2
f 99/105/2 100/106/2 101/107/2
f 101/107/2 100/106/2 102/108/2
f 103/109/3 104/110/3 105/111/3
f 106/112/3 107/113/3 104/114/3
f 108/115/3 103/109/3 109/116/3
f 108/115/3 104/110/3 103/109/3
f 110/117/3 111/118/3 106/112/3
f 110/119/3 104/110/3 108/115/3
f 110/117/3 106/112/3 104/114/3
f 112/120/3 111/118/3 110/117/3
f 113/121/3 108/115/3 109/116/3
f 114/122/3 110/117/3 108/123/3
f 114/124/3 108/115/3 113/121/3
f 115/125/3 112/126/3 110/119/3
f 115/127/3 110/117/3 114/122/3
f 116/128/3 111/118/3 112/120/3
f 116/129/3 112/126/3 115/125/3
f 117/130/3 111/118/3 116/128/3
f 118/131/3 115/125/3 114/124/3
f 119/132/3 116/128/3 115/127/3
f 119/133/3 115/125/3 118/131/3
f 120/134/3 117/135/3 116/136/3
f 120/137/3 116/128/3 119/132/3
f 121/138/3 117/135/3 120/134/3
f 122/139/3 121/140/3 120/141/3
f 123/142/3 124/143/3 121/138/3
f 123/144/3 121/140/3 122/139/3
f 125/145/3 124/143/3 123/142/3
f 126/146/3 125/147/3 123/144/3
f 127/148/3 128/149/3 125/145/3
f 127/150/3 125/147/3 126/146/3
f 129/151/3 128/149/3 127/148/3
f 130/152/3 129/153/3 127/150/3
f 131/154/3 132/155/3 129/151/3
f 131/156/3 129/153/3 130/152/3
f 133/157/3 132/155/3 131/154/3
f 134/158/3 133/159/3 131/156/3
f 135/160/3 136/161/3 133/157/3
f 135/162/3 133/159/3 134/158/3
f 137/163/3 136/161/3 135/160/3
f 138/164/3 137/165/3 135/162/3
f 139/166/3 140/167/3 137/163/3
f 139/168/3 137/165/3 138/164/3
f 141/169/3 140/167/3 139/166/3
f 142/170/3 141/171/3 139/168/3
f 143/172/3 144/173/3 141/169/3
f 143/174/3 141/171/3 142/170/3
f 145/175/3 144/173/3 143/172/3
f 146/176/3 145/177/3 143/174/3
f 147/178/3 148/179/3 145/175/3
f 147/180/3 145/177/3 146/176/3
f 149/181/3 148/179/3 147/178/3
f 150/182/3 151/183/3 152/184/3
f 153/185/3 149/186/3 147/180/3
f 154/187/3 150/188/3 149/181/3
f 154/189/3 149/186/3 153/185/3
f 155/190/3 151/183/3 150/182/3
f 155/191/3 150/188/3 154/187/3
f 156/192/3 151/183/3 155/190/3
f 157/193/3 154/194/3 153/195/3
f 157/193/3 155/196/3 154/194/3
f 158/197/3 159/198/3 156/192/3
f 158/199/3 155/196/3 157/193/3
f 158/197/3 156/192/3 155/190/3
f 160/200/3 159/198/3 158/197/3
f 161/201/3 160/202/3 158/199/3
f 162/203/3 159/198/3 160/200/3
f 162/204/3 160/202/3 161/201/3
f 163/205/3 159/198/3 162/203/3
f 164/206/4 165/207/4 166/208/4
f 165/209/4 167/210/4 168/211/4
f 169/212/4 166/208/4 170/213/4
f 166/208/4 165/207/4 170/213/4
f 168/211/4 171/214/4 172/215/4
f 170/213/4 165/207/4 172/216/4
f 165/209/4 168/211/4 172/215/4
f 172/215/4 171/214/4 173/217/4
f 169/212/4 170/213/4 174/218/4
f 170/219/4 172/215/4 175/220/4
f 174/218/4 170/213/4 175/221/4
f 172/216/4 173/222/4 176/223/4
f 175/220/4 172/215/4 176/224/4
f 173/217/4 171/214/4 177/225/4
f 176/223/4 173/222/4 177/226/4
f 177/225/4 171/214/4 178/227/4
f 175/221/4 176/223/4 179/228/4
f 176/224/4 177/225/4 180/229/4
f 179/228/4 176/223/4 180/230/4
f 177/231/4 178/232/4 181/233/4
f 180/229/4 177/225/4 181/234/4
f 181/233/4 178/232/4 182/235/4
f 181/236/4 182/237/4 183/238/4
f 182/235/4 184/239/4 185/240/4
f 183/238/4 182/237/4 185/241/4
f 185/240/4 184/239/4 186/242/4
f 185/241/4 186/243/4 187/244/4
f 186/242/4 188/245/4 189/246/4
f 187/244/4 186/243/4 189/247/4
f 189/246/4 188/245/4 190/248/4
f 189/247/4 190/249/4 191/250/4
f 190/248/4 192/251/4 193/252/4
f 191/250/4 190/249/4 193/253/4
f 193/252/4 192/251/4 194/254/4
f 193/253/4 194/255/4 195/256/4
f 194/254/4 196/257/4 197/258/4
f 195/256/4 194/255/4 197/259/4
f 197/258/4 196/257/4 198/260/4
f 197/259/4 198/261/4 199/262/4
f 198/260/4 200/263/4 201/264/4
f 199/262/4 198/261/4 201/265/4
f 201/264/4 200/263/4 202/266/4
f 201/265/4 202/267/4 203/268/4
f 202/266/4 204/269/4 205/270/4
f 203/268/4 202/267/4 205/271/4
f 205/270/4 204/269/4 206/272/4
f 205/271/4 206/273/4 207/274/4
f 206/272/4 208/275/4 209/276/4
f 207/274/4 206/273/4 209/277/4
f 209/276/4 208/275/4 210/278/4
f 211/279/4 212/280/4 213/281/4
f 209/277/4 210/282/4 214/283/4
f 210/278/4 213/284/4 215/285/4
f 214/283/4 210/282/4 215/286/4
f 213/281/4 212/280/4 216/287/4
f 215/285/4 213/284/4 216/288/4
f 216/287/4 212/280/4 217/289/4
f 214/290/4 215/291/4 218/292/4
f 215/291/4 216/293/4 218/292/4
f 217/289/4 219/294/4 220/295/4
f 218/292/4 216/293/4 220/296/4
f 216/287/4 217/289/4 220/295/4
f 220/295/4 219/294/4 221/297/4
f 220/296/4 221/298/4 222/299/4
f 221/297/4 219/294/4 223/300/4
f 222/299/4 221/298/4 223/301/4
f 223/300/4 219/294/4 224/302/4
f 225/303/5 226/304/5 227/305/5
f 228/306/5 226/304/5 225/303/5
f 229/307/5 230/308/5 231/309/5
f 232/310/5 230/308/5 229/307/5
f 233/311/5 234/312/5 235/313/5
f 236/314/5 234/312/5 233/311/5
f 237/315/5 238/316/5 239/317/5
f 240/318/5 238/316/5 237/315/5
f 241/319/5 242/320/5 243/321/5
f 244/322/5 242/320/5 241/319/5
f 245/323/5 246/324/5 247/325/5
f 248/326/5 246/324/5 245/323/5
f 249/327/5 250/328/5 251/329/5
f 252/330/5 250/328/5 249/327/5
f 253/331/5 254/332/5 255/333/5
f 256/334/5 254/332/5 253/331/5
f 257/335/5 258/336/5 259/337/5
f 260/338/5 258/336/5 257/335/5
f 261/339/5 262/340/5 263/341/5
f 264/342/5 262/340/5 261/339/5
f 265/343/5 266/344/5 267/345/5
f 268/346/5 269/347/5 266/348/5
f 268/349/5 266/344/5 265/343/5
f 270/350/5 269/347/5 268/346/5
f 271/351/5 272/352/5 273/353/5
f 274/354/5 272/352/5 271/351/5
f 275/355/5 276/356/5 277/357/5
f 278/358/5 276/356/5 275/355/5
f 279/359/6 280/360/6 281/361/6
f 281/361/6 280/360/6 282/362/6
f 283/363/6 284/364/6 285/365/6
f 284/366/6 286/367/6 287/368/6
f 285/365/6 284/364/6 287/369/6
f 287/368/6 286/367/6 288/370/6
f 289/371/6 290/372/6 291/373/6
f 291/373/6 290/372/6 292/374/6
f 293/375/6 294/376/6 295/377/6
f 295/377/6 294/376/6 296/378/6
f 297/379/6 298/380/6 299/381/6
f 299/381/6 298/380/6 300/382/6
f 301/383/6 302/384/6 303/385/6
f 303/385/6 302/384/6 304/386/6
f 305/387/6 306/388/6 307/389/6
f 307/389/6 306/388/6 308/390/6
f 309/391/6 310/392/6 311/393/6
f 311/393/6 310/392/6 312/394/6
f 313/395/6 314/396/6 315/397/6
f 315/397/6 314/396/6 316/398/6
f 317/399/6 318/400/6 319/401/6
f 319/401/6 318/400/6 320/402/6
f 321/403/6 322/404/6 323/405/6
f 323/405/6 322/404/6 324/406/6
