# Blender v2.77 (sub 0) OBJ File: ''
# www.blender.org
mtllib Dagger_Jade.mtl
o Dagger_Jade
v -0.137500 0.075000 0.012500
v -0.137500 0.000000 -0.012500
v -0.137500 -0.000000 0.012500
v -0.137500 0.075000 -0.012500
v -0.112500 0.175000 0.012500
v -0.112500 0.125000 -0.012500
v -0.112500 0.125000 0.012500
v -0.112500 0.175000 -0.012500
v -0.087500 0.100000 0.012500
v -0.087500 0.075000 -0.012500
v -0.087500 0.075000 0.012500
v -0.087500 0.100000 -0.012500
v -0.062500 0.125000 0.012500
v -0.062500 0.100000 -0.012500
v -0.062500 0.100000 0.012500
v -0.062500 0.125000 -0.012500
v -0.037500 0.175000 0.012500
v -0.037500 0.150000 -0.012500
v -0.037500 0.150000 0.012500
v -0.037500 0.175000 -0.012500
v -0.012500 0.050000 0.012500
v -0.012500 0.025000 -0.012500
v -0.012500 0.025000 0.012500
v -0.012500 0.050000 -0.012500
v -0.012500 0.075000 0.012500
v -0.012500 0.075000 -0.012500
v -0.012500 0.200000 0.012500
v -0.012500 0.175000 -0.012500
v -0.012500 0.175000 0.012500
v -0.012500 0.200000 -0.012500
v 0.012500 0.225000 0.012500
v 0.012500 0.200000 -0.012500
v 0.012500 0.200000 0.012500
v 0.012500 0.225000 -0.012500
v 0.037500 0.250000 0.012500
v 0.037500 0.225000 -0.012500
v 0.037500 0.225000 0.012500
v 0.037500 0.250000 -0.012500
v 0.062500 0.275000 0.012500
v 0.062500 0.250000 -0.012500
v 0.062500 0.250000 0.012500
v 0.062500 0.275000 -0.012500
v -0.062500 -0.000000 0.012500
v -0.062500 0.000000 -0.012500
v -0.062500 0.050000 0.012500
v -0.062500 0.050000 -0.012500
v -0.062500 0.150000 0.012500
v -0.062500 0.150000 -0.012500
v -0.062500 0.175000 0.012500
v -0.062500 0.175000 -0.012500
v -0.037500 0.050000 0.012500
v -0.037500 0.050000 -0.012500
v -0.037500 0.075000 0.012500
v -0.037500 0.075000 -0.012500
v 0.012500 0.075000 0.012500
v 0.012500 0.075000 -0.012500
v 0.012500 0.100000 0.012500
v 0.012500 0.100000 -0.012500
v 0.037500 0.025000 0.012500
v 0.037500 0.025000 -0.012500
v 0.037500 0.050000 0.012500
v 0.037500 0.050000 -0.012500
v 0.037500 0.075000 0.012500
v 0.037500 0.075000 -0.012500
v 0.037500 0.100000 0.012500
v 0.037500 0.100000 -0.012500
v 0.037500 0.125000 0.012500
v 0.037500 0.125000 -0.012500
v 0.062500 0.125000 0.012500
v 0.062500 0.125000 -0.012500
v 0.062500 0.150000 0.012500
v 0.062500 0.150000 -0.012500
v 0.087500 0.150000 0.012500
v 0.087500 0.150000 -0.012500
v 0.087500 0.175000 0.012500
v 0.087500 0.175000 -0.012500
v 0.112500 0.175000 0.012500
v 0.112500 0.175000 -0.012500
v 0.112500 0.200000 0.012500
v 0.112500 0.200000 -0.012500
v 0.137500 0.200000 0.012500
v 0.137500 0.200000 -0.012500
v 0.137500 0.275000 0.012500
v 0.137500 0.275000 -0.012500
v -0.112500 0.025000 0.012500
v -0.137500 0.075000 0.012500
v -0.137500 -0.000000 0.012500
v -0.112500 0.050000 0.012500
v -0.087500 0.025000 0.012500
v -0.087500 0.050000 0.012500
v -0.087500 0.075000 0.012500
v -0.087500 0.125000 0.012500
v -0.112500 0.175000 0.012500
v -0.112500 0.125000 0.012500
v -0.087500 0.175000 0.012500
v -0.062500 -0.000000 0.012500
v -0.062500 0.050000 0.012500
v -0.062500 0.075000 0.012500
v -0.087500 0.100000 0.012500
v -0.062500 0.100000 0.012500
v -0.062500 0.125000 0.012500
v -0.062500 0.150000 0.012500
v -0.062500 0.175000 0.012500
v -0.037500 0.050000 0.012500
v -0.037500 0.075000 0.012500
v -0.037500 0.100000 0.012500
v -0.037500 0.125000 0.012500
v -0.037500 0.150000 0.012500
v -0.012500 0.075000 0.012500
v -0.012500 0.100000 0.012500
v -0.012500 0.125000 0.012500
v -0.012500 0.150000 0.012500
v -0.037500 0.175000 0.012500
v -0.012500 0.175000 0.012500
v 0.012500 0.075000 0.012500
v -0.012500 0.050000 0.012500
v 0.012500 0.100000 0.012500
v 0.012500 0.125000 0.012500
v 0.012500 0.150000 0.012500
v 0.012500 0.175000 0.012500
v -0.012500 0.200000 0.012500
v 0.012500 0.200000 0.012500
v 0.037500 0.025000 0.012500
v -0.012500 0.025000 0.012500
v 0.037500 0.050000 0.012500
v 0.037500 0.075000 0.012500
v 0.037500 0.100000 0.012500
v 0.037500 0.125000 0.012500
v 0.037500 0.150000 0.012500
v 0.037500 0.175000 0.012500
v 0.037500 0.200000 0.012500
v 0.012500 0.225000 0.012500
v 0.037500 0.225000 0.012500
v 0.062500 0.125000 0.012500
v 0.062500 0.150000 0.012500
v 0.062500 0.175000 0.012500
v 0.062500 0.200000 0.012500
v 0.062500 0.225000 0.012500
v 0.037500 0.250000 0.012500
v 0.062500 0.250000 0.012500
v 0.087500 0.150000 0.012500
v 0.087500 0.175000 0.012500
v 0.087500 0.200000 0.012500
v 0.087500 0.225000 0.012500
v 0.087500 0.250000 0.012500
v 0.062500 0.275000 0.012500
v 0.112500 0.175000 0.012500
v 0.112500 0.200000 0.012500
v 0.112500 0.225000 0.012500
v 0.112500 0.250000 0.012500
v 0.137500 0.200000 0.012500
v 0.137500 0.275000 0.012500
v -0.137500 0.000000 -0.012500
v -0.137500 0.075000 -0.012500
v -0.112500 0.025000 -0.012500
v -0.112500 0.050000 -0.012500
v -0.087500 0.025000 -0.012500
v -0.087500 0.050000 -0.012500
v -0.087500 0.075000 -0.012500
v -0.112500 0.125000 -0.012500
v -0.112500 0.175000 -0.012500
v -0.087500 0.125000 -0.012500
v -0.087500 0.175000 -0.012500
v -0.062500 0.000000 -0.012500
v -0.062500 0.050000 -0.012500
v -0.087500 0.100000 -0.012500
v -0.062500 0.075000 -0.012500
v -0.062500 0.100000 -0.012500
v -0.062500 0.125000 -0.012500
v -0.062500 0.150000 -0.012500
v -0.062500 0.175000 -0.012500
v -0.037500 0.050000 -0.012500
v -0.037500 0.075000 -0.012500
v -0.037500 0.100000 -0.012500
v -0.037500 0.125000 -0.012500
v -0.037500 0.150000 -0.012500
v -0.012500 0.075000 -0.012500
v -0.012500 0.100000 -0.012500
v -0.012500 0.125000 -0.012500
v -0.037500 0.175000 -0.012500
v -0.012500 0.150000 -0.012500
v -0.012500 0.175000 -0.012500
v 0.012500 0.075000 -0.012500
v -0.012500 0.050000 -0.012500
v 0.012500 0.100000 -0.012500
v 0.012500 0.125000 -0.012500
v 0.012500 0.150000 -0.012500
v -0.012500 0.200000 -0.012500
v 0.012500 0.175000 -0.012500
v 0.012500 0.200000 -0.012500
v -0.012500 0.025000 -0.012500
v 0.037500 0.025000 -0.012500
v 0.037500 0.050000 -0.012500
v 0.037500 0.075000 -0.012500
v 0.037500 0.100000 -0.012500
v 0.037500 0.125000 -0.012500
v 0.037500 0.150000 -0.012500
v 0.037500 0.175000 -0.012500
v 0.012500 0.225000 -0.012500
v 0.037500 0.200000 -0.012500
v 0.037500 0.225000 -0.012500
v 0.062500 0.125000 -0.012500
v 0.062500 0.150000 -0.012500
v 0.062500 0.175000 -0.012500
v 0.062500 0.200000 -0.012500
v 0.037500 0.250000 -0.012500
v 0.062500 0.225000 -0.012500
v 0.062500 0.250000 -0.012500
v 0.087500 0.150000 -0.012500
v 0.087500 0.175000 -0.012500
v 0.087500 0.200000 -0.012500
v 0.087500 0.225000 -0.012500
v 0.062500 0.275000 -0.012500
v 0.087500 0.250000 -0.012500
v 0.112500 0.175000 -0.012500
v 0.112500 0.200000 -0.012500
v 0.112500 0.225000 -0.012500
v 0.112500 0.250000 -0.012500
v 0.137500 0.200000 -0.012500
v 0.137500 0.275000 -0.012500
v -0.137500 0.000000 -0.012500
v -0.062500 -0.000000 0.012500
v -0.137500 -0.000000 0.012500
v -0.062500 0.000000 -0.012500
v -0.012500 0.025000 -0.012500
v 0.037500 0.025000 0.012500
v -0.012500 0.025000 0.012500
v 0.037500 0.025000 -0.012500
v -0.062500 0.050000 -0.012500
v -0.037500 0.050000 0.012500
v -0.062500 0.050000 0.012500
v -0.037500 0.050000 -0.012500
v -0.037500 0.075000 -0.012500
v -0.012500 0.075000 0.012500
v -0.037500 0.075000 0.012500
v -0.012500 0.075000 -0.012500
v 0.012500 0.100000 -0.012500
v 0.037500 0.100000 0.012500
v 0.012500 0.100000 0.012500
v 0.037500 0.100000 -0.012500
v -0.112500 0.125000 -0.012500
v -0.087500 0.125000 0.012500
v -0.112500 0.125000 0.012500
v -0.087500 0.125000 -0.012500
v -0.062500 0.125000 0.012500
v -0.062500 0.125000 -0.012500
v 0.037500 0.125000 -0.012500
v 0.062500 0.125000 0.012500
v 0.037500 0.125000 0.012500
v 0.062500 0.125000 -0.012500
v 0.062500 0.150000 -0.012500
v 0.087500 0.150000 0.012500
v 0.062500 0.150000 0.012500
v 0.087500 0.150000 -0.012500
v 0.087500 0.175000 -0.012500
v 0.112500 0.175000 0.012500
v 0.087500 0.175000 0.012500
v 0.112500 0.175000 -0.012500
v 0.112500 0.200000 -0.012500
v 0.137500 0.200000 0.012500
v 0.112500 0.200000 0.012500
v 0.137500 0.200000 -0.012500
v -0.137500 0.075000 0.012500
v -0.087500 0.075000 0.012500
v -0.137500 0.075000 -0.012500
v -0.087500 0.075000 -0.012500
v 0.012500 0.075000 0.012500
v 0.037500 0.075000 0.012500
v 0.012500 0.075000 -0.012500
v 0.037500 0.075000 -0.012500
v -0.087500 0.100000 0.012500
v -0.062500 0.100000 0.012500
v -0.087500 0.100000 -0.012500
v -0.062500 0.100000 -0.012500
v -0.062500 0.150000 0.012500
v -0.037500 0.150000 0.012500
v -0.062500 0.150000 -0.012500
v -0.037500 0.150000 -0.012500
v -0.112500 0.175000 0.012500
v -0.087500 0.175000 0.012500
v -0.112500 0.175000 -0.012500
v -0.062500 0.175000 0.012500
v -0.087500 0.175000 -0.012500
v -0.062500 0.175000 -0.012500
v -0.037500 0.175000 0.012500
v -0.012500 0.175000 0.012500
v -0.037500 0.175000 -0.012500
v -0.012500 0.175000 -0.012500
v -0.012500 0.200000 0.012500
v 0.012500 0.200000 0.012500
v -0.012500 0.200000 -0.012500
v 0.012500 0.200000 -0.012500
v 0.012500 0.225000 0.012500
v 0.037500 0.225000 0.012500
v 0.012500 0.225000 -0.012500
v 0.037500 0.225000 -0.012500
v 0.037500 0.250000 0.012500
v 0.062500 0.250000 0.012500
v 0.037500 0.250000 -0.012500
v 0.062500 0.250000 -0.012500
v 0.062500 0.275000 0.012500
v 0.137500 0.275000 0.012500
v 0.062500 0.275000 -0.012500
v 0.137500 0.275000 -0.012500
vt 0.9004 0.5000
vt 0.9004 0.5000
vt 0.9004 0.5000
vt 0.9004 0.5000
vt 0.7715 0.5000
vt 0.7715 0.5000
vt 0.7715 0.5000
vt 0.7715 0.5000
vt 0.9004 0.5000
vt 0.9004 0.5000
vt 0.9004 0.5000
vt 0.9004 0.5000
vt 0.7715 0.5000
vt 0.7715 0.5000
vt 0.7715 0.5000
vt 0.7715 0.5000
vt 0.9004 0.5000
vt 0.9004 0.5000
vt 0.9004 0.5000
vt 0.9004 0.5000
vt 0.7715 0.5000
vt 0.7715 0.5000
vt 0.7715 0.5000
vt 0.7715 0.5000
vt 0.7480 0.5000
vt 0.7480 0.5000
vt 0.7480 0.5000
vt 0.7480 0.5000
vt 0.9004 0.5000
vt 0.9004 0.5000
vt 0.9004 0.5000
vt 0.9004 0.5000
vt 0.9004 0.5000
vt 0.9004 0.5000
vt 0.9004 0.5000
vt 0.9004 0.5000
vt 0.9004 0.5000
vt 0.9004 0.5000
vt 0.9004 0.5000
vt 0.9004 0.5000
vt 0.9004 0.5000
vt 0.9004 0.5000
vt 0.9004 0.5000
vt 0.9004 0.5000
vt 0.9004 0.5000
vt 0.9004 0.5000
vt 0.9004 0.5000
vt 0.9004 0.5000
vt 0.7480 0.5000
vt 0.7480 0.5000
vt 0.7480 0.5000
vt 0.7480 0.5000
vt 0.9004 0.5000
vt 0.9004 0.5000
vt 0.9004 0.5000
vt 0.9004 0.5000
vt 0.7480 0.5000
vt 0.7480 0.5000
vt 0.7480 0.5000
vt 0.7480 0.5000
vt 0.7715 0.5000
vt 0.7715 0.5000
vt 0.7715 0.5000
vt 0.7715 0.5000
vt 0.7480 0.5000
vt 0.7480 0.5000
vt 0.7480 0.5000
vt 0.7480 0.5000
vt 0.9004 0.5000
vt 0.9004 0.5000
vt 0.9004 0.5000
vt 0.9004 0.5000
vt 0.9004 0.5000
vt 0.9004 0.5000
vt 0.9004 0.5000
vt 0.9004 0.5000
vt 0.9004 0.5000
vt 0.9004 0.5000
vt 0.9004 0.5000
vt 0.9004 0.5000
vt 0.9004 0.5000
vt 0.9004 0.5000
vt 0.9004 0.5000
vt 0.9004 0.5000
vt 0.9004 0.5000
vt 0.9004 0.5000
vt 0.9004 0.5000
vt 0.9004 0.5000
vt 0.9004 0.5000
vt 0.9004 0.5000
vt 0.9004 0.5000
vt 0.9004 0.5000
vt 0.9004 0.5000
vt 0.7715 0.5000
vt 0.7715 0.5000
vt 0.7715 0.5000
vt 0.9004 0.5000
vt 0.7715 0.5000
vt 0.9004 0.5000
vt 0.7715 0.5000
vt 0.7715 0.5000
vt 0.7715 0.5000
vt 0.7715 0.5000
vt 0.9004 0.5000
vt 0.7715 0.5000
vt 0.7715 0.5000
vt 0.9004 0.5000
vt 0.9004 0.5000
vt 0.9004 0.5000
vt 0.7715 0.5000
vt 0.9004 0.5000
vt 0.7480 0.5000
vt 0.7480 0.5000
vt 0.7480 0.5000
vt 0.7480 0.5000
vt 0.7480 0.5000
vt 0.9004 0.5000
vt 0.7715 0.5000
vt 0.7715 0.5000
vt 0.9004 0.5000
vt 0.7715 0.5000
vt 0.7715 0.5000
vt 0.7480 0.5000
vt 0.7715 0.5000
vt 0.7480 0.5000
vt 0.7715 0.5000
vt 0.7480 0.5000
vt 0.7480 0.5000
vt 0.7715 0.5000
vt 0.7480 0.5000
vt 0.9004 0.5000
vt 0.9004 0.5000
vt 0.9004 0.5000
vt 0.7480 0.5000
vt 0.9004 0.5000
vt 0.7480 0.5000
vt 0.7480 0.5000
vt 0.7480 0.5000
vt 0.7480 0.5000
vt 0.9004 0.5000
vt 0.9004 0.5000
vt 0.7480 0.5000
vt 0.7715 0.5000
vt 0.7715 0.5000
vt 0.7715 0.5000
vt 0.9004 0.5000
vt 0.9004 0.5000
vt 0.9004 0.5000
vt 0.7715 0.5000
vt 0.9004 0.5000
vt 0.7715 0.5000
vt 0.7715 0.5000
vt 0.7715 0.5000
vt 0.7480 0.5000
vt 0.7715 0.5000
vt 0.7480 0.5000
vt 0.9004 0.5000
vt 0.9004 0.5000
vt 0.7715 0.5000
vt 0.7715 0.5000
vt 0.9004 0.5000
vt 0.7480 0.5000
vt 0.7480 0.5000
vt 0.7480 0.5000
vt 0.7715 0.5000
vt 0.7715 0.5000
vt 0.7715 0.5000
vt 0.7480 0.5000
vt 0.9004 0.5000
vt 0.9004 0.5000
vt 0.7715 0.5000
vt 0.9004 0.5000
vt 0.9004 0.5000
vt 0.9004 0.5000
vt 0.7715 0.5000
vt 0.9004 0.5000
vt 0.7480 0.5000
vt 0.7480 0.5000
vt 0.7715 0.5000
vt 0.7715 0.5000
vt 0.7715 0.5000
vt 0.7480 0.5000
vt 0.9004 0.5000
vt 0.9004 0.5000
vt 0.7715 0.5000
vt 0.9004 0.5000
vt 0.9004 0.5000
vt 0.9004 0.5000
vt 0.7715 0.5000
vt 0.9004 0.5000
vt 0.7480 0.5000
vt 0.7480 0.5000
vt 0.7715 0.5000
vt 0.7715 0.5000
vt 0.7715 0.5000
vt 0.7480 0.5000
vt 0.9004 0.5000
vt 0.9004 0.5000
vt 0.7715 0.5000
vt 0.9004 0.5000
vt 0.9004 0.5000
vt 0.7715 0.5000
vt 0.9004 0.5000
vt 0.7480 0.5000
vt 0.7480 0.5000
vt 0.7715 0.5000
vt 0.9004 0.5000
vt 0.7480 0.5000
vt 0.9004 0.5000
vt 0.9004 0.5000
vt 0.9004 0.5000
vt 0.9004 0.5000
vt 0.9004 0.5000
vt 0.9004 0.5000
vt 0.9004 0.5000
vt 0.9004 0.5000
vt 0.7715 0.5000
vt 0.7715 0.5000
vt 0.7715 0.5000
vt 0.9004 0.5000
vt 0.7715 0.5000
vt 0.9004 0.5000
vt 0.7715 0.5000
vt 0.7715 0.5000
vt 0.7715 0.5000
vt 0.7715 0.5000
vt 0.9004 0.5000
vt 0.7715 0.5000
vt 0.7715 0.5000
vt 0.9004 0.5000
vt 0.9004 0.5000
vt 0.9004 0.5000
vt 0.7715 0.5000
vt 0.9004 0.5000
vt 0.7480 0.5000
vt 0.7480 0.5000
vt 0.7480 0.5000
vt 0.7480 0.5000
vt 0.7480 0.5000
vt 0.9004 0.5000
vt 0.7715 0.5000
vt 0.7715 0.5000
vt 0.9004 0.5000
vt 0.7715 0.5000
vt 0.7715 0.5000
vt 0.7480 0.5000
vt 0.7715 0.5000
vt 0.7480 0.5000
vt 0.7715 0.5000
vt 0.7480 0.5000
vt 0.7480 0.5000
vt 0.7715 0.5000
vt 0.7480 0.5000
vt 0.9004 0.5000
vt 0.9004 0.5000
vt 0.9004 0.5000
vt 0.7480 0.5000
vt 0.9004 0.5000
vt 0.7480 0.5000
vt 0.7480 0.5000
vt 0.7480 0.5000
vt 0.7480 0.5000
vt 0.9004 0.5000
vt 0.9004 0.5000
vt 0.7480 0.5000
vt 0.7715 0.5000
vt 0.7715 0.5000
vt 0.7715 0.5000
vt 0.9004 0.5000
vt 0.9004 0.5000
vt 0.9004 0.5000
vt 0.7715 0.5000
vt 0.9004 0.5000
vt 0.7715 0.5000
vt 0.7715 0.5000
vt 0.7715 0.5000
vt 0.7480 0.5000
vt 0.7715 0.5000
vt 0.7480 0.5000
vt 0.9004 0.5000
vt 0.9004 0.5000
vt 0.7715 0.5000
vt 0.7715 0.5000
vt 0.9004 0.5000
vt 0.7480 0.5000
vt 0.7480 0.5000
vt 0.7480 0.5000
vt 0.7715 0.5000
vt 0.7715 0.5000
vt 0.7715 0.5000
vt 0.7480 0.5000
vt 0.9004 0.5000
vt 0.9004 0.5000
vt 0.7715 0.5000
vt 0.9004 0.5000
vt 0.9004 0.5000
vt 0.9004 0.5000
vt 0.7715 0.5000
vt 0.9004 0.5000
vt 0.7480 0.5000
vt 0.7480 0.5000
vt 0.7715 0.5000
vt 0.7715 0.5000
vt 0.7715 0.5000
vt 0.7480 0.5000
vt 0.9004 0.5000
vt 0.9004 0.5000
vt 0.7715 0.5000
vt 0.9004 0.5000
vt 0.9004 0.5000
vt 0.9004 0.5000
vt 0.7715 0.5000
vt 0.9004 0.5000
vt 0.7480 0.5000
vt 0.7480 0.5000
vt 0.7715 0.5000
vt 0.7715 0.5000
vt 0.7715 0.5000
vt 0.7480 0.5000
vt 0.9004 0.5000
vt 0.9004 0.5000
vt 0.7715 0.5000
vt 0.9004 0.5000
vt 0.9004 0.5000
vt 0.7715 0.5000
vt 0.9004 0.5000
vt 0.7480 0.5000
vt 0.7480 0.5000
vt 0.7715 0.5000
vt 0.9004 0.5000
vt 0.7480 0.5000
vt 0.9004 0.5000
vt 0.9004 0.5000
vt 0.9004 0.5000
vt 0.9004 0.5000
vt 0.9004 0.5000
vt 0.9004 0.5000
vt 0.9004 0.5000
vt 0.7715 0.5000
vt 0.7715 0.5000
vt 0.7715 0.5000
vt 0.7715 0.5000
vt 0.9004 0.5000
vt 0.9004 0.5000
vt 0.9004 0.5000
vt 0.9004 0.5000
vt 0.7715 0.5000
vt 0.7715 0.5000
vt 0.7715 0.5000
vt 0.7715 0.5000
vt 0.9004 0.5000
vt 0.9004 0.5000
vt 0.9004 0.5000
vt 0.9004 0.5000
vt 0.7715 0.5000
vt 0.7715 0.5000
vt 0.7715 0.5000
vt 0.7480 0.5000
vt 0.7480 0.5000
vt 0.7480 0.5000
vt 0.7715 0.5000
vt 0.7480 0.5000
vt 0.9004 0.5000
vt 0.9004 0.5000
vt 0.9004 0.5000
vt 0.9004 0.5000
vt 0.9004 0.5000
vt 0.9004 0.5000
vt 0.9004 0.5000
vt 0.9004 0.5000
vt 0.9004 0.5000
vt 0.9004 0.5000
vt 0.9004 0.5000
vt 0.9004 0.5000
vt 0.9004 0.5000
vt 0.9004 0.5000
vt 0.9004 0.5000
vt 0.9004 0.5000
vt 0.9004 0.5000
vt 0.9004 0.5000
vt 0.9004 0.5000
vt 0.9004 0.5000
vt 0.7480 0.5000
vt 0.7480 0.5000
vt 0.7480 0.5000
vt 0.7480 0.5000
vt 0.9004 0.5000
vt 0.9004 0.5000
vt 0.9004 0.5000
vt 0.9004 0.5000
vt 0.7480 0.5000
vt 0.7480 0.5000
vt 0.7480 0.5000
vt 0.7480 0.5000
vt 0.7715 0.5000
vt 0.7715 0.5000
vt 0.7715 0.5000
vt 0.7480 0.5000
vt 0.7480 0.5000
vt 0.7480 0.5000
vt 0.7715 0.5000
vt 0.7480 0.5000
vt 0.9004 0.5000
vt 0.9004 0.5000
vt 0.9004 0.5000
vt 0.9004 0.5000
vt 0.9004 0.5000
vt 0.9004 0.5000
vt 0.9004 0.5000
vt 0.9004 0.5000
vt 0.9004 0.5000
vt 0.9004 0.5000
vt 0.9004 0.5000
vt 0.9004 0.5000
vt 0.9004 0.5000
vt 0.9004 0.5000
vt 0.9004 0.5000
vt 0.9004 0.5000
vt 0.9004 0.5000
vt 0.9004 0.5000
vt 0.9004 0.5000
vt 0.9004 0.5000
vn -1.0000 0.0000 0.0000
vn 1.0000 0.0000 0.0000
vn -0.0000 -0.0000 1.0000
vn 0.0000 0.0000 -1.0000
vn 0.0000 -1.0000 -0.0000
vn 0.0000 1.0000 0.0000
usemtl palette.029
s 1
f 1/1/1 2/2/1 3/3/1
f 4/4/1 2/2/1 1/1/1
f 5/5/1 6/6/1 7/7/1
f 8/8/1 6/6/1 5/5/1
f 9/9/1 10/10/1 11/11/1
f 12/12/1 10/10/1 9/9/1
f 13/13/1 14/14/1 15/15/1
f 16/16/1 14/14/1 13/13/1
f 17/17/1 18/18/1 19/19/1
f 20/20/1 18/18/1 17/17/1
f 21/21/1 22/22/1 23/23/1
f 24/24/1 22/22/1 21/21/1
f 25/25/1 24/26/1 21/27/1
f 26/28/1 24/26/1 25/25/1
f 27/29/1 28/30/1 29/31/1
f 30/32/1 28/30/1 27/29/1
f 31/33/1 32/34/1 33/35/1
f 34/36/1 32/34/1 31/33/1
f 35/37/1 36/38/1 37/39/1
f 38/40/1 36/38/1 35/37/1
f 39/41/1 40/42/1 41/43/1
f 42/44/1 40/42/1 39/41/1
f 43/45/2 44/46/2 45/47/2
f 45/47/2 44/46/2 46/48/2
f 47/49/2 48/50/2 49/51/2
f 49/51/2 48/50/2 50/52/2
f 51/53/2 52/54/2 53/55/2
f 53/55/2 52/54/2 54/56/2
f 55/57/2 56/58/2 57/59/2
f 57/59/2 56/58/2 58/60/2
f 59/61/2 60/62/2 61/63/2
f 61/63/2 60/62/2 62/64/2
f 61/65/2 62/66/2 63/67/2
f 63/67/2 62/66/2 64/68/2
f 65/69/2 66/70/2 67/71/2
f 67/71/2 66/70/2 68/72/2
f 69/73/2 70/74/2 71/75/2
f 71/75/2 70/74/2 72/76/2
f 73/77/2 74/78/2 75/79/2
f 75/79/2 74/78/2 76/80/2
f 77/81/2 78/82/2 79/83/2
f 79/83/2 78/82/2 80/84/2
f 81/85/2 82/86/2 83/87/2
f 83/87/2 82/86/2 84/88/2
f 85/89/3 86/90/3 87/91/3
f 88/92/3 86/90/3 85/89/3
f 89/93/3 85/89/3 87/91/3
f 89/94/3 88/95/3 85/96/3
f 90/97/3 86/90/3 88/92/3
f 90/98/3 88/95/3 89/94/3
f 91/99/3 86/90/3 90/97/3
f 92/100/3 93/101/3 94/102/3
f 95/103/3 93/101/3 92/100/3
f 96/104/3 89/93/3 87/91/3
f 96/104/3 90/97/3 89/93/3
f 97/105/3 91/106/3 90/98/3
f 97/107/3 90/97/3 96/104/3
f 98/108/3 99/109/3 91/99/3
f 98/110/3 91/106/3 97/105/3
f 100/111/3 99/109/3 98/108/3
f 101/112/3 95/113/3 92/114/3
f 102/115/3 95/113/3 101/112/3
f 103/116/3 95/113/3 102/115/3
f 104/117/3 98/108/3 97/107/3
f 105/118/3 100/119/3 98/110/3
f 105/120/3 98/108/3 104/117/3
f 105/118/3 101/121/3 100/119/3
f 106/122/3 101/121/3 105/118/3
f 107/123/3 102/115/3 101/112/3
f 107/124/3 101/121/3 106/122/3
f 108/125/3 102/115/3 107/123/3
f 109/126/3 106/122/3 105/118/3
f 110/127/3 107/123/3 106/128/3
f 110/127/3 108/125/3 107/123/3
f 110/129/3 106/122/3 109/126/3
f 111/130/3 108/125/3 110/127/3
f 112/131/3 113/132/3 108/133/3
f 112/134/3 108/125/3 111/130/3
f 114/135/3 113/132/3 112/131/3
f 115/136/3 111/130/3 110/127/3
f 115/136/3 109/137/3 116/138/3
f 115/136/3 110/127/3 109/137/3
f 117/139/3 111/130/3 115/136/3
f 118/140/3 112/131/3 111/141/3
f 118/142/3 111/130/3 117/139/3
f 119/143/3 114/144/3 112/145/3
f 119/146/3 112/131/3 118/140/3
f 120/147/3 121/148/3 114/135/3
f 120/149/3 114/144/3 119/143/3
f 122/150/3 121/148/3 120/147/3
f 123/151/3 116/152/3 124/153/3
f 125/154/3 115/136/3 116/138/3
f 125/155/3 116/152/3 123/151/3
f 126/156/3 115/136/3 125/154/3
f 127/157/3 118/140/3 117/158/3
f 128/159/3 119/143/3 118/160/3
f 128/161/3 118/140/3 127/157/3
f 129/162/3 120/163/3 119/164/3
f 129/165/3 119/143/3 128/159/3
f 130/166/3 122/167/3 120/149/3
f 130/168/3 120/163/3 129/162/3
f 131/169/3 132/170/3 122/150/3
f 131/171/3 122/167/3 130/166/3
f 133/172/3 132/170/3 131/169/3
f 134/173/3 129/174/3 128/161/3
f 135/175/3 130/166/3 129/165/3
f 135/176/3 129/174/3 134/173/3
f 136/177/3 131/178/3 130/168/3
f 136/179/3 130/166/3 135/175/3
f 137/180/3 133/181/3 131/171/3
f 137/182/3 131/178/3 136/177/3
f 138/183/3 139/184/3 133/172/3
f 138/185/3 133/181/3 137/180/3
f 140/186/3 139/184/3 138/183/3
f 141/187/3 136/188/3 135/176/3
f 142/189/3 137/180/3 136/179/3
f 142/190/3 136/188/3 141/187/3
f 143/191/3 138/192/3 137/182/3
f 143/193/3 137/180/3 142/189/3
f 144/194/3 140/195/3 138/185/3
f 144/196/3 138/192/3 143/191/3
f 145/197/3 146/198/3 140/186/3
f 145/199/3 140/195/3 144/194/3
f 147/200/3 143/201/3 142/190/3
f 148/202/3 144/194/3 143/193/3
f 148/203/3 143/201/3 147/200/3
f 149/204/3 145/205/3 144/196/3
f 149/206/3 144/194/3 148/202/3
f 150/207/3 146/198/3 145/197/3
f 150/208/3 145/205/3 149/204/3
f 151/209/3 149/210/3 148/203/3
f 151/209/3 150/207/3 149/210/3
f 152/211/3 146/198/3 150/207/3
f 152/211/3 150/207/3 151/209/3
f 153/212/4 154/213/4 155/214/4
f 155/214/4 154/213/4 156/215/4
f 153/212/4 155/214/4 157/216/4
f 155/217/4 156/218/4 157/219/4
f 156/215/4 154/213/4 158/220/4
f 157/219/4 156/218/4 158/221/4
f 158/220/4 154/213/4 159/222/4
f 160/223/4 161/224/4 162/225/4
f 162/225/4 161/224/4 163/226/4
f 153/212/4 157/216/4 164/227/4
f 157/216/4 158/220/4 164/227/4
f 158/221/4 159/228/4 165/229/4
f 164/227/4 158/220/4 165/230/4
f 159/222/4 166/231/4 167/232/4
f 165/229/4 159/228/4 167/233/4
f 167/232/4 166/231/4 168/234/4
f 162/235/4 163/236/4 169/237/4
f 169/237/4 163/236/4 170/238/4
f 170/238/4 163/236/4 171/239/4
f 165/230/4 167/232/4 172/240/4
f 167/233/4 168/241/4 173/242/4
f 172/240/4 167/232/4 173/243/4
f 168/241/4 169/244/4 173/242/4
f 173/242/4 169/244/4 174/245/4
f 169/237/4 170/238/4 175/246/4
f 174/245/4 169/244/4 175/247/4
f 175/246/4 170/238/4 176/248/4
f 173/242/4 174/245/4 177/249/4
f 174/250/4 175/246/4 178/251/4
f 175/246/4 176/248/4 178/251/4
f 177/249/4 174/245/4 178/252/4
f 178/251/4 176/248/4 179/253/4
f 176/254/4 180/255/4 181/256/4
f 179/253/4 176/248/4 181/257/4
f 181/256/4 180/255/4 182/258/4
f 178/251/4 179/253/4 183/259/4
f 184/260/4 177/261/4 183/259/4
f 177/261/4 178/251/4 183/259/4
f 183/259/4 179/253/4 185/262/4
f 179/263/4 181/256/4 186/264/4
f 185/262/4 179/253/4 186/265/4
f 181/266/4 182/267/4 187/268/4
f 186/264/4 181/256/4 187/269/4
f 182/258/4 188/270/4 189/271/4
f 187/268/4 182/267/4 189/272/4
f 189/271/4 188/270/4 190/273/4
f 191/274/4 184/275/4 192/276/4
f 184/260/4 183/259/4 193/277/4
f 192/276/4 184/275/4 193/278/4
f 193/277/4 183/259/4 194/279/4
f 185/280/4 186/264/4 195/281/4
f 186/282/4 187/268/4 196/283/4
f 195/281/4 186/264/4 196/284/4
f 187/285/4 189/286/4 197/287/4
f 196/283/4 187/268/4 197/288/4
f 189/272/4 190/289/4 198/290/4
f 197/287/4 189/286/4 198/291/4
f 190/273/4 199/292/4 200/293/4
f 198/290/4 190/289/4 200/294/4
f 200/293/4 199/292/4 201/295/4
f 196/284/4 197/296/4 202/297/4
f 197/288/4 198/290/4 203/298/4
f 202/297/4 197/296/4 203/299/4
f 198/291/4 200/300/4 204/301/4
f 203/298/4 198/290/4 204/302/4
f 200/294/4 201/303/4 205/304/4
f 204/301/4 200/300/4 205/305/4
f 201/295/4 206/306/4 207/307/4
f 205/304/4 201/303/4 207/308/4
f 207/307/4 206/306/4 208/309/4
f 203/299/4 204/310/4 209/311/4
f 204/302/4 205/304/4 210/312/4
f 209/311/4 204/310/4 210/313/4
f 205/305/4 207/314/4 211/315/4
f 210/312/4 205/304/4 211/316/4
f 207/308/4 208/317/4 212/318/4
f 211/315/4 207/314/4 212/319/4
f 208/309/4 213/320/4 214/321/4
f 212/318/4 208/317/4 214/322/4
f 210/313/4 211/323/4 215/324/4
f 211/316/4 212/318/4 216/325/4
f 215/324/4 211/323/4 216/326/4
f 212/319/4 214/327/4 217/328/4
f 216/325/4 212/318/4 217/329/4
f 214/321/4 213/320/4 218/330/4
f 217/328/4 214/327/4 218/331/4
f 216/326/4 217/332/4 219/333/4
f 217/332/4 218/330/4 219/333/4
f 218/330/4 213/320/4 220/334/4
f 219/333/4 218/330/4 220/334/4
f 221/335/5 222/336/5 223/337/5
f 224/338/5 222/336/5 221/335/5
f 225/339/5 226/340/5 227/341/5
f 228/342/5 226/340/5 225/339/5
f 229/343/5 230/344/5 231/345/5
f 232/346/5 230/344/5 229/343/5
f 233/347/5 234/348/5 235/349/5
f 236/350/5 234/348/5 233/347/5
f 237/351/5 238/352/5 239/353/5
f 240/354/5 238/352/5 237/351/5
f 241/355/5 242/356/5 243/357/5
f 244/358/5 245/359/5 242/360/5
f 244/361/5 242/356/5 241/355/5
f 246/362/5 245/359/5 244/358/5
f 247/363/5 248/364/5 249/365/5
f 250/366/5 248/364/5 247/363/5
f 251/367/5 252/368/5 253/369/5
f 254/370/5 252/368/5 251/367/5
f 255/371/5 256/372/5 257/373/5
f 258/374/5 256/372/5 255/371/5
f 259/375/5 260/376/5 261/377/5
f 262/378/5 260/376/5 259/375/5
f 263/379/6 264/380/6 265/381/6
f 265/381/6 264/380/6 266/382/6
f 267/383/6 268/384/6 269/385/6
f 269/385/6 268/384/6 270/386/6
f 271/387/6 272/388/6 273/389/6
f 273/389/6 272/388/6 274/390/6
f 275/391/6 276/392/6 277/393/6
f 277/393/6 276/392/6 278/394/6
f 279/395/6 280/396/6 281/397/6
f 280/398/6 282/399/6 283/400/6
f 281/397/6 280/396/6 283/401/6
f 283/400/6 282/399/6 284/402/6
f 285/403/6 286/404/6 287/405/6
f 287/405/6 286/404/6 288/406/6
f 289/407/6 290/408/6 291/409/6
f 291/409/6 290/408/6 292/410/6
f 293/411/6 294/412/6 295/413/6
f 295/413/6 294/412/6 296/414/6
f 297/415/6 298/416/6 299/417/6
f 299/417/6 298/416/6 300/418/6
f 301/419/6 302/420/6 303/421/6
f 303/421/6 302/420/6 304/422/6
